<?xml version="1.0" standalone="no"?>
<!DOCTYPE svg PUBLIC "-//W3C//DTD SVG 1.1//EN" "http://www.w3.org/Graphics/SVG/1.1/DTD/svg11.dtd" >
<svg xmlns="http://www.w3.org/2000/svg" xmlns:xlink="http://www.w3.org/1999/xlink" version="1.1">
<metadata>
Created by FontForge 20170731 at Mon Aug 25 13:12:39 2014
 By Aleksey,,,
Copyright (c) 2014 by Hannes von Doehren, Livius Dietzel. All rights reserved.
</metadata>
<defs>
<font id="BrixSansLight" horiz-adv-x="560" >
  <font-face 
    font-family="Brix Sans Light"
    font-weight="300"
    font-stretch="normal"
    units-per-em="1000"
    panose-1="2 0 0 0 0 0 0 0 0 0"
    ascent="720"
    descent="-280"
    x-height="456"
    cap-height="676"
    bbox="-148 -226 1047 975"
    underline-thickness="50"
    underline-position="-200"
    unicode-range="U+0020-FB02"
  />
<missing-glyph horiz-adv-x="513" 
d="M50 0v656h413v-656h-413zM88 40h337v576h-337v-576z" />
    <glyph glyph-name="fi" unicode="fi" horiz-adv-x="556" 
d="M424 0v403h-260v-403h-59v403h-81v43l81 10v76q0 158 135 158h47v-53h-45q-43 0 -60.5 -26.5t-17.5 -78.5v-76h319v-456h-59zM453 579q-47 0 -47 47q0 48 47 48q20 0 34 -12.5t14 -35.5t-14 -35t-34 -12z" />
    <glyph glyph-name="fl" unicode="fl" horiz-adv-x="547" 
d="M287 690v-53h-45q-43 0 -60.5 -26.5t-17.5 -78.5v-76h141v-53h-141v-403h-59v403h-81v43l81 10v76q0 158 135 158h47zM394 690h59v-570q0 -35 10.5 -50.5t38.5 -15.5h27v-55h-39q-52 0 -74 28.5t-22 87.5v575z" />
    <glyph glyph-name="f_f" unicode="ff" horiz-adv-x="620" 
d="M585 690v-53h-45q-43 0 -60.5 -26.5t-17.5 -78.5v-76h141v-53h-141v-403h-59v403h-239v-403h-59v403h-81v43l81 10v76q0 158 135 158h47v-53h-45q-43 0 -60.5 -26.5t-17.5 -78.5v-76h239v76q0 158 135 158h47z" />
    <glyph glyph-name=".notdef" horiz-adv-x="513" 
d="M50 0v656h413v-656h-413zM88 40h337v576h-337v-576z" />
    <glyph glyph-name=".null" horiz-adv-x="0" 
 />
    <glyph glyph-name=".null" horiz-adv-x="0" 
 />
    <glyph glyph-name="nonmarkingreturn" horiz-adv-x="333" 
 />
    <glyph glyph-name="space" unicode=" " horiz-adv-x="225" 
 />
    <glyph glyph-name="exclam" unicode="!" horiz-adv-x="223" 
d="M135 206h-48l-12 470h73zM112 -7q-22 0 -36.5 14.5t-14.5 36.5t14.5 36t36.5 14q23 0 37.5 -14t14.5 -36t-15 -36.5t-37 -14.5z" />
    <glyph glyph-name="quotedbl" unicode="&#x22;" horiz-adv-x="344" 
d="M223 432l-9 244h66l-10 -244h-47zM74 432l-10 244h68l-11 -244h-47z" />
    <glyph glyph-name="numbersign" unicode="#" horiz-adv-x="610" 
d="M147 213h-101l4 54h106l25 167h-100l3 54h105l30 188h57l-29 -188h151l29 188h58l-29 -188h108l-4 -54h-113l-25 -167h107l-4 -54h-112l-32 -213h-59l33 213h-151l-32 -213h-58zM239 434l-26 -167h151l25 167h-150z" />
    <glyph glyph-name="dollar" unicode="$" horiz-adv-x="548" 
d="M297 -103h-47v93q-49 2 -86 14.5t-60 33t-35.5 39t-23.5 42.5l52 30q18 -45 51.5 -72t101.5 -31v270l-28 8q-154 46 -154 170q0 74 47.5 127.5t134.5 62.5v75h47v-74q67 -4 116 -31t72 -66l-50 -35q-43 69 -138 75v-262l38 -11q76 -23 118 -62.5t42 -110.5
q0 -80 -51.5 -132.5t-146.5 -59.5v-93zM315 297l-18 5v-255q66 6 100 41t34 91q0 85 -116 118zM133 496q0 -47 26.5 -72t82.5 -42l8 -3v248q-57 -8 -87 -43.5t-30 -87.5z" />
    <glyph glyph-name="percent" unicode="%" horiz-adv-x="784" 
d="M624 676l-409 -676h-56l407 676h58zM599 36q86 0 86 136t-86 136t-86 -136t86 -136zM599 348q137 0 137 -176q0 -84 -33.5 -130.5t-103.5 -46.5t-103.5 46.5t-33.5 130.5q0 83 34 129.5t103 46.5zM181 367q86 0 86 136t-86 136t-86 -136t86 -136zM181 679q137 0 137 -176
q0 -84 -33.5 -130.5t-103.5 -46.5t-103.5 46.5t-33.5 130.5q0 83 34 129.5t103 46.5z" />
    <glyph glyph-name="ampersand" unicode="&#x26;" horiz-adv-x="650" 
d="M549 355l47 -37l-102 -145q-7 -9 -19 -27l138 -140v-6h-75l-99 100q-93 -111 -214 -111q-82 0 -129 43t-47 104q0 32 11 60t34.5 53t41.5 40.5t50 38.5l18 13l-32 33q-27 27 -40 42.5t-29.5 49t-16.5 66.5q0 66 51.5 110t136.5 44q81 0 131 -44.5t50 -109.5
q0 -49 -28.5 -83t-90.5 -81l-46 -34l143 -145l16 22zM225 44q52 0 93 25.5t80 73.5l-154 157l-21 -16q-38 -28 -57.5 -44t-38 -44.5t-18.5 -58.5q0 -38 33.5 -65.5t82.5 -27.5zM146 532q0 -35 17.5 -61.5t52.5 -60.5l34 -35l49 36q37 27 52.5 39.5t30 35t14.5 46.5
q0 41 -32.5 70.5t-89.5 29.5q-58 0 -93 -30t-35 -70z" />
    <glyph glyph-name="quotesingle" unicode="'" horiz-adv-x="195" 
d="M73 432l-8 244h66l-11 -244h-47z" />
    <glyph glyph-name="parenleft" unicode="(" horiz-adv-x="262" 
d="M234 -206l-46 -16q-68 110 -101.5 216t-33.5 246q0 147 34.5 250.5t100.5 212.5l48 -16q-58 -110 -88.5 -211.5t-30.5 -235.5q0 -126 28.5 -228.5t88.5 -217.5z" />
    <glyph glyph-name="parenright" unicode=")" horiz-adv-x="261" 
d="M27 -206q61 116 89.5 218.5t28.5 227.5q0 133 -30.5 235t-89.5 212l49 16q66 -110 100 -213t34 -250q0 -140 -33 -246t-101 -216z" />
    <glyph glyph-name="asterisk" unicode="*" horiz-adv-x="471" 
d="M137 337l-41 38l101 120l-146 39l20 55l144 -51l-4 158h59l-7 -157l143 46l15 -57l-142 -35l94 -123l-49 -33l-88 130z" />
    <glyph glyph-name="plus" unicode="+" 
d="M55 243v53h195v201h57v-201h198v-53h-198v-200h-57v200h-195z" />
    <glyph glyph-name="comma" unicode="," horiz-adv-x="213" 
d="M146 95l-48 -208h-48l25 208h71z" />
    <glyph glyph-name="hyphen" unicode="-" horiz-adv-x="383" 
d="M69 296h245v-53h-245v53z" />
    <glyph glyph-name="period" unicode="." horiz-adv-x="226" 
d="M113 -7q-23 0 -38 14.5t-15 37.5t15 37.5t38 14.5t38 -14.5t15 -37.5t-15 -37.5t-38 -14.5z" />
    <glyph glyph-name="slash" unicode="/" horiz-adv-x="336" 
d="M303 676l-210 -676h-59l206 676h63z" />
    <glyph glyph-name="zero" unicode="0" horiz-adv-x="594" 
d="M297 46q173 0 173 292t-173 292t-173 -292t173 -292zM297 686q120 0 178.5 -91.5t58.5 -256.5t-58.5 -256.5t-178.5 -91.5t-178.5 91.5t-58.5 256.5t58.5 256.5t178.5 91.5z" />
    <glyph glyph-name="one" unicode="1" horiz-adv-x="380" 
d="M291 0h-62v615l-193 -80l-17 51l215 90h57v-676z" />
    <glyph glyph-name="two" unicode="2" horiz-adv-x="519" 
d="M251 686q92 0 145.5 -53.5t53.5 -138.5q0 -66 -32.5 -120t-98.5 -125l-181 -194h330v-55h-413v49l220 238q57 62 84 109t27 98q0 61 -35.5 98.5t-99.5 37.5q-63 0 -97.5 -38.5t-34.5 -101.5h-62q0 89 51 142.5t143 53.5z" />
    <glyph glyph-name="three" unicode="3" horiz-adv-x="549" 
d="M350 349q55 -10 97 -55t42 -115q0 -84 -60 -137t-159 -53q-105 0 -160 49t-55 122h62q0 -50 41 -82.5t112 -32.5q73 0 114 37.5t41 98.5q0 64 -47.5 102t-123.5 38h-60v55h60q71 0 115.5 33.5t44.5 93.5q0 57 -38.5 92t-105.5 35q-68 0 -105.5 -33.5t-37.5 -83.5h-63
q0 72 53 122.5t153 50.5q95 0 151.5 -51.5t56.5 -129.5q0 -64 -36.5 -103.5t-91.5 -52.5z" />
    <glyph glyph-name="four" unicode="4" horiz-adv-x="578" 
d="M536 209v-55h-105v-154h-62v154h-332v50l330 472h64v-467h105zM106 209h263v375z" />
    <glyph glyph-name="five" unicode="5" horiz-adv-x="530" 
d="M477 217q0 -98 -56.5 -163t-161.5 -65q-106 0 -159 54t-53 135h63q0 -58 37 -95.5t112 -37.5t114.5 48t39.5 124q0 71 -39 112.5t-109 41.5t-134 -46l-53 5l41 346h338v-55h-286l-29 -235q67 41 132 41q92 0 147.5 -55t55.5 -155z" />
    <glyph glyph-name="six" unicode="6" horiz-adv-x="565" 
d="M128 268q0 -94 40.5 -158.5t120.5 -64.5q76 0 117 45.5t41 122.5q0 74 -41 116t-117 42q-51 0 -95 -30t-66 -73zM431 513q0 54 -37 85.5t-100 31.5q-82 0 -126 -79t-44 -215q22 33 69.5 61.5t104.5 28.5q100 0 156 -58.5t56 -154.5t-57 -160t-164 -64q-115 0 -172 88
t-57 241q0 173 60 270.5t174 97.5q96 0 148 -49t52 -124h-63z" />
    <glyph glyph-name="seven" unicode="7" horiz-adv-x="468" 
d="M120 0l250 621h-335v55h404v-50l-250 -626h-69z" />
    <glyph glyph-name="eight" unicode="8" horiz-adv-x="573" 
d="M287 -11q-103 0 -165.5 50.5t-62.5 140.5q0 71 40.5 114t96.5 56q-54 14 -88.5 52.5t-34.5 100.5q0 83 58.5 133t155.5 50t155 -50t58 -133q0 -63 -34.5 -101t-88.5 -52q56 -13 96.5 -56t40.5 -114q0 -90 -62.5 -140.5t-164.5 -50.5zM287 630q-69 0 -109.5 -33.5
t-40.5 -95.5q0 -57 42 -90.5t108 -33.5q65 0 107 33t42 91q0 62 -40 95.5t-109 33.5zM286 45q76 0 120 37t44 104q0 63 -46.5 99.5t-117.5 36.5q-72 0 -117.5 -36.5t-45.5 -99.5q0 -67 44 -104t119 -37z" />
    <glyph glyph-name="nine" unicode="9" horiz-adv-x="565" 
d="M437 408q0 94 -40.5 158.5t-120.5 64.5q-76 0 -117 -45.5t-41 -122.5q0 -74 41 -116t117 -42q51 0 95 30t66 73zM71 163h63q0 -53 36.5 -85t99.5 -32q83 0 127 79t44 215q-22 -32 -69.5 -61.5t-104.5 -29.5q-100 0 -156 58.5t-56 155.5q0 96 57 160t164 64q115 0 172 -88
t57 -241q0 -173 -60 -270.5t-175 -97.5q-95 0 -147 49t-52 124z" />
    <glyph glyph-name="colon" unicode=":" horiz-adv-x="239" 
d="M119 -7q-22 0 -36.5 14.5t-14.5 36.5t14.5 36t36.5 14q23 0 37.5 -14t14.5 -36t-15 -36.5t-37 -14.5zM119 364q-22 0 -36.5 14.5t-14.5 36.5t14.5 36.5t36.5 14.5q23 0 37.5 -14.5t14.5 -36.5t-15 -36.5t-37 -14.5z" />
    <glyph glyph-name="semicolon" unicode=";" horiz-adv-x="234" 
d="M118 364q-22 0 -37 14.5t-15 36.5t14.5 36.5t37.5 14.5t37.5 -14.5t14.5 -36.5t-15 -36.5t-37 -14.5zM158 95l-48 -208h-48l25 208h71z" />
    <glyph glyph-name="less" unicode="&#x3c;" 
d="M82 241v58l378 169v-59l-322 -139l322 -138v-60z" />
    <glyph glyph-name="equal" unicode="=" 
d="M91 412h378v-53h-378v53zM91 181h378v-52h-378v52z" />
    <glyph glyph-name="greater" unicode="&#x3e;" 
d="M478 299v-58l-379 -169v60l322 138l-322 139v59z" />
    <glyph glyph-name="question" unicode="?" horiz-adv-x="447" 
d="M213 -7q-22 0 -37 14.5t-15 36.5t14.5 36t37.5 14t37.5 -14t14.5 -36t-15 -36.5t-37 -14.5zM214 686q87 0 138 -47.5t51 -118.5q0 -38 -16.5 -72t-39.5 -59t-46 -50.5t-39.5 -59.5t-16.5 -73h-61q0 43 16 81t39 65t46.5 52t39.5 54t16 59q0 45 -32.5 78t-90.5 33
q-51 0 -83.5 -27.5t-32.5 -73.5l-61 3q0 69 44.5 112.5t128.5 43.5z" />
    <glyph glyph-name="at" unicode="@" horiz-adv-x="895" 
d="M565 343q-39 55 -104 55q-70 0 -115.5 -62t-45.5 -148q0 -58 26 -87.5t69 -29.5q77 0 131 62zM532 80q-24 -26 -62.5 -43.5t-82.5 -17.5q-70 0 -106.5 42t-36.5 124q0 108 58 186t154 78q77 0 118 -54l8 45h53l-53 -296q-7 -41 0.5 -59.5t33.5 -18.5q65 0 115.5 75
t50.5 215q0 106 -69 176t-215 70q-182 0 -285 -121t-103 -302q0 -304 283 -304q108 0 200 45l13 -49q-100 -47 -212 -47q-172 0 -255 94.5t-83 261.5q0 132 51.5 238.5t153 170.5t237.5 64q88 0 155 -24.5t106 -67t58 -94t19 -111.5q0 -159 -67.5 -249t-157.5 -90
q-73 0 -79 63z" />
    <glyph glyph-name="A" unicode="A" horiz-adv-x="605" 
d="M518 0l-67 190h-298l-67 -190h-68l245 676h78l247 -676h-70zM303 611l-131 -366h260z" />
    <glyph glyph-name="B" unicode="B" horiz-adv-x="577" 
d="M89 0v676h201q99 0 150 -44.5t51 -123.5q0 -63 -29.5 -103.5t-79.5 -50.5q61 -9 101.5 -51.5t40.5 -118.5q0 -184 -225 -184h-210zM152 55h136q89 0 130.5 31t41.5 101q0 135 -171 135h-137v-267zM152 377h127q146 0 146 128q0 116 -146 116h-127v-244z" />
    <glyph glyph-name="C" unicode="C" horiz-adv-x="583" 
d="M124 337q0 -132 49 -211t157 -79q53 0 97 23.5t64 65.5l51 -34q-27 -50 -84 -81t-129 -31q-136 0 -203 91t-67 256q0 166 67 257.5t203 91.5q72 0 129 -31t84 -81l-51 -34q-20 42 -64 65.5t-97 23.5q-108 0 -157 -79t-49 -213z" />
    <glyph glyph-name="D" unicode="D" horiz-adv-x="647" 
d="M89 0v676h180q174 0 246 -78t72 -260q0 -181 -72 -259.5t-246 -78.5h-180zM152 55h115q147 0 201 63t54 220q0 155 -54.5 219t-200.5 64h-115v-566z" />
    <glyph glyph-name="E" unicode="E" horiz-adv-x="535" 
d="M152 55h332v-55h-395v676h391v-55h-328v-245h295v-55h-295v-266z" />
    <glyph glyph-name="F" unicode="F" horiz-adv-x="518" 
d="M89 0v676h388v-55h-325v-265h280v-56h-280v-300h-63z" />
    <glyph glyph-name="G" unicode="G" horiz-adv-x="636" 
d="M343 301v57h240q4 -22 4 -42q0 -96 -22.5 -166t-81 -115t-150.5 -45q-274 0 -274 347q0 349 285 349q146 0 209 -110l-49 -34q-28 45 -65 66t-96 21q-63 0 -106.5 -21.5t-67.5 -62t-34.5 -91t-10.5 -117.5q0 -141 49 -216t159 -75q190 0 190 255h-179z" />
    <glyph glyph-name="H" unicode="H" horiz-adv-x="671" 
d="M519 384v292h63v-676h-63v329h-367v-329h-63v676h63v-292h367z" />
    <glyph glyph-name="I" unicode="I" horiz-adv-x="241" 
d="M89 0v676h63v-676h-63z" />
    <glyph glyph-name="J" unicode="J" horiz-adv-x="488" 
d="M27 88l48 32q22 -39 51 -56t73 -17q71 0 107.5 44.5t36.5 147.5v437h61v-436q0 -250 -205 -250q-118 0 -172 98z" />
    <glyph glyph-name="K" unicode="K" horiz-adv-x="599" 
d="M264 351l-112 -114v-237h-63v676h63v-356l341 356h82l-265 -280l265 -396h-79z" />
    <glyph glyph-name="L" unicode="L" horiz-adv-x="474" 
d="M152 55h299v-55h-362v676h63v-621z" />
    <glyph glyph-name="M" unicode="M" horiz-adv-x="860" 
d="M431 83l199 593h84l96 -676h-64l-81 600l-201 -600h-69l-200 602l-82 -602h-63l96 676h88z" />
    <glyph glyph-name="N" unicode="N" horiz-adv-x="680" 
d="M528 101l1 575h62v-676h-68l-371 576v-576h-63v676h68z" />
    <glyph glyph-name="O" unicode="O" horiz-adv-x="656" 
d="M124 337q0 -139 46 -214.5t156 -75.5q113 0 160 75t47 215q0 139 -47 215.5t-158 76.5q-204 0 -204 -292zM597 337q0 -161 -65.5 -254t-205.5 -93q-138 0 -202.5 92.5t-64.5 254.5t65 255.5t204 93.5t204 -93.5t65 -255.5z" />
    <glyph glyph-name="P" unicode="P" horiz-adv-x="556" 
d="M293 275h-141v-275h-63v676h204q112 0 166 -53t54 -147t-54.5 -147.5t-165.5 -53.5zM152 621v-290h139q157 0 157 145t-157 145h-139z" />
    <glyph glyph-name="Q" unicode="Q" horiz-adv-x="656" 
d="M597 337q0 -135 -45 -221l88 -85l-37 -42l-82 81q-67 -80 -195 -80q-138 0 -202.5 92.5t-64.5 254.5t65 255.5t204 93.5t204 -93.5t65 -255.5zM124 337q0 -139 46 -214.5t156 -75.5q102 0 153 65l-173 172l36 39l164 -162q27 67 27 176q0 139 -47 215.5t-158 76.5
q-204 0 -204 -292z" />
    <glyph glyph-name="R" unicode="R" horiz-adv-x="591" 
d="M89 0v676h223q113 0 170 -48t57 -135q0 -78 -48 -125t-135 -55l203 -313h-74l-197 308h-136l-1 -308h-62zM474 493q0 63 -39 95.5t-126 32.5h-157v-258h157q87 0 126 33t39 97z" />
    <glyph glyph-name="S" unicode="S" horiz-adv-x="545" 
d="M483 587l-50 -34q-47 76 -154 76q-71 0 -109 -37.5t-38 -95.5q0 -47 26.5 -72t82.5 -42l92 -27q76 -23 118.5 -62.5t42.5 -109.5q0 -86 -59 -139.5t-165 -53.5q-55 0 -96 11.5t-66.5 33t-39.5 41t-25 44.5l52 30q20 -48 58 -75.5t117 -27.5q78 0 118.5 36t40.5 97
q0 47 -30.5 74t-85.5 43l-93 27q-153 46 -153 170q0 81 55.5 136.5t156.5 55.5q74 0 127 -28.5t77 -70.5z" />
    <glyph glyph-name="T" unicode="T" horiz-adv-x="534" 
d="M34 676h466v-55h-201v-621h-63v621h-202v55z" />
    <glyph glyph-name="U" unicode="U" horiz-adv-x="654" 
d="M327 -10q-243 0 -243 259v427h63v-430q0 -105 45.5 -152t134.5 -47q88 0 134 47t46 152v430h63v-427q0 -136 -65 -197.5t-178 -61.5z" />
    <glyph glyph-name="V" unicode="V" horiz-adv-x="592" 
d="M502 676h69l-235 -676h-80l-234 676h68l206 -609z" />
    <glyph glyph-name="W" unicode="W" horiz-adv-x="967" 
d="M447 676h74l176 -600l176 600h68l-203 -676h-79l-176 589l-175 -589h-79l-203 676h68l176 -600z" />
    <glyph glyph-name="X" unicode="X" horiz-adv-x="565" 
d="M34 676h74l174 -281l174 281h75l-206 -326l218 -350h-74l-187 301l-186 -301h-75l219 350z" />
    <glyph glyph-name="Y" unicode="Y" horiz-adv-x="566" 
d="M315 0h-63v273l-233 403h71l193 -342l193 342h72l-233 -403v-273z" />
    <glyph glyph-name="Z" unicode="Z" horiz-adv-x="512" 
d="M463 676v-50l-349 -571h354v-55h-430v49l349 572h-329v55h405z" />
    <glyph glyph-name="bracketleft" unicode="[" horiz-adv-x="286" 
d="M74 690h182v-52h-122v-802h122v-52h-182v906z" />
    <glyph glyph-name="backslash" unicode="\" horiz-adv-x="336" 
d="M242 0l-209 676h63l206 -676h-60z" />
    <glyph glyph-name="bracketright" unicode="]" horiz-adv-x="286" 
d="M30 690h182v-906h-182v52h122v802h-122v52z" />
    <glyph glyph-name="asciicircum" unicode="^" 
d="M50 469l230 229l230 -229l-41 -42l-189 189l-188 -189z" />
    <glyph glyph-name="underscore" unicode="_" horiz-adv-x="509" 
d="M54 -31h400v-47h-400v47z" />
    <glyph glyph-name="grave" unicode="`" horiz-adv-x="600" 
d="M228 696h67l77 -151h-57z" />
    <glyph glyph-name="a" unicode="a" horiz-adv-x="468" 
d="M397 0h-56v58q-59 -68 -157 -68q-67 0 -104 33.5t-37 93.5q0 121 204 144l92 11v52q0 47 -24 68.5t-82 21.5q-107 0 -107 -61v-30h-54q-2 22 -2 33q0 50 41.5 80t123.5 30q162 0 162 -141v-325zM104 119q0 -78 91 -78q86 0 144 64v121l-89 -11q-146 -19 -146 -96z" />
    <glyph glyph-name="b" unicode="b" horiz-adv-x="514" 
d="M134 690v-281q48 57 133 57q101 0 149 -63t48 -174q0 -112 -49 -175.5t-148 -63.5q-89 0 -139 57l-15 -47h-38v690h59zM403 229q0 86 -32.5 133.5t-110.5 47.5q-47 0 -78.5 -20t-47.5 -47v-228q16 -29 48 -49.5t78 -20.5q143 0 143 184z" />
    <glyph glyph-name="c" unicode="c" horiz-adv-x="447" 
d="M50 227q0 108 50 173.5t148 65.5q114 0 164 -88l-46 -31q-36 65 -116 65q-72 0 -105.5 -50t-33.5 -135q0 -183 139 -183q81 0 117 64l45 -31q-50 -87 -164 -87q-99 0 -148.5 64.5t-49.5 172.5z" />
    <glyph glyph-name="d" unicode="d" horiz-adv-x="514" 
d="M381 409v281h59v-690h-58v46q-45 -56 -138 -56q-98 0 -146 63t-48 176q0 111 48.5 174t146.5 63q88 0 136 -57zM111 229q0 -184 142 -184q91 0 128 67v231q-42 67 -127 67q-78 0 -110.5 -47t-32.5 -134z" />
    <glyph glyph-name="e" unicode="e" horiz-adv-x="470" 
d="M251 43q80 0 131 52l31 -41q-21 -26 -66.5 -45t-95.5 -19q-104 0 -152.5 64t-48.5 175q0 106 49 171.5t146 65.5q86 0 131.5 -55t45.5 -134q0 -35 -5 -67h-307q2 -167 141 -167zM110 259h253q1 6 1 22q0 59 -31 96t-88 37q-124 0 -135 -155z" />
    <glyph glyph-name="f" unicode="f" horiz-adv-x="322" 
d="M287 690v-53h-45q-43 0 -60.5 -26.5t-17.5 -78.5v-76h141v-53h-141v-403h-59v403h-81v43l81 10v76q0 158 135 158h47z" />
    <glyph glyph-name="g" unicode="g" horiz-adv-x="510" 
d="M378 456h57v-494q0 -70 -50 -117t-133 -47q-82 0 -128 39t-46 92h57q0 -31 32.5 -55.5t84.5 -24.5q58 0 91 31.5t33 80.5v90q-47 -61 -131 -61q-99 0 -147 64t-48 174q0 111 48.5 174.5t146.5 63.5q86 0 133 -58v48zM111 228q0 -183 141 -183q81 0 124 68v229
q-41 68 -124 68q-77 0 -109 -47.5t-32 -134.5z" />
    <glyph glyph-name="h" unicode="h" horiz-adv-x="519" 
d="M75 0v690h59v-288q22 28 64 46t89 18q86 0 124 -42.5t38 -129.5v-294h-59v291q0 62 -25.5 90.5t-89.5 28.5q-93 0 -141 -62v-348h-59z" />
    <glyph glyph-name="i" unicode="i" horiz-adv-x="209" 
d="M75 0v456h59v-456h-59zM104 579q-47 0 -47 47q0 48 47 48q20 0 34 -12.5t14 -35.5t-14 -35t-34 -12z" />
    <glyph glyph-name="j" unicode="j" horiz-adv-x="209" 
d="M18 -226l-28 45q50 19 67.5 50.5t17.5 97.5v489h59v-482q0 -87 -27.5 -133t-88.5 -67zM104 579q-48 0 -48 47q0 24 13.5 36t34.5 12q20 0 33.5 -12.5t13.5 -35.5t-13.5 -35t-33.5 -12z" />
    <glyph glyph-name="k" unicode="k" horiz-adv-x="463" 
d="M441 0h-70l-157 236l-80 -76v-160h-59v690h59v-457l233 223h78l-188 -179z" />
    <glyph glyph-name="l" unicode="l" horiz-adv-x="224" 
d="M71 690h59v-570q0 -35 10.5 -50.5t38.5 -15.5h27v-55h-39q-52 0 -74 28.5t-22 87.5v575z" />
    <glyph glyph-name="m" unicode="m" horiz-adv-x="808" 
d="M74 0v456h58v-54q59 64 138 64q99 0 148 -72q64 72 159 72q161 0 161 -169v-297h-59v294q0 60 -25.5 88t-85.5 28q-80 0 -130 -62v-348h-59v346q-31 64 -116 64q-73 0 -130 -61v-349h-59z" />
    <glyph glyph-name="n" unicode="n" horiz-adv-x="519" 
d="M74 0v456h58v-56q22 30 64.5 48t89.5 18q86 0 124 -42.5t38 -129.5v-294h-58v291q0 62 -26 90.5t-90 28.5q-93 0 -141 -62v-348h-59z" />
    <glyph glyph-name="o" unicode="o" horiz-adv-x="501" 
d="M251 466q102 0 151 -64.5t49 -172.5q0 -110 -49.5 -174.5t-153.5 -64.5q-99 0 -148.5 65t-49.5 173t50 173t151 65zM249 45q142 0 142 183t-141 183q-139 0 -139 -182q0 -184 138 -184z" />
    <glyph glyph-name="p" unicode="p" horiz-adv-x="515" 
d="M133 46v-262h-59v672h58v-47q46 57 138 57q98 0 146 -63.5t48 -176.5q0 -111 -48.5 -173.5t-146.5 -62.5q-91 0 -136 56zM404 226q0 184 -143 184q-91 0 -128 -67v-231q40 -67 128 -67q78 0 110.5 47t32.5 134z" />
    <glyph glyph-name="q" unicode="q" horiz-adv-x="512" 
d="M379 -216v262q-47 -56 -133 -56q-100 0 -148 62.5t-48 173.5q0 112 48.5 176t147.5 64q88 0 139 -58l15 48h38v-672h-59zM111 226q0 -86 32.5 -133.5t110.5 -47.5q46 0 77.5 20t47.5 47v228q-16 28 -48 49t-77 21q-143 0 -143 -184z" />
    <glyph glyph-name="r" unicode="r" horiz-adv-x="335" 
d="M132 379h1q43 87 130 87q35 0 57 -7l-9 -63q-26 9 -56 9q-80 0 -122 -102v-303h-59v456h58v-77z" />
    <glyph glyph-name="s" unicode="s" horiz-adv-x="427" 
d="M373 403l-38 -38q-42 51 -118 51q-52 0 -76.5 -23t-24.5 -59q0 -53 63 -69l79 -18q125 -31 125 -124q0 -59 -46 -96t-129 -37q-110 0 -168 76l39 38q16 -20 27.5 -31t38.5 -22t64 -11q51 0 82 20.5t31 59.5q0 29 -20 45t-60 27l-80 20q-107 25 -107 119q0 55 41 95
t122 40q102 0 155 -63z" />
    <glyph glyph-name="t" unicode="t" horiz-adv-x="332" 
d="M168 403v-280q0 -78 67 -78q31 0 67 18l11 -52q-44 -21 -91 -21q-113 0 -113 128v285h-88v43l88 10v116l59 12v-128h132v-53h-132z" />
    <glyph glyph-name="u" unicode="u" horiz-adv-x="519" 
d="M445 456v-456h-58v56q-22 -30 -64.5 -48t-89.5 -18q-86 0 -124 42.5t-38 129.5v294h58v-291q0 -62 26 -90.5t90 -28.5q93 0 141 62v348h59z" />
    <glyph glyph-name="v" unicode="v" horiz-adv-x="468" 
d="M378 456h64l-172 -456h-72l-173 456h64l145 -399z" />
    <glyph glyph-name="w" unicode="w" horiz-adv-x="752" 
d="M345 456h62l127 -389l125 389h65l-153 -456h-68l-127 380l-128 -380h-67l-153 456h65l124 -389z" />
    <glyph glyph-name="x" unicode="x" horiz-adv-x="438" 
d="M256 228l155 -228h-70l-122 185l-122 -185h-69l153 229l-153 227h70l121 -184l122 184h70z" />
    <glyph glyph-name="y" unicode="y" horiz-adv-x="476" 
d="M88 456l158 -351l142 351h67l-283 -672h-64l107 249l-195 423h68z" />
    <glyph glyph-name="z" unicode="z" horiz-adv-x="407" 
d="M359 456v-45l-244 -358h249v-53h-324v45l245 358h-233v53h307z" />
    <glyph glyph-name="braceleft" unicode="{" horiz-adv-x="282" 
d="M170 555v-216q0 -92 -65 -102q65 -10 65 -104v-213q0 -49 17 -67.5t59 -18.5v-50q-73 0 -104.5 29t-31.5 106v211q0 46 -19.5 64t-68.5 18v50q49 0 68.5 17.5t19.5 63.5v212q0 75 32 105t104 30v-50q-42 0 -59 -18.5t-17 -66.5z" />
    <glyph glyph-name="bar" unicode="|" horiz-adv-x="195" 
d="M121 -216h-47v906h47v-906z" />
    <glyph glyph-name="braceright" unicode="}" horiz-adv-x="282" 
d="M112 339v216q0 48 -17 66.5t-59 18.5v50q72 0 104 -30t32 -105v-212q0 -46 19.5 -63.5t68.5 -17.5v-50q-49 0 -68.5 -18t-19.5 -64v-211q0 -77 -31.5 -106t-104.5 -29v50q42 0 59 18.5t17 67.5v213q0 94 65 104q-65 10 -65 102z" />
    <glyph glyph-name="asciitilde" unicode="~" 
d="M453 297l-12 -55q-42 38 -78 38q-25 0 -80.5 -39t-91.5 -39q-23 0 -48 12t-37 25l9 57q40 -38 74 -38q30 0 83 39t91 39q45 0 90 -39z" />
    <glyph glyph-name="uni00A0" unicode="&#xa0;" horiz-adv-x="225" 
 />
    <glyph glyph-name="exclamdown" unicode="&#xa1;" horiz-adv-x="214" 
d="M83 254h49l11 -471h-73zM106 466q22 0 37 -14.5t15 -35.5q0 -22 -15 -36.5t-37 -14.5t-37 14.5t-15 36.5q0 21 15 35.5t37 14.5z" />
    <glyph glyph-name="cent" unicode="&#xa2;" horiz-adv-x="478" 
d="M58 227q0 108 50 173.5t148 65.5q10 0 30 -2l19 76l44 -10l-19 -76q59 -21 90 -76l-45 -31q-22 37 -58 54l-86 -355q18 -2 28 -2q80 0 116 64l45 -31q-50 -87 -164 -87q-20 0 -38 3l-14 -61l-43 10l15 62q-118 47 -118 223zM119 227q0 -128 70 -167l85 351q-5 1 -15 1
q-73 0 -106.5 -50t-33.5 -135z" />
    <glyph glyph-name="sterling" unicode="&#xa3;" horiz-adv-x="558" 
d="M41 323h68v123q0 107 50 173.5t155 66.5q130 0 202 -90l-43 -41q-58 73 -157 73q-145 0 -145 -185v-120h204v-48h-204v-221h309v-54h-370l-1 275h-68v48z" />
    <glyph glyph-name="currency" unicode="&#xa4;" horiz-adv-x="529" 
d="M391 356q15 -33 15 -79q0 -51 -16 -84l79 -81l-42 -42l-79 76q-33 -25 -86 -25t-87 24l-72 -72l-42 41l76 76q-18 33 -18 86q0 47 17 80l-77 79l42 42l73 -74q35 27 89 27q58 0 91 -28l74 73l40 -40zM262 176q89 0 89 100t-88 100q-89 0 -89 -99q0 -101 88 -101z" />
    <glyph glyph-name="yen" unicode="&#xa5;" horiz-adv-x="578" 
d="M84 291h165l-49 89h-116v48h89l-141 248h70l186 -340l189 340h71l-145 -248h88v-48h-116l-51 -89h167v-48h-174v-243h-62v243h-171v48z" />
    <glyph glyph-name="brokenbar" unicode="&#xa6;" horiz-adv-x="202" 
d="M125 306h-48v384h48v-384zM77 170h48v-386h-48v386z" />
    <glyph glyph-name="section" unicode="&#xa7;" horiz-adv-x="556" 
d="M495 262q0 -74 -81 -126q77 -42 77 -109q0 -63 -58 -102.5t-158 -39.5q-154 0 -226 99l41 40q64 -86 186 -86q66 0 108.5 21t42.5 64q0 21 -18 39t-37.5 27.5t-56.5 24.5l-113 45q-132 51 -132 143q0 36 21 70t56 56q-73 43 -73 113q0 57 55 101t152 44q147 0 213 -97
l-43 -38q-64 81 -173 81q-60 0 -100.5 -24t-40.5 -62q0 -34 32 -56t96 -46l79 -29q76 -28 113.5 -62t37.5 -91zM199 404q-30 -15 -48.5 -42t-18.5 -54q0 -33 26.5 -56.5t78.5 -43.5l124 -48q71 40 71 97q0 38 -29.5 61t-87.5 43z" />
    <glyph glyph-name="dieresis" unicode="&#xa8;" horiz-adv-x="600" 
d="M212 569q-48 0 -48 47q0 24 13.5 36t34.5 12q20 0 33.5 -12.5t13.5 -35.5t-13.5 -35t-33.5 -12zM388 569q-47 0 -47 47q0 48 47 48q20 0 34 -12.5t14 -35.5t-14 -35t-34 -12z" />
    <glyph glyph-name="copyright" unicode="&#xa9;" horiz-adv-x="808" 
d="M57 338q0 158 98.5 255.5t249.5 97.5q150 0 248 -97.5t98 -255.5t-98 -256.5t-248 -98.5q-151 0 -249.5 98.5t-98.5 256.5zM110 338q0 -138 82.5 -221t212.5 -83q129 0 211 83t82 221t-81.5 220t-211.5 82t-212.5 -82t-82.5 -220zM277 335q0 -73 30 -115t93 -42
q68 0 109 56l40 -34q-57 -74 -150 -74q-84 0 -131.5 56t-47.5 153q0 96 49.5 152.5t131.5 56.5t143 -65l-38 -35q-46 48 -104 48q-62 0 -93.5 -42t-31.5 -115z" />
    <glyph glyph-name="ordfeminine" unicode="&#xaa;" horiz-adv-x="361" 
d="M291 350h-49v33q-40 -40 -95 -40q-92 0 -92 79t136 94l50 6v28q0 48 -59 48q-61 0 -61 -30v-19h-48q-1 9 -1 21q0 31 28.5 50t82.5 19q53 0 80.5 -23t27.5 -65v-201zM106 424q0 -40 48 -40q52 0 87 43v58l-46 -6q-89 -11 -89 -55z" />
    <glyph glyph-name="guillemotleft" unicode="&#xab;" horiz-adv-x="472" 
d="M33 270l170 208l40 -30l-135 -178l136 -178l-41 -30zM210 270l170 208l40 -30l-135 -178l136 -178l-41 -30z" />
    <glyph glyph-name="logicalnot" unicode="&#xac;" 
d="M50 314v53h451v-245h-58v192h-393z" />
    <glyph glyph-name="uni00AD" unicode="&#xad;" horiz-adv-x="383" 
d="M69 296h245v-53h-245v53z" />
    <glyph glyph-name="registered" unicode="&#xae;" horiz-adv-x="808" 
d="M502 424q0 32 -22 52.5t-71 20.5h-95v-148h90q50 0 74 22.5t24 52.5zM262 131v409h144q147 0 147 -115q0 -47 -31 -77t-87 -37l131 -180h-62l-124 175h-66v-175h-52zM57 338q0 158 98.5 255.5t249.5 97.5q150 0 248 -97.5t98 -255.5t-98 -256.5t-248 -98.5
q-151 0 -249.5 98.5t-98.5 256.5zM110 338q0 -138 82.5 -221t212.5 -83q129 0 211 83t82 221t-81.5 220t-211.5 82t-212.5 -82t-82.5 -220z" />
    <glyph glyph-name="macron" unicode="&#xaf;" horiz-adv-x="600" 
d="M164 635h272v-51h-272v51z" />
    <glyph glyph-name="degree" unicode="&#xb0;" horiz-adv-x="370" 
d="M49 547q0 61 37.5 100t97.5 39q62 0 99.5 -39t37.5 -100q0 -60 -38 -99.5t-99 -39.5q-60 0 -97.5 39.5t-37.5 99.5zM94 547q0 -42 25 -69t65 -27q42 0 67 27t25 69t-25.5 69t-66.5 27q-40 0 -65 -27t-25 -69z" />
    <glyph glyph-name="plusminus" unicode="&#xb1;" 
d="M54 376v52h195v201h58v-201h198v-52h-198v-188h-58v188h-195zM54 36v53h451v-53h-451z" />
    <glyph glyph-name="twosuperior" unicode="&#xb2;" horiz-adv-x="303" 
d="M147 792q52 0 83.5 -28t31.5 -72q0 -34 -19 -62.5t-56 -63.5l-86 -81h168v-41h-235v35l120 116q57 54 57 97q0 26 -17 43t-47 17q-32 0 -48.5 -17.5t-16.5 -47.5h-49q0 48 29.5 76.5t84.5 28.5z" />
    <glyph glyph-name="threesuperior" unicode="&#xb3;" horiz-adv-x="317" 
d="M205 619q31 -5 52.5 -27.5t21.5 -57.5q0 -43 -34 -70t-91 -27q-61 0 -92 26t-31 66h49q0 -22 19.5 -36t54.5 -14q34 0 54.5 15.5t20.5 41.5q0 29 -23 45.5t-63 16.5h-33v41h33q36 0 58 15t22 41q0 25 -18.5 40.5t-50.5 15.5q-33 0 -50.5 -14.5t-17.5 -36.5h-51
q0 39 30.5 65t88.5 26q55 0 87.5 -26t32.5 -68q0 -30 -20 -51t-49 -27z" />
    <glyph glyph-name="acute" unicode="&#xb4;" horiz-adv-x="600" 
d="M305 696h67l-87 -151h-57z" />
    <glyph glyph-name="mu" unicode="&#xb5;" horiz-adv-x="517" 
d="M130 -216h-59v672h59v-291q0 -62 25.5 -90.5t89.5 -28.5q92 0 142 62v348h59v-456h-58v56q-22 -30 -64.5 -48t-90.5 -18q-64 0 -103 25v-231z" />
    <glyph glyph-name="paragraph" unicode="&#xb6;" horiz-adv-x="485" 
d="M195 456h101v-514h-56v226q-109 0 -156.5 33t-47.5 112q0 66 39.5 104.5t119.5 38.5zM302 -226l-26 44q48 19 65.5 49.5t17.5 96.5v492h57v-485q0 -79 -23.5 -127t-90.5 -70z" />
    <glyph glyph-name="periodcentered" unicode="&#xb7;" horiz-adv-x="239" 
d="M119 218q-23 0 -38 14.5t-15 37.5t15 37.5t38 14.5t38 -14.5t15 -37.5t-15 -37.5t-38 -14.5z" />
    <glyph glyph-name="cedilla" unicode="&#xb8;" horiz-adv-x="600" 
d="M282 4l48 -4l-22 -57q40 0 65 -19.5t25 -61.5q0 -31 -25.5 -54.5t-71.5 -23.5q-37 0 -81 22v49q37 -27 78 -27q22 0 34 10t12 24q0 39 -60 39h-31l-3 5z" />
    <glyph glyph-name="onesuperior" unicode="&#xb9;" horiz-adv-x="226" 
d="M172 443h-49v297l-103 -38l-13 39l121 45h44v-343z" />
    <glyph glyph-name="ordmasculine" unicode="&#xba;" horiz-adv-x="373" 
d="M187 639q67 0 100.5 -41t33.5 -106q0 -67 -33.5 -108t-101.5 -41q-66 0 -100 41.5t-34 107.5q0 65 34.5 106t100.5 41zM186 386q43 0 63.5 28.5t20.5 77.5q0 104 -83 104t-83 -104q0 -106 82 -106z" />
    <glyph glyph-name="guillemotright" unicode="&#xbb;" horiz-adv-x="472" 
d="M268 478l170 -208l-170 -208l-40 30l136 178l-136 178zM91 478l170 -208l-170 -208l-40 30l136 178l-136 178z" />
    <glyph glyph-name="onequarter" unicode="&#xbc;" horiz-adv-x="691" 
d="M647 113v-41h-53v-72h-50v72h-180v38l179 233h51v-230h53zM417 113h127v164zM574 676l-409 -676h-56l407 676h58zM199 331h-49v297l-103 -38l-13 39l121 45h44v-343z" />
    <glyph glyph-name="onehalf" unicode="&#xbd;" horiz-adv-x="715" 
d="M574 676l-409 -676h-56l407 676h58zM543 348q52 0 83.5 -28t31.5 -72q0 -34 -19 -62.5t-56 -63.5l-86 -81h168v-41h-235v35l120 116q57 54 57 97q0 26 -17 43t-47 17q-32 0 -48.5 -17.5t-16.5 -47.5h-49q0 48 29.5 76.5t84.5 28.5zM199 331h-49v297l-103 -38l-13 39
l121 45h44v-343z" />
    <glyph glyph-name="threequarters" unicode="&#xbe;" horiz-adv-x="735" 
d="M224 507q31 -5 52.5 -27.5t21.5 -57.5q0 -43 -34 -70t-91 -27q-61 0 -92 26t-31 66h49q0 -22 19.5 -36t54.5 -14q34 0 54.5 15.5t20.5 41.5q0 29 -23 45.5t-63 16.5h-33v41h33q36 0 58 15t22 41q0 25 -18.5 40.5t-50.5 15.5q-33 0 -50.5 -14.5t-17.5 -36.5h-51
q0 39 30.5 65t88.5 26q55 0 87.5 -26t32.5 -68q0 -30 -20 -51t-49 -27zM620 676l-409 -676h-56l407 676h58zM693 113v-41h-53v-72h-50v72h-180v38l179 233h51v-230h53zM463 113h127v164z" />
    <glyph glyph-name="questiondown" unicode="&#xbf;" horiz-adv-x="438" 
d="M230 467q22 0 37 -14.5t15 -36.5t-14.5 -36t-37.5 -14t-37.5 14t-14.5 36t15 36.5t37 14.5zM229 -226q-87 0 -138 47.5t-51 118.5q0 38 16.5 72t39.5 59t46 50.5t39.5 59.5t16.5 73h61q0 -43 -16 -81t-39.5 -65t-46.5 -52t-39 -54t-16 -59q0 -45 32.5 -78t90.5 -33
q51 0 83.5 27.5t32.5 73.5l61 -3q0 -69 -44.5 -112.5t-128.5 -43.5z" />
    <glyph glyph-name="Agrave" unicode="&#xc0;" horiz-adv-x="605" 
d="M518 0l-67 190h-298l-67 -190h-68l245 676h78l247 -676h-70zM303 611l-131 -366h260zM190 899h67l77 -151h-57z" />
    <glyph glyph-name="Aacute" unicode="&#xc1;" horiz-adv-x="605" 
d="M518 0l-67 190h-298l-67 -190h-68l245 676h78l247 -676h-70zM303 611l-131 -366h260zM349 899h67l-87 -151h-57z" />
    <glyph glyph-name="Acircumflex" unicode="&#xc2;" horiz-adv-x="605" 
d="M518 0l-67 190h-298l-67 -190h-68l245 676h78l247 -676h-70zM303 611l-131 -366h260zM273 899h61l102 -151h-57l-76 107l-75 -107h-57z" />
    <glyph glyph-name="Atilde" unicode="&#xc3;" horiz-adv-x="605" 
d="M518 0l-67 190h-298l-67 -190h-68l245 676h78l247 -676h-70zM303 611l-131 -366h260zM438 829l-8 -49q-28 25 -59 25q-21 0 -64 -18.5t-72 -18.5q-44 0 -66 26l8 48q23 -25 58 -25q23 0 64 19t72 19q36 0 67 -26z" />
    <glyph glyph-name="Adieresis" unicode="&#xc4;" horiz-adv-x="605" 
d="M518 0l-67 190h-298l-67 -190h-68l245 676h78l247 -676h-70zM303 611l-131 -366h260zM215 772q-48 0 -48 47q0 24 13.5 36t34.5 12q20 0 33.5 -12.5t13.5 -35.5t-13.5 -35t-33.5 -12zM391 772q-47 0 -47 47q0 48 47 48q20 0 34 -12.5t14 -35.5t-14 -35t-34 -12z" />
    <glyph glyph-name="Aring" unicode="&#xc5;" horiz-adv-x="605" 
d="M518 0l-67 190h-298l-67 -190h-68l245 676h78l247 -676h-70zM303 611l-131 -366h260zM202 809q0 40 27.5 66t73.5 26q47 0 74.5 -26t27.5 -66q0 -41 -28 -67t-74 -26t-73.5 26.5t-27.5 66.5zM247 809q0 -24 15 -39t41 -15t41.5 15t15.5 39t-15.5 38.5t-41.5 14.5
t-41 -14.5t-15 -38.5z" />
    <glyph glyph-name="AE" unicode="&#xc6;" horiz-adv-x="938" 
d="M239 244h253v372zM74 0h-71l463 676h417v-55h-328v-245h296v-55h-296v-267h332v-54h-395v189h-287z" />
    <glyph glyph-name="Ccedilla" unicode="&#xc7;" horiz-adv-x="583" 
d="M124 337q0 -132 49 -211t157 -79q53 0 97 23.5t64 65.5l51 -34q-25 -47 -76.5 -77t-118.5 -34l-18 -48q40 0 65 -19.5t25 -61.5q0 -31 -25.5 -54.5t-71.5 -23.5q-37 0 -81 22v49q37 -27 78 -27q22 0 34 10t12 24q0 39 -60 39h-31l-3 5l28 85q-121 10 -180.5 100.5
t-59.5 245.5q0 166 67 257.5t203 91.5q72 0 129 -31t84 -81l-51 -34q-20 42 -64 65.5t-97 23.5q-108 0 -157 -79t-49 -213z" />
    <glyph glyph-name="Egrave" unicode="&#xc8;" horiz-adv-x="535" 
d="M152 55h332v-55h-395v676h391v-55h-328v-245h295v-55h-295v-266zM176 899h67l77 -151h-57z" />
    <glyph glyph-name="Eacute" unicode="&#xc9;" horiz-adv-x="535" 
d="M152 55h332v-55h-395v676h391v-55h-328v-245h295v-55h-295v-266zM331 899h67l-87 -151h-57z" />
    <glyph glyph-name="Ecircumflex" unicode="&#xca;" horiz-adv-x="535" 
d="M152 55h332v-55h-395v676h391v-55h-328v-245h295v-55h-295v-266zM255 899h61l102 -151h-57l-76 107l-75 -107h-57z" />
    <glyph glyph-name="Edieresis" unicode="&#xcb;" horiz-adv-x="535" 
d="M152 55h332v-55h-395v676h391v-55h-328v-245h295v-55h-295v-266zM198 772q-48 0 -48 47q0 24 13.5 36t34.5 12q20 0 33.5 -12.5t13.5 -35.5t-13.5 -35t-33.5 -12zM374 772q-47 0 -47 47q0 48 47 48q20 0 34 -12.5t14 -35.5t-14 -35t-34 -12z" />
    <glyph glyph-name="Igrave" unicode="&#xcc;" horiz-adv-x="241" 
d="M89 0v676h63v-676h-63zM5 899h67l77 -151h-57z" />
    <glyph glyph-name="Iacute" unicode="&#xcd;" horiz-adv-x="241" 
d="M89 0v676h63v-676h-63zM169 899h67l-87 -151h-57z" />
    <glyph glyph-name="Icircumflex" unicode="&#xce;" horiz-adv-x="241" 
d="M89 0v676h63v-676h-63zM90 899h61l102 -151h-57l-76 107l-75 -107h-57z" />
    <glyph glyph-name="Idieresis" unicode="&#xcf;" horiz-adv-x="241" 
d="M89 0v676h63v-676h-63zM32 772q-48 0 -48 47q0 24 13.5 36t34.5 12q20 0 33.5 -12.5t13.5 -35.5t-13.5 -35t-33.5 -12zM208 772q-47 0 -47 47q0 48 47 48q20 0 34 -12.5t14 -35.5t-14 -35t-34 -12z" />
    <glyph glyph-name="Eth" unicode="&#xd0;" horiz-adv-x="653" 
d="M26 371h70v305h180q174 0 246 -78t72 -260q0 -181 -72 -259.5t-246 -78.5h-180v321h-70v50zM159 55h115q147 0 201 63t54 220q0 155 -54.5 219t-200.5 64h-115v-250h116v-50h-116v-266z" />
    <glyph glyph-name="Ntilde" unicode="&#xd1;" horiz-adv-x="680" 
d="M528 101l1 575h62v-676h-68l-371 576v-576h-63v676h68zM474 829l-8 -49q-28 25 -59 25q-21 0 -64 -18.5t-72 -18.5q-44 0 -66 26l8 48q23 -25 58 -25q23 0 64 19t72 19q36 0 67 -26z" />
    <glyph glyph-name="Ograve" unicode="&#xd2;" horiz-adv-x="656" 
d="M124 337q0 -139 46 -214.5t156 -75.5q113 0 160 75t47 215q0 139 -47 215.5t-158 76.5q-204 0 -204 -292zM597 337q0 -161 -65.5 -254t-205.5 -93q-138 0 -202.5 92.5t-64.5 254.5t65 255.5t204 93.5t204 -93.5t65 -255.5zM218 899h67l77 -151h-57z" />
    <glyph glyph-name="Oacute" unicode="&#xd3;" horiz-adv-x="656" 
d="M124 337q0 -139 46 -214.5t156 -75.5q113 0 160 75t47 215q0 139 -47 215.5t-158 76.5q-204 0 -204 -292zM597 337q0 -161 -65.5 -254t-205.5 -93q-138 0 -202.5 92.5t-64.5 254.5t65 255.5t204 93.5t204 -93.5t65 -255.5zM375 899h67l-87 -151h-57z" />
    <glyph glyph-name="Ocircumflex" unicode="&#xd4;" horiz-adv-x="656" 
d="M124 337q0 -139 46 -214.5t156 -75.5q113 0 160 75t47 215q0 139 -47 215.5t-158 76.5q-204 0 -204 -292zM597 337q0 -161 -65.5 -254t-205.5 -93q-138 0 -202.5 92.5t-64.5 254.5t65 255.5t204 93.5t204 -93.5t65 -255.5zM297 899h61l102 -151h-57l-76 107l-75 -107h-57
z" />
    <glyph glyph-name="Otilde" unicode="&#xd5;" horiz-adv-x="656" 
d="M124 337q0 -139 46 -214.5t156 -75.5q113 0 160 75t47 215q0 139 -47 215.5t-158 76.5q-204 0 -204 -292zM597 337q0 -161 -65.5 -254t-205.5 -93q-138 0 -202.5 92.5t-64.5 254.5t65 255.5t204 93.5t204 -93.5t65 -255.5zM462 829l-8 -49q-28 25 -59 25q-21 0 -64 -18.5
t-72 -18.5q-44 0 -66 26l8 48q23 -25 58 -25q23 0 64 19t72 19q36 0 67 -26z" />
    <glyph glyph-name="Odieresis" unicode="&#xd6;" horiz-adv-x="656" 
d="M124 337q0 -139 46 -214.5t156 -75.5q113 0 160 75t47 215q0 139 -47 215.5t-158 76.5q-204 0 -204 -292zM597 337q0 -161 -65.5 -254t-205.5 -93q-138 0 -202.5 92.5t-64.5 254.5t65 255.5t204 93.5t204 -93.5t65 -255.5zM240 772q-48 0 -48 47q0 24 13.5 36t34.5 12
q20 0 33.5 -12.5t13.5 -35.5t-13.5 -35t-33.5 -12zM416 772q-47 0 -47 47q0 48 47 48q20 0 34 -12.5t14 -35.5t-14 -35t-34 -12z" />
    <glyph glyph-name="multiply" unicode="&#xd7;" 
d="M120 69l-40 41l159 158l-162 162l41 42l162 -163l161 161l40 -39l-161 -161l162 -162l-42 -41l-161 162z" />
    <glyph glyph-name="Oslash" unicode="&#xd8;" horiz-adv-x="658" 
d="M598 337q0 -161 -65.5 -254t-205.5 -93q-114 0 -180 66l-42 -56h-60l71 94q-56 88 -56 243q0 162 65 255.5t204 93.5q115 0 182 -69l45 59h63l-76 -100q55 -88 55 -239zM125 337q0 -121 32 -189l318 421q-51 60 -146 60q-204 0 -204 -292zM534 337q0 117 -31 186
l-319 -419q49 -57 143 -57q113 0 160 75t47 215z" />
    <glyph glyph-name="Ugrave" unicode="&#xd9;" horiz-adv-x="654" 
d="M327 -10q-243 0 -243 259v427h63v-430q0 -105 45.5 -152t134.5 -47q88 0 134 47t46 152v430h63v-427q0 -136 -65 -197.5t-178 -61.5zM213 899h67l77 -151h-57z" />
    <glyph glyph-name="Uacute" unicode="&#xda;" horiz-adv-x="654" 
d="M327 -10q-243 0 -243 259v427h63v-430q0 -105 45.5 -152t134.5 -47q88 0 134 47t46 152v430h63v-427q0 -136 -65 -197.5t-178 -61.5zM374 899h67l-87 -151h-57z" />
    <glyph glyph-name="Ucircumflex" unicode="&#xdb;" horiz-adv-x="654" 
d="M327 -10q-243 0 -243 259v427h63v-430q0 -105 45.5 -152t134.5 -47q88 0 134 47t46 152v430h63v-427q0 -136 -65 -197.5t-178 -61.5zM295 899h61l102 -151h-57l-76 107l-75 -107h-57z" />
    <glyph glyph-name="Udieresis" unicode="&#xdc;" horiz-adv-x="654" 
d="M327 -10q-243 0 -243 259v427h63v-430q0 -105 45.5 -152t134.5 -47q88 0 134 47t46 152v430h63v-427q0 -136 -65 -197.5t-178 -61.5zM238 772q-48 0 -48 47q0 24 13.5 36t34.5 12q20 0 33.5 -12.5t13.5 -35.5t-13.5 -35t-33.5 -12zM414 772q-47 0 -47 47q0 48 47 48
q20 0 34 -12.5t14 -35.5t-14 -35t-34 -12z" />
    <glyph glyph-name="Yacute" unicode="&#xdd;" horiz-adv-x="568" 
d="M315 0h-63v273l-233 403h71l193 -342l193 342h72l-233 -403v-273zM331 899h67l-87 -151h-57z" />
    <glyph glyph-name="Thorn" unicode="&#xde;" horiz-adv-x="557" 
d="M293 141h-141v-141h-63v677h62v-135h142q112 0 166 -53t54 -147t-54.5 -147.5t-165.5 -53.5zM152 487v-290h139q157 0 157 145t-157 145h-139z" />
    <glyph glyph-name="germandbls" unicode="&#xdf;" horiz-adv-x="543" 
d="M74 0v497q0 203 168 203q89 0 131 -45.5t42 -112.5q0 -37 -23.5 -73.5t-47 -64.5t-23.5 -45q0 -31 57 -64l40 -25q90 -54 90 -140q0 -61 -44.5 -101t-120.5 -40q-55 0 -108 28l20 50q48 -25 85 -25q50 0 78.5 25t28.5 63q0 57 -63 96l-45 28q-22 15 -32.5 23t-23.5 21
t-18 26.5t-5 31.5q0 28 47 86t47 97q0 53 -29 80t-84 27q-33 0 -55.5 -11t-33.5 -32.5t-15 -46t-4 -58.5v-498h-59z" />
    <glyph glyph-name="agrave" unicode="&#xe0;" horiz-adv-x="468" 
d="M397 0h-56v58q-59 -68 -157 -68q-67 0 -104 33.5t-37 93.5q0 121 204 144l92 11v52q0 47 -24 68.5t-82 21.5q-107 0 -107 -61v-30h-54q-2 22 -2 33q0 50 41.5 80t123.5 30q162 0 162 -141v-325zM104 119q0 -78 91 -78q86 0 144 64v121l-89 -11q-146 -19 -146 -96z
M134 696h67l77 -151h-57z" />
    <glyph glyph-name="aacute" unicode="&#xe1;" horiz-adv-x="468" 
d="M397 0h-56v58q-59 -68 -157 -68q-67 0 -104 33.5t-37 93.5q0 121 204 144l92 11v52q0 47 -24 68.5t-82 21.5q-107 0 -107 -61v-30h-54q-2 22 -2 33q0 50 41.5 80t123.5 30q162 0 162 -141v-325zM104 119q0 -78 91 -78q86 0 144 64v121l-89 -11q-146 -19 -146 -96z
M286 696h67l-87 -151h-57z" />
    <glyph glyph-name="acircumflex" unicode="&#xe2;" horiz-adv-x="468" 
d="M397 0h-56v58q-59 -68 -157 -68q-67 0 -104 33.5t-37 93.5q0 121 204 144l92 11v52q0 47 -24 68.5t-82 21.5q-107 0 -107 -61v-30h-54q-2 22 -2 33q0 50 41.5 80t123.5 30q162 0 162 -141v-325zM104 119q0 -78 91 -78q86 0 144 64v121l-89 -11q-146 -19 -146 -96z
M210 696h61l102 -151h-57l-76 107l-75 -107h-57z" />
    <glyph glyph-name="atilde" unicode="&#xe3;" horiz-adv-x="468" 
d="M397 0h-56v58q-59 -68 -157 -68q-67 0 -104 33.5t-37 93.5q0 121 204 144l92 11v52q0 47 -24 68.5t-82 21.5q-107 0 -107 -61v-30h-54q-2 22 -2 33q0 50 41.5 80t123.5 30q162 0 162 -141v-325zM104 119q0 -78 91 -78q86 0 144 64v121l-89 -11q-146 -19 -146 -96z
M376 626l-8 -49q-28 25 -59 25q-21 0 -64 -18.5t-72 -18.5q-44 0 -66 26l8 48q23 -25 58 -25q23 0 64 19t72 19q36 0 67 -26z" />
    <glyph glyph-name="adieresis" unicode="&#xe4;" horiz-adv-x="468" 
d="M397 0h-56v58q-59 -68 -157 -68q-67 0 -104 33.5t-37 93.5q0 121 204 144l92 11v52q0 47 -24 68.5t-82 21.5q-107 0 -107 -61v-30h-54q-2 22 -2 33q0 50 41.5 80t123.5 30q162 0 162 -141v-325zM104 119q0 -78 91 -78q86 0 144 64v121l-89 -11q-146 -19 -146 -96z
M154 569q-48 0 -48 47q0 24 13.5 36t34.5 12q20 0 33.5 -12.5t13.5 -35.5t-13.5 -35t-33.5 -12zM330 569q-47 0 -47 47q0 48 47 48q20 0 34 -12.5t14 -35.5t-14 -35t-34 -12z" />
    <glyph glyph-name="aring" unicode="&#xe5;" horiz-adv-x="468" 
d="M397 0h-56v58q-59 -68 -157 -68q-67 0 -104 33.5t-37 93.5q0 121 204 144l92 11v52q0 47 -24 68.5t-82 21.5q-107 0 -107 -61v-30h-54q-2 22 -2 33q0 50 41.5 80t123.5 30q162 0 162 -141v-325zM104 119q0 -78 91 -78q86 0 144 64v121l-89 -11q-146 -19 -146 -96z
M140 624q0 40 27.5 66t73.5 26q47 0 74.5 -26t27.5 -66q0 -41 -28 -67t-74 -26t-73.5 26.5t-27.5 66.5zM185 624q0 -24 15 -39t41 -15t41.5 15t15.5 39t-15.5 38.5t-41.5 14.5t-41 -14.5t-15 -38.5z" />
    <glyph glyph-name="ae" unicode="&#xe6;" horiz-adv-x="759" 
d="M539 43q80 0 131 52l31 -41q-20 -26 -66 -45t-96 -19q-119 0 -165 88q-30 -39 -79 -63.5t-107 -24.5q-69 0 -107 33.5t-38 93.5q0 121 204 144l91 11v52q0 47 -23.5 68.5t-81.5 21.5q-107 0 -107 -61v-30h-54q-3 16 -3 33q0 50 42 80t124 30q118 0 148 -80q47 80 151 80
q86 0 131.5 -55t45.5 -134q0 -39 -6 -67h-307q2 -167 141 -167zM104 119q0 -78 91 -78q87 0 143 64v121l-88 -11q-146 -19 -146 -96zM399 259h252q2 12 2 22q0 59 -31 96t-88 37q-126 0 -135 -155z" />
    <glyph glyph-name="ccedilla" unicode="&#xe7;" horiz-adv-x="447" 
d="M50 227q0 108 50 173.5t148 65.5q114 0 164 -88l-46 -31q-36 65 -116 65q-72 0 -105.5 -50t-33.5 -135q0 -183 139 -183q81 0 117 64l45 -31q-46 -80 -148 -86l-18 -48q40 0 65 -19.5t25 -61.5q0 -31 -25.5 -54.5t-71.5 -23.5q-37 0 -81 22v49q37 -27 78 -27q22 0 34 10
t12 24q0 39 -60 39h-31l-3 5l28 86q-83 10 -124.5 73t-41.5 162z" />
    <glyph glyph-name="egrave" unicode="&#xe8;" horiz-adv-x="470" 
d="M251 43q80 0 131 52l31 -41q-21 -26 -66.5 -45t-95.5 -19q-104 0 -152.5 64t-48.5 175q0 106 49 171.5t146 65.5q86 0 131.5 -55t45.5 -134q0 -35 -5 -67h-307q2 -167 141 -167zM110 259h253q1 6 1 22q0 59 -31 96t-88 37q-124 0 -135 -155zM140 696h67l77 -151h-57z" />
    <glyph glyph-name="eacute" unicode="&#xe9;" horiz-adv-x="470" 
d="M251 43q80 0 131 52l31 -41q-21 -26 -66.5 -45t-95.5 -19q-104 0 -152.5 64t-48.5 175q0 106 49 171.5t146 65.5q86 0 131.5 -55t45.5 -134q0 -35 -5 -67h-307q2 -167 141 -167zM110 259h253q1 6 1 22q0 59 -31 96t-88 37q-124 0 -135 -155zM288 696h67l-87 -151h-57z
" />
    <glyph glyph-name="ecircumflex" unicode="&#xea;" horiz-adv-x="470" 
d="M251 43q80 0 131 52l31 -41q-21 -26 -66.5 -45t-95.5 -19q-104 0 -152.5 64t-48.5 175q0 106 49 171.5t146 65.5q86 0 131.5 -55t45.5 -134q0 -35 -5 -67h-307q2 -167 141 -167zM110 259h253q1 6 1 22q0 59 -31 96t-88 37q-124 0 -135 -155zM214 696h61l102 -151h-57
l-76 107l-75 -107h-57z" />
    <glyph glyph-name="edieresis" unicode="&#xeb;" horiz-adv-x="470" 
d="M251 43q80 0 131 52l31 -41q-21 -26 -66.5 -45t-95.5 -19q-104 0 -152.5 64t-48.5 175q0 106 49 171.5t146 65.5q86 0 131.5 -55t45.5 -134q0 -35 -5 -67h-307q2 -167 141 -167zM110 259h253q1 6 1 22q0 59 -31 96t-88 37q-124 0 -135 -155zM159 569q-48 0 -48 47
q0 24 13.5 36t34.5 12q20 0 33.5 -12.5t13.5 -35.5t-13.5 -35t-33.5 -12zM335 569q-47 0 -47 47q0 48 47 48q20 0 34 -12.5t14 -35.5t-14 -35t-34 -12z" />
    <glyph glyph-name="igrave" unicode="&#xec;" horiz-adv-x="209" 
d="M75 0v456h59v-456h-59zM-6 696h67l77 -151h-57z" />
    <glyph glyph-name="iacute" unicode="&#xed;" horiz-adv-x="209" 
d="M75 0v456h59v-456h-59zM148 696h67l-87 -151h-57z" />
    <glyph glyph-name="icircumflex" unicode="&#xee;" horiz-adv-x="209" 
d="M75 0v456h59v-456h-59zM75 696h61l102 -151h-57l-76 107l-75 -107h-57z" />
    <glyph glyph-name="idieresis" unicode="&#xef;" horiz-adv-x="209" 
d="M75 0v456h59v-456h-59zM17 569q-48 0 -48 47q0 24 13.5 36t34.5 12q20 0 33.5 -12.5t13.5 -35.5t-13.5 -35t-33.5 -12zM193 569q-47 0 -47 47q0 48 47 48q20 0 34 -12.5t14 -35.5t-14 -35t-34 -12z" />
    <glyph glyph-name="eth" unicode="&#xf0;" horiz-adv-x="524" 
d="M229 690h81q45 -36 75 -82l61 29l19 -42l-57 -27q59 -111 59 -254q0 -324 -213 -324q-100 0 -152 63t-52 166t50.5 165.5t143.5 62.5q61 0 102 -31t62 -78q0 112 -52 205l-87 -42l-19 42l82 39q-41 58 -103 108zM254 44q42 0 71.5 18.5t45 52t22.5 68t10 78.5
q-50 130 -153 130q-71 0 -105.5 -46.5t-34.5 -126.5q0 -76 35 -125t109 -49z" />
    <glyph glyph-name="ntilde" unicode="&#xf1;" horiz-adv-x="519" 
d="M74 0v456h58v-56q22 30 64.5 48t89.5 18q86 0 124 -42.5t38 -129.5v-294h-58v291q0 62 -26 90.5t-90 28.5q-93 0 -141 -62v-348h-59zM399 626l-8 -49q-28 25 -59 25q-21 0 -64 -18.5t-72 -18.5q-44 0 -66 26l8 48q23 -25 58 -25q23 0 64 19t72 19q36 0 67 -26z" />
    <glyph glyph-name="ograve" unicode="&#xf2;" horiz-adv-x="501" 
d="M251 466q102 0 151 -64.5t49 -172.5q0 -110 -49.5 -174.5t-153.5 -64.5q-99 0 -148.5 65t-49.5 173t50 173t151 65zM249 45q142 0 142 183t-141 183q-139 0 -139 -182q0 -184 138 -184zM144 696h67l77 -151h-57z" />
    <glyph glyph-name="oacute" unicode="&#xf3;" horiz-adv-x="501" 
d="M251 466q102 0 151 -64.5t49 -172.5q0 -110 -49.5 -174.5t-153.5 -64.5q-99 0 -148.5 65t-49.5 173t50 173t151 65zM249 45q142 0 142 183t-141 183q-139 0 -139 -182q0 -184 138 -184zM293 696h67l-87 -151h-57z" />
    <glyph glyph-name="ocircumflex" unicode="&#xf4;" horiz-adv-x="501" 
d="M251 466q102 0 151 -64.5t49 -172.5q0 -110 -49.5 -174.5t-153.5 -64.5q-99 0 -148.5 65t-49.5 173t50 173t151 65zM249 45q142 0 142 183t-141 183q-139 0 -139 -182q0 -184 138 -184zM221 696h61l102 -151h-57l-76 107l-75 -107h-57z" />
    <glyph glyph-name="otilde" unicode="&#xf5;" horiz-adv-x="501" 
d="M251 466q102 0 151 -64.5t49 -172.5q0 -110 -49.5 -174.5t-153.5 -64.5q-99 0 -148.5 65t-49.5 173t50 173t151 65zM249 45q142 0 142 183t-141 183q-139 0 -139 -182q0 -184 138 -184zM388 626l-8 -49q-28 25 -59 25q-21 0 -64 -18.5t-72 -18.5q-44 0 -66 26l8 48
q23 -25 58 -25q23 0 64 19t72 19q36 0 67 -26z" />
    <glyph glyph-name="odieresis" unicode="&#xf6;" horiz-adv-x="501" 
d="M251 466q102 0 151 -64.5t49 -172.5q0 -110 -49.5 -174.5t-153.5 -64.5q-99 0 -148.5 65t-49.5 173t50 173t151 65zM249 45q142 0 142 183t-141 183q-139 0 -139 -182q0 -184 138 -184zM164 569q-48 0 -48 47q0 24 13.5 36t34.5 12q20 0 33.5 -12.5t13.5 -35.5t-13.5 -35
t-33.5 -12zM340 569q-47 0 -47 47q0 48 47 48q20 0 34 -12.5t14 -35.5t-14 -35t-34 -12z" />
    <glyph glyph-name="divide" unicode="&#xf7;" 
d="M54 244v52h451v-52h-451zM282 40q-22 0 -36.5 14t-14.5 36t14.5 36.5t36.5 14.5t37 -14.5t15 -36.5t-14.5 -36t-37.5 -14zM282 396q-22 0 -36.5 14.5t-14.5 36.5q0 23 14.5 37t36.5 14q23 0 37.5 -14.5t14.5 -36.5t-15 -36.5t-37 -14.5z" />
    <glyph glyph-name="oslash" unicode="&#xf8;" horiz-adv-x="501" 
d="M251 466q75 0 124 -38l21 28h57l-47 -61q45 -61 45 -166q0 -110 -49.5 -174.5t-153.5 -64.5q-74 0 -122 38l-22 -28h-54l45 60q-45 61 -45 168q0 108 50 173t151 65zM249 45q142 0 142 183q0 72 -23 117l-207 -270q33 -30 88 -30zM111 229q0 -73 23 -118l205 271
q-35 29 -89 29q-139 0 -139 -182z" />
    <glyph glyph-name="ugrave" unicode="&#xf9;" horiz-adv-x="519" 
d="M150 696h67l77 -151h-57zM445 456v-456h-58v56q-22 -30 -64.5 -48t-89.5 -18q-86 0 -124 42.5t-38 129.5v294h58v-291q0 -62 26 -90.5t90 -28.5q93 0 141 62v348h59z" />
    <glyph glyph-name="uacute" unicode="&#xfa;" horiz-adv-x="519" 
d="M305 696h67l-87 -151h-57zM445 456v-456h-58v56q-22 -30 -64.5 -48t-89.5 -18q-86 0 -124 42.5t-38 129.5v294h58v-291q0 -62 26 -90.5t90 -28.5q93 0 141 62v348h59z" />
    <glyph glyph-name="ucircumflex" unicode="&#xfb;" horiz-adv-x="519" 
d="M225 696h61l102 -151h-57l-76 107l-75 -107h-57zM445 456v-456h-58v56q-22 -30 -64.5 -48t-89.5 -18q-86 0 -124 42.5t-38 129.5v294h58v-291q0 -62 26 -90.5t90 -28.5q93 0 141 62v348h59z" />
    <glyph glyph-name="udieresis" unicode="&#xfc;" horiz-adv-x="519" 
d="M171 569q-48 0 -48 47q0 24 13.5 36t34.5 12q20 0 33.5 -12.5t13.5 -35.5t-13.5 -35t-33.5 -12zM347 569q-47 0 -47 47q0 48 47 48q20 0 34 -12.5t14 -35.5t-14 -35t-34 -12zM445 456v-456h-58v56q-22 -30 -64.5 -48t-89.5 -18q-86 0 -124 42.5t-38 129.5v294h58v-291
q0 -62 26 -90.5t90 -28.5q93 0 141 62v348h59z" />
    <glyph glyph-name="yacute" unicode="&#xfd;" horiz-adv-x="476" 
d="M88 456l158 -351l142 351h67l-283 -672h-64l107 249l-195 423h68zM293 696h67l-87 -151h-57z" />
    <glyph glyph-name="thorn" unicode="&#xfe;" horiz-adv-x="515" 
d="M134 46v-262h-59v892h59v-266q45 56 137 56q97 0 145.5 -63.5t48.5 -176.5q0 -111 -48.5 -173.5t-146.5 -62.5q-91 0 -136 56zM404 226q0 184 -142 184q-91 0 -128 -67v-231q16 -27 48.5 -47t78.5 -20q78 0 110.5 47t32.5 134z" />
    <glyph glyph-name="ydieresis" unicode="&#xff;" horiz-adv-x="476" 
d="M88 456l158 -351l142 351h67l-283 -672h-64l107 249l-195 423h68zM156 569q-48 0 -48 47q0 24 13.5 36t34.5 12q20 0 33.5 -12.5t13.5 -35.5t-13.5 -35t-33.5 -12zM332 569q-47 0 -47 47q0 48 47 48q20 0 34 -12.5t14 -35.5t-14 -35t-34 -12z" />
    <glyph glyph-name="Amacron" unicode="&#x100;" horiz-adv-x="605" 
d="M518 0l-67 190h-298l-67 -190h-68l245 676h78l247 -676h-70zM303 611l-131 -366h260zM167 838h272v-51h-272v51z" />
    <glyph glyph-name="amacron" unicode="&#x101;" horiz-adv-x="468" 
d="M397 0h-56v58q-59 -68 -157 -68q-67 0 -104 33.5t-37 93.5q0 121 204 144l92 11v52q0 47 -24 68.5t-82 21.5q-107 0 -107 -61v-30h-54q-2 22 -2 33q0 50 41.5 80t123.5 30q162 0 162 -141v-325zM104 119q0 -78 91 -78q86 0 144 64v121l-89 -11q-146 -19 -146 -96z
M104 635h272v-51h-272v51z" />
    <glyph glyph-name="Abreve" unicode="&#x102;" horiz-adv-x="605" 
d="M518 0l-67 190h-298l-67 -190h-68l245 676h78l247 -676h-70zM303 611l-131 -366h260zM386 884h47q0 -58 -35.5 -95t-94.5 -37q-58 0 -93.5 37t-35.5 95h45q2 -37 23.5 -60.5t60.5 -23.5t60.5 23.5t22.5 60.5z" />
    <glyph glyph-name="abreve" unicode="&#x103;" horiz-adv-x="468" 
d="M397 0h-56v58q-59 -68 -157 -68q-67 0 -104 33.5t-37 93.5q0 121 204 144l92 11v52q0 47 -24 68.5t-82 21.5q-107 0 -107 -61v-30h-54q-2 22 -2 33q0 50 41.5 80t123.5 30q162 0 162 -141v-325zM104 119q0 -78 91 -78q86 0 144 64v121l-89 -11q-146 -19 -146 -96z
M323 681h47q0 -58 -35.5 -95t-94.5 -37q-58 0 -93.5 37t-35.5 95h45q2 -37 23.5 -60.5t60.5 -23.5t60.5 23.5t22.5 60.5z" />
    <glyph glyph-name="Aogonek" unicode="&#x104;" horiz-adv-x="605" 
d="M588 0l-77 -62q-34 -29 -34 -59q0 -17 13 -30.5t37 -13.5q27 0 61 25v-54q-32 -22 -73 -22q-46 0 -72.5 24.5t-26.5 62.5q0 50 50 90l51 41l-66 188h-298l-67 -190h-68l245 676h78zM303 611l-131 -366h260z" />
    <glyph glyph-name="aogonek" unicode="&#x105;" horiz-adv-x="468" 
d="M397 0l-64 -54q-29 -25 -29 -58q0 -36 41 -36q28 0 55 17l9 -45q-31 -17 -65 -18q-12 -1 -34 3q-65 13 -65 72q0 51 49 89l47 38v50q-59 -68 -157 -68q-67 0 -104 33.5t-37 93.5q0 121 204 144l92 11v52q0 47 -24 68.5t-82 21.5q-107 0 -107 -61v-30h-54q-2 22 -2 33
q0 50 41.5 80t123.5 30q162 0 162 -141v-325zM104 119q0 -78 91 -78q86 0 144 64v121l-89 -11q-146 -19 -146 -96z" />
    <glyph glyph-name="Cacute" unicode="&#x106;" horiz-adv-x="583" 
d="M124 337q0 -132 49 -211t157 -79q53 0 97 23.5t64 65.5l51 -34q-27 -50 -84 -81t-129 -31q-136 0 -203 91t-67 256q0 166 67 257.5t203 91.5q72 0 129 -31t84 -81l-51 -34q-20 42 -64 65.5t-97 23.5q-108 0 -157 -79t-49 -213zM373 899h67l-87 -151h-57z" />
    <glyph glyph-name="cacute" unicode="&#x107;" horiz-adv-x="447" 
d="M50 227q0 108 50 173.5t148 65.5q114 0 164 -88l-46 -31q-36 65 -116 65q-72 0 -105.5 -50t-33.5 -135q0 -183 139 -183q81 0 117 64l45 -31q-50 -87 -164 -87q-99 0 -148.5 64.5t-49.5 172.5zM295 696h67l-87 -151h-57z" />
    <glyph glyph-name="Ccircumflex" unicode="&#x108;" horiz-adv-x="583" 
d="M124 337q0 -132 49 -211t157 -79q53 0 97 23.5t64 65.5l51 -34q-27 -50 -84 -81t-129 -31q-136 0 -203 91t-67 256q0 166 67 257.5t203 91.5q72 0 129 -31t84 -81l-51 -34q-20 42 -64 65.5t-97 23.5q-108 0 -157 -79t-49 -213zM297 899h61l102 -151h-57l-76 107l-75 -107
h-57z" />
    <glyph glyph-name="ccircumflex" unicode="&#x109;" horiz-adv-x="447" 
d="M50 227q0 108 50 173.5t148 65.5q114 0 164 -88l-46 -31q-36 65 -116 65q-72 0 -105.5 -50t-33.5 -135q0 -183 139 -183q81 0 117 64l45 -31q-50 -87 -164 -87q-99 0 -148.5 64.5t-49.5 172.5zM221 696h61l102 -151h-57l-76 107l-75 -107h-57z" />
    <glyph glyph-name="Cdotaccent" unicode="&#x10a;" horiz-adv-x="583" 
d="M124 337q0 -132 49 -211t157 -79q53 0 97 23.5t64 65.5l51 -34q-27 -50 -84 -81t-129 -31q-136 0 -203 91t-67 256q0 166 67 257.5t203 91.5q72 0 129 -31t84 -81l-51 -34q-20 42 -64 65.5t-97 23.5q-108 0 -157 -79t-49 -213zM327 772q-48 0 -48 47q0 24 13.5 36
t34.5 12q20 0 33.5 -12.5t13.5 -35.5t-13.5 -35t-33.5 -12z" />
    <glyph glyph-name="cdotaccent" unicode="&#x10b;" horiz-adv-x="447" 
d="M50 227q0 108 50 173.5t148 65.5q114 0 164 -88l-46 -31q-36 65 -116 65q-72 0 -105.5 -50t-33.5 -135q0 -183 139 -183q81 0 117 64l45 -31q-50 -87 -164 -87q-99 0 -148.5 64.5t-49.5 172.5zM252 569q-48 0 -48 47q0 24 13.5 36t34.5 12q20 0 33.5 -12.5t13.5 -35.5
t-13.5 -35t-33.5 -12z" />
    <glyph glyph-name="Ccaron" unicode="&#x10c;" horiz-adv-x="583" 
d="M124 337q0 -132 49 -211t157 -79q53 0 97 23.5t64 65.5l51 -34q-27 -50 -84 -81t-129 -31q-136 0 -203 91t-67 256q0 166 67 257.5t203 91.5q72 0 129 -31t84 -81l-51 -34q-20 42 -64 65.5t-97 23.5q-108 0 -157 -79t-49 -213zM357 748h-61l-102 151h57l76 -107l75 107
h57z" />
    <glyph glyph-name="ccaron" unicode="&#x10d;" horiz-adv-x="447" 
d="M50 227q0 108 50 173.5t148 65.5q114 0 164 -88l-46 -31q-36 65 -116 65q-72 0 -105.5 -50t-33.5 -135q0 -183 139 -183q81 0 117 64l45 -31q-50 -87 -164 -87q-99 0 -148.5 64.5t-49.5 172.5zM282 545h-61l-102 151h57l76 -107l75 107h57z" />
    <glyph glyph-name="Dcaron" unicode="&#x10e;" horiz-adv-x="647" 
d="M89 0v676h180q174 0 246 -78t72 -260q0 -181 -72 -259.5t-246 -78.5h-180zM152 55h115q147 0 201 63t54 220q0 155 -54.5 219t-200.5 64h-115v-566zM329 748h-61l-102 151h57l76 -107l75 107h57z" />
    <glyph glyph-name="dcaron" unicode="&#x10f;" horiz-adv-x="515" 
d="M381 409v281h59v-690h-58v46q-45 -56 -138 -56q-98 0 -146 63t-48 176q0 111 48.5 174t146.5 63q88 0 136 -57zM111 229q0 -184 142 -184q91 0 128 67v231q-42 67 -127 67q-78 0 -110.5 -47t-32.5 -134zM590 690l-48 -146h-48l25 146h71z" />
    <glyph glyph-name="Dcroat" unicode="&#x110;" horiz-adv-x="653" 
d="M26 371h70v305h180q174 0 246 -78t72 -260q0 -181 -72 -259.5t-246 -78.5h-180v321h-70v50zM159 55h115q147 0 201 63t54 220q0 155 -54.5 219t-200.5 64h-115v-250h116v-50h-116v-266z" />
    <glyph glyph-name="dcroat" unicode="&#x111;" horiz-adv-x="515" 
d="M271 586h110v104h59v-104h72v-50h-72v-536h-58v46q-45 -56 -138 -56q-98 0 -146 63t-48 176q0 111 48.5 174t146.5 63q88 0 136 -57v127h-110v50zM111 229q0 -184 142 -184q91 0 128 67v231q-42 67 -127 67q-78 0 -110.5 -47t-32.5 -134z" />
    <glyph glyph-name="Emacron" unicode="&#x112;" horiz-adv-x="535" 
d="M152 55h332v-55h-395v676h391v-55h-328v-245h295v-55h-295v-266zM150 838h272v-51h-272v51z" />
    <glyph glyph-name="emacron" unicode="&#x113;" horiz-adv-x="470" 
d="M251 43q80 0 131 52l31 -41q-21 -26 -66.5 -45t-95.5 -19q-104 0 -152.5 64t-48.5 175q0 106 49 171.5t146 65.5q86 0 131.5 -55t45.5 -134q0 -35 -5 -67h-307q2 -167 141 -167zM110 259h253q1 6 1 22q0 59 -31 96t-88 37q-124 0 -135 -155zM112 635h272v-51h-272v51z
" />
    <glyph glyph-name="Ebreve" unicode="&#x114;" horiz-adv-x="535" 
d="M152 55h332v-55h-395v676h391v-55h-328v-245h295v-55h-295v-266zM368 884h47q0 -58 -35.5 -95t-94.5 -37q-58 0 -93.5 37t-35.5 95h45q2 -37 23.5 -60.5t60.5 -23.5t60.5 23.5t22.5 60.5z" />
    <glyph glyph-name="ebreve" unicode="&#x115;" horiz-adv-x="470" 
d="M251 43q80 0 131 52l31 -41q-21 -26 -66.5 -45t-95.5 -19q-104 0 -152.5 64t-48.5 175q0 106 49 171.5t146 65.5q86 0 131.5 -55t45.5 -134q0 -35 -5 -67h-307q2 -167 141 -167zM110 259h253q1 6 1 22q0 59 -31 96t-88 37q-124 0 -135 -155zM328 681h47q0 -58 -35.5 -95
t-94.5 -37q-58 0 -93.5 37t-35.5 95h45q2 -37 23.5 -60.5t60.5 -23.5t60.5 23.5t22.5 60.5z" />
    <glyph glyph-name="Edotaccent" unicode="&#x116;" horiz-adv-x="535" 
d="M152 55h332v-55h-395v676h391v-55h-328v-245h295v-55h-295v-266zM286 772q-48 0 -48 47q0 24 13.5 36t34.5 12q20 0 33.5 -12.5t13.5 -35.5t-13.5 -35t-33.5 -12z" />
    <glyph glyph-name="edotaccent" unicode="&#x117;" horiz-adv-x="470" 
d="M251 43q80 0 131 52l31 -41q-21 -26 -66.5 -45t-95.5 -19q-104 0 -152.5 64t-48.5 175q0 106 49 171.5t146 65.5q86 0 131.5 -55t45.5 -134q0 -35 -5 -67h-307q2 -167 141 -167zM110 259h253q1 6 1 22q0 59 -31 96t-88 37q-124 0 -135 -155zM250 569q-48 0 -48 47
q0 24 13.5 36t34.5 12q20 0 33.5 -12.5t13.5 -35.5t-13.5 -35t-33.5 -12z" />
    <glyph glyph-name="Eogonek" unicode="&#x118;" horiz-adv-x="535" 
d="M152 55h332v-55h-1l-77 -62q-34 -29 -34 -59q0 -17 13 -30.5t37 -13.5q27 0 61 25v-54q-32 -22 -73 -22q-46 0 -72.5 24.5t-26.5 62.5q0 50 50 90l48 39h-320v676h391v-55h-328v-245h295v-55h-295v-266z" />
    <glyph glyph-name="eogonek" unicode="&#x119;" horiz-adv-x="471" 
d="M251 43q80 0 131 52l31 -41l-9 -10l-87 -97q-37 -40 -37 -68q0 -18 13 -31t37 -13q27 0 61 25v-54q-32 -22 -73 -22q-46 0 -72.5 24.5t-26.5 62.5q0 44 53 97l23 26q-28 -4 -44 -4q-104 0 -152.5 64t-48.5 175q0 106 49 171.5t146 65.5q86 0 131.5 -55t45.5 -134
q0 -35 -5 -67h-307q2 -167 141 -167zM110 259h253q1 6 1 22q0 59 -31 96t-88 37q-124 0 -135 -155z" />
    <glyph glyph-name="Ecaron" unicode="&#x11a;" horiz-adv-x="535" 
d="M152 55h332v-55h-395v676h391v-55h-328v-245h295v-55h-295v-266zM316 748h-61l-102 151h57l76 -107l75 107h57z" />
    <glyph glyph-name="ecaron" unicode="&#x11b;" horiz-adv-x="470" 
d="M251 43q80 0 131 52l31 -41q-21 -26 -66.5 -45t-95.5 -19q-104 0 -152.5 64t-48.5 175q0 106 49 171.5t146 65.5q86 0 131.5 -55t45.5 -134q0 -35 -5 -67h-307q2 -167 141 -167zM110 259h253q1 6 1 22q0 59 -31 96t-88 37q-124 0 -135 -155zM276 545h-61l-102 151h57
l76 -107l75 107h57z" />
    <glyph glyph-name="Gcircumflex" unicode="&#x11c;" horiz-adv-x="636" 
d="M343 301v57h240q4 -22 4 -42q0 -96 -22.5 -166t-81 -115t-150.5 -45q-274 0 -274 347q0 349 285 349q146 0 209 -110l-49 -34q-28 45 -65 66t-96 21q-63 0 -106.5 -21.5t-67.5 -62t-34.5 -91t-10.5 -117.5q0 -141 49 -216t159 -75q190 0 190 255h-179zM312 899h61
l102 -151h-57l-76 107l-75 -107h-57z" />
    <glyph glyph-name="gcircumflex" unicode="&#x11d;" horiz-adv-x="510" 
d="M378 456h57v-494q0 -70 -50 -117t-133 -47q-82 0 -128 39t-46 92h57q0 -31 32.5 -55.5t84.5 -24.5q58 0 91 31.5t33 80.5v90q-47 -61 -131 -61q-99 0 -147 64t-48 174q0 111 48.5 174.5t146.5 63.5q86 0 133 -58v48zM111 228q0 -183 141 -183q81 0 124 68v229
q-41 68 -124 68q-77 0 -109 -47.5t-32 -134.5zM228 696h61l102 -151h-57l-76 107l-75 -107h-57z" />
    <glyph glyph-name="Gbreve" unicode="&#x11e;" horiz-adv-x="636" 
d="M343 301v57h240q4 -22 4 -42q0 -96 -22.5 -166t-81 -115t-150.5 -45q-274 0 -274 347q0 349 285 349q146 0 209 -110l-49 -34q-28 45 -65 66t-96 21q-63 0 -106.5 -21.5t-67.5 -62t-34.5 -91t-10.5 -117.5q0 -141 49 -216t159 -75q190 0 190 255h-179zM425 884h47
q0 -58 -35.5 -95t-94.5 -37q-58 0 -93.5 37t-35.5 95h45q2 -37 23.5 -60.5t60.5 -23.5t60.5 23.5t22.5 60.5z" />
    <glyph glyph-name="gbreve" unicode="&#x11f;" horiz-adv-x="510" 
d="M378 456h57v-494q0 -70 -50 -117t-133 -47q-82 0 -128 39t-46 92h57q0 -31 32.5 -55.5t84.5 -24.5q58 0 91 31.5t33 80.5v90q-47 -61 -131 -61q-99 0 -147 64t-48 174q0 111 48.5 174.5t146.5 63.5q86 0 133 -58v48zM111 228q0 -183 141 -183q81 0 124 68v229
q-41 68 -124 68q-77 0 -109 -47.5t-32 -134.5zM337 681h47q0 -58 -35.5 -95t-94.5 -37q-58 0 -93.5 37t-35.5 95h45q2 -37 23.5 -60.5t60.5 -23.5t60.5 23.5t22.5 60.5z" />
    <glyph glyph-name="Gdotaccent" unicode="&#x120;" horiz-adv-x="636" 
d="M343 301v57h240q4 -22 4 -42q0 -96 -22.5 -166t-81 -115t-150.5 -45q-274 0 -274 347q0 349 285 349q146 0 209 -110l-49 -34q-28 45 -65 66t-96 21q-63 0 -106.5 -21.5t-67.5 -62t-34.5 -91t-10.5 -117.5q0 -141 49 -216t159 -75q190 0 190 255h-179zM342 772
q-48 0 -48 47q0 24 13.5 36t34.5 12q20 0 33.5 -12.5t13.5 -35.5t-13.5 -35t-33.5 -12z" />
    <glyph glyph-name="gdotaccent" unicode="&#x121;" horiz-adv-x="510" 
d="M378 456h57v-494q0 -70 -50 -117t-133 -47q-82 0 -128 39t-46 92h57q0 -31 32.5 -55.5t84.5 -24.5q58 0 91 31.5t33 80.5v90q-47 -61 -131 -61q-99 0 -147 64t-48 174q0 111 48.5 174.5t146.5 63.5q86 0 133 -58v48zM111 228q0 -183 141 -183q81 0 124 68v229
q-41 68 -124 68q-77 0 -109 -47.5t-32 -134.5zM257 569q-48 0 -48 47q0 24 13.5 36t34.5 12q20 0 33.5 -12.5t13.5 -35.5t-13.5 -35t-33.5 -12z" />
    <glyph glyph-name="Gcommaaccent" unicode="&#x122;" horiz-adv-x="636" 
d="M343 301v57h240q4 -22 4 -42q0 -96 -22.5 -166t-81 -115t-150.5 -45q-274 0 -274 347q0 349 285 349q146 0 209 -110l-49 -34q-28 45 -65 66t-96 21q-63 0 -106.5 -21.5t-67.5 -62t-34.5 -91t-10.5 -117.5q0 -141 49 -216t159 -75q190 0 190 255h-179zM381 -70l-48 -146
h-48l25 146h71z" />
    <glyph glyph-name="gcommaaccent" unicode="&#x123;" horiz-adv-x="510" 
d="M378 456h57v-494q0 -70 -50 -117t-133 -47q-82 0 -128 39t-46 92h57q0 -31 32.5 -55.5t84.5 -24.5q58 0 91 31.5t33 80.5v90q-47 -61 -131 -61q-99 0 -147 64t-48 174q0 111 48.5 174.5t146.5 63.5q86 0 133 -58v48zM111 228q0 -183 141 -183q81 0 124 68v229
q-41 68 -124 68q-77 0 -109 -47.5t-32 -134.5zM223 554l49 170h48l-25 -170h-72z" />
    <glyph glyph-name="Hcircumflex" unicode="&#x124;" horiz-adv-x="671" 
d="M519 384v292h63v-676h-63v329h-367v-329h-63v676h63v-292h367zM305 899h61l102 -151h-57l-76 107l-75 -107h-57z" />
    <glyph glyph-name="hcircumflex" unicode="&#x125;" horiz-adv-x="519" 
d="M75 0v690h59v-288q22 28 64 46t89 18q86 0 124 -42.5t38 -129.5v-294h-59v291q0 62 -25.5 90.5t-89.5 28.5q-93 0 -141 -62v-348h-59zM238 886h61l102 -151h-57l-76 107l-75 -107h-57z" />
    <glyph glyph-name="Hbar" unicode="&#x126;" horiz-adv-x="672" 
d="M43 559h46v117h63v-117h367v117h63v-117h53v-49h-53v-510h-63v329h-367v-329h-63v510h-46v49zM519 384v126h-367v-126h367z" />
    <glyph glyph-name="hbar" unicode="&#x127;" horiz-adv-x="520" 
d="M9 586h66v104h59v-104h116v-50h-116v-134q22 28 64 46t89 18q86 0 124 -42.5t38 -129.5v-294h-59v291q0 62 -25.5 90.5t-89.5 28.5q-93 0 -141 -62v-348h-59v536h-66v50z" />
    <glyph glyph-name="Itilde" unicode="&#x128;" horiz-adv-x="241" 
d="M89 0v676h63v-676h-63zM255 829l-8 -49q-28 25 -59 25q-21 0 -64 -18.5t-72 -18.5q-44 0 -66 26l8 48q23 -25 58 -25q23 0 64 19t72 19q36 0 67 -26z" />
    <glyph glyph-name="itilde" unicode="&#x129;" horiz-adv-x="209" 
d="M75 0v456h59v-456h-59zM239 626l-8 -49q-28 25 -59 25q-21 0 -64 -18.5t-72 -18.5q-44 0 -66 26l8 48q23 -25 58 -25q23 0 64 19t72 19q36 0 67 -26z" />
    <glyph glyph-name="Imacron" unicode="&#x12a;" horiz-adv-x="241" 
d="M89 0v676h63v-676h-63zM-16 838h272v-51h-272v51z" />
    <glyph glyph-name="imacron" unicode="&#x12b;" horiz-adv-x="209" 
d="M75 0v456h59v-456h-59zM-32 635h272v-51h-272v51z" />
    <glyph glyph-name="Ibreve" unicode="&#x12c;" horiz-adv-x="241" 
d="M89 0v676h63v-676h-63zM202 884h47q0 -58 -35.5 -95t-94.5 -37q-58 0 -93.5 37t-35.5 95h45q2 -37 23.5 -60.5t60.5 -23.5t60.5 23.5t22.5 60.5z" />
    <glyph glyph-name="ibreve" unicode="&#x12d;" horiz-adv-x="209" 
d="M75 0v456h59v-456h-59zM187 681h47q0 -58 -35.5 -95t-94.5 -37q-58 0 -93.5 37t-35.5 95h45q2 -37 23.5 -60.5t60.5 -23.5t60.5 23.5t22.5 60.5z" />
    <glyph glyph-name="Iogonek" unicode="&#x12e;" horiz-adv-x="241" 
d="M151 0l-77 -62q-34 -29 -34 -59q0 -17 13 -30.5t37 -13.5q27 0 61 25v-54q-32 -22 -73 -22q-46 0 -72.5 24.5t-26.5 62.5q0 50 50 90l60 48v667h63v-676h-1z" />
    <glyph glyph-name="iogonek" unicode="&#x12f;" horiz-adv-x="209" 
d="M134 0l-77 -62q-34 -29 -34 -59q0 -17 13 -30.5t37 -13.5q27 0 61 25v-54q-32 -22 -73 -22q-46 0 -72.5 24.5t-26.5 62.5q0 50 50 90l63 51v444h59v-456zM104 579q-47 0 -47 47q0 48 47 48q20 0 34 -12.5t14 -35.5t-14 -35t-34 -12z" />
    <glyph glyph-name="Idotaccent" unicode="&#x130;" horiz-adv-x="241" 
d="M89 0v676h63v-676h-63zM120 772q-48 0 -48 47q0 24 13.5 36t34.5 12q20 0 33.5 -12.5t13.5 -35.5t-13.5 -35t-33.5 -12z" />
    <glyph glyph-name="dotlessi" unicode="&#x131;" horiz-adv-x="209" 
d="M75 0v456h59v-456h-59z" />
    <glyph glyph-name="IJ" unicode="&#x132;" horiz-adv-x="731" 
d="M89 0v676h63v-676h-63zM270 88l48 32q22 -39 51 -56t73 -17q71 0 107.5 44.5t36.5 147.5v437h61v-436q0 -250 -205 -250q-118 0 -172 98z" />
    <glyph glyph-name="ij" unicode="&#x133;" horiz-adv-x="417" 
d="M74 0v456h59v-456h-59zM103 579q-47 0 -47 47q0 48 47 48q20 0 34 -12.5t14 -35.5t-14 -35t-34 -12zM226 -226l-28 45q50 19 67.5 50.5t17.5 97.5v489h59v-482q0 -87 -27.5 -133t-88.5 -67zM312 579q-48 0 -48 47q0 24 13.5 36t34.5 12q20 0 33.5 -12.5t13.5 -35.5
t-13.5 -35t-33.5 -12z" />
    <glyph glyph-name="Jcircumflex" unicode="&#x134;" horiz-adv-x="488" 
d="M27 88l48 32q22 -39 51 -56t73 -17q71 0 107.5 44.5t36.5 147.5v437h61v-436q0 -250 -205 -250q-118 0 -172 98zM345 899h61l102 -151h-57l-76 107l-75 -107h-57z" />
    <glyph glyph-name="jcircumflex" unicode="&#x135;" horiz-adv-x="209" 
d="M75 696h61l102 -151h-57l-76 107l-75 -107h-57zM17 -226l-27 45q50 19 67.5 51t17.5 97v489h59v-482q0 -87 -27.5 -133t-89.5 -67z" />
    <glyph glyph-name="Kcommaaccent" unicode="&#x136;" horiz-adv-x="599" 
d="M264 351l-112 -114v-237h-63v676h63v-356l341 356h82l-265 -280l265 -396h-79zM322 -70l-48 -146h-48l25 146h71z" />
    <glyph glyph-name="kcommaaccent" unicode="&#x137;" horiz-adv-x="461" 
d="M441 0h-70l-157 236l-80 -76v-160h-59v690h59v-457l233 223h78l-188 -179zM280 -70l-48 -146h-48l25 146h71z" />
    <glyph glyph-name="kgreenlandic" unicode="&#x138;" horiz-adv-x="462" 
d="M440 0h-70l-157 236l-80 -76v-160h-59v456h59v-223l233 223h78l-188 -179z" />
    <glyph glyph-name="Lacute" unicode="&#x139;" horiz-adv-x="474" 
d="M152 55h299v-55h-362v676h63v-621zM169 899h67l-87 -151h-57z" />
    <glyph glyph-name="lacute" unicode="&#x13a;" horiz-adv-x="223" 
d="M71 690h59v-570q0 -35 10.5 -50.5t38.5 -15.5h27v-55h-39q-52 0 -74 28.5t-22 87.5v575zM151 886h67l-87 -151h-57z" />
    <glyph glyph-name="Lcommaaccent" unicode="&#x13b;" horiz-adv-x="474" 
d="M152 55h299v-55h-362v676h63v-621zM307 -70l-48 -146h-48l25 146h71z" />
    <glyph glyph-name="lcommaaccent" unicode="&#x13c;" horiz-adv-x="223" 
d="M71 690h59v-570q0 -35 10.5 -50.5t38.5 -15.5h27v-55h-39q-52 0 -74 28.5t-22 87.5v575zM177 -70l-48 -146h-48l25 146h71z" />
    <glyph glyph-name="Lcaron" unicode="&#x13d;" horiz-adv-x="519" 
d="M152 55h299v-55h-362v676h63v-621zM494 677l-48 -146h-48l25 146h71z" />
    <glyph glyph-name="lcaron" unicode="&#x13e;" horiz-adv-x="224" 
d="M71 690h59v-570q0 -35 10.5 -50.5t38.5 -15.5h27v-55h-39q-52 0 -74 28.5t-22 87.5v575zM290 690l-48 -146h-48l25 146h71z" />
    <glyph glyph-name="Ldot" unicode="&#x13f;" horiz-adv-x="503" 
d="M152 55h299v-55h-362v676h63v-621zM381 313q-23 0 -38 14.5t-15 37.5t15 37.5t38 14.5t38 -14.5t15 -37.5t-15 -37.5t-38 -14.5z" />
    <glyph glyph-name="ldot" unicode="&#x140;" horiz-adv-x="346" 
d="M71 690h59v-570q0 -35 10.5 -50.5t38.5 -15.5h27v-55h-39q-52 0 -74 28.5t-22 87.5v575zM275 312q-23 0 -38 14.5t-15 37.5t15 37.5t38 14.5t38 -14.5t15 -37.5t-15 -37.5t-38 -14.5z" />
    <glyph glyph-name="Lslash" unicode="&#x141;" horiz-adv-x="492" 
d="M170 55h299v-55h-362v265l-83 -35v53l83 34v359h63v-332l93 39v-52l-93 -40v-236z" />
    <glyph glyph-name="lslash" unicode="&#x142;" horiz-adv-x="253" 
d="M228 378l-75 -32v-226q0 -35 10.5 -50.5t38.5 -15.5h27v-55h-39q-52 0 -74 28.5t-22 87.5v206l-68 -29v54l68 28v316h59v-291l75 32v-53z" />
    <glyph glyph-name="Nacute" unicode="&#x143;" horiz-adv-x="680" 
d="M528 101l1 575h62v-676h-68l-371 576v-576h-63v676h68zM386 899h67l-87 -151h-57z" />
    <glyph glyph-name="nacute" unicode="&#x144;" horiz-adv-x="519" 
d="M74 0v456h58v-56q22 30 64.5 48t89.5 18q86 0 124 -42.5t38 -129.5v-294h-58v291q0 62 -26 90.5t-90 28.5q-93 0 -141 -62v-348h-59zM318 696h67l-87 -151h-57z" />
    <glyph glyph-name="Ncommaaccent" unicode="&#x145;" horiz-adv-x="680" 
d="M528 101l1 575h62v-676h-68l-371 576v-576h-63v676h68zM381 -70l-48 -146h-48l25 146h71z" />
    <glyph glyph-name="ncommaaccent" unicode="&#x146;" horiz-adv-x="519" 
d="M74 0v456h58v-56q22 30 64.5 48t89.5 18q86 0 124 -42.5t38 -129.5v-294h-58v291q0 62 -26 90.5t-90 28.5q-93 0 -141 -62v-348h-59zM297 -70l-48 -146h-48l25 146h71z" />
    <glyph glyph-name="Ncaron" unicode="&#x147;" horiz-adv-x="680" 
d="M528 101l1 575h62v-676h-68l-371 576v-576h-63v676h68zM370 748h-61l-102 151h57l76 -107l75 107h57z" />
    <glyph glyph-name="ncaron" unicode="&#x148;" horiz-adv-x="519" 
d="M74 0v456h58v-56q22 30 64.5 48t89.5 18q86 0 124 -42.5t38 -129.5v-294h-58v291q0 62 -26 90.5t-90 28.5q-93 0 -141 -62v-348h-59zM295 545h-61l-102 151h57l76 -107l75 107h57z" />
    <glyph glyph-name="napostrophe" unicode="&#x149;" horiz-adv-x="520" 
d="M75 0v456h58v-56q22 30 64.5 48t89.5 18q86 0 124 -42.5t38 -129.5v-294h-58v291q0 62 -26 90.5t-90 28.5q-93 0 -141 -62v-348h-59zM88 697l-48 -146h-48l25 146h71z" />
    <glyph glyph-name="Eng" unicode="&#x14a;" horiz-adv-x="679" 
d="M473 -226l-30 48q49 19 66.5 50.5t17.5 94.5v24l-376 585v-576h-63v676h68l371 -575v575h63v-702q0 -87 -27.5 -133t-89.5 -67z" />
    <glyph glyph-name="eng" unicode="&#x14b;" horiz-adv-x="518" 
d="M74 0v456h58v-56q22 30 64 48t90 18q86 0 124 -42.5t38 -129.5v-320q0 -87 -27.5 -133t-88.5 -67l-28 45q50 19 67.5 50.5t17.5 97.5v324q0 62 -25.5 90.5t-89.5 28.5q-93 0 -141 -62v-348h-59z" />
    <glyph glyph-name="Omacron" unicode="&#x14c;" horiz-adv-x="656" 
d="M124 337q0 -139 46 -214.5t156 -75.5q113 0 160 75t47 215q0 139 -47 215.5t-158 76.5q-204 0 -204 -292zM597 337q0 -161 -65.5 -254t-205.5 -93q-138 0 -202.5 92.5t-64.5 254.5t65 255.5t204 93.5t204 -93.5t65 -255.5zM192 838h272v-51h-272v51z" />
    <glyph glyph-name="omacron" unicode="&#x14d;" horiz-adv-x="501" 
d="M251 466q102 0 151 -64.5t49 -172.5q0 -110 -49.5 -174.5t-153.5 -64.5q-99 0 -148.5 65t-49.5 173t50 173t151 65zM249 45q142 0 142 183t-141 183q-139 0 -139 -182q0 -184 138 -184zM116 635h272v-51h-272v51z" />
    <glyph glyph-name="Obreve" unicode="&#x14e;" horiz-adv-x="656" 
d="M124 337q0 -139 46 -214.5t156 -75.5q113 0 160 75t47 215q0 139 -47 215.5t-158 76.5q-204 0 -204 -292zM597 337q0 -161 -65.5 -254t-205.5 -93q-138 0 -202.5 92.5t-64.5 254.5t65 255.5t204 93.5t204 -93.5t65 -255.5zM411 884h47q0 -58 -35.5 -95t-94.5 -37
q-58 0 -93.5 37t-35.5 95h45q2 -37 23.5 -60.5t60.5 -23.5t60.5 23.5t22.5 60.5z" />
    <glyph glyph-name="obreve" unicode="&#x14f;" horiz-adv-x="501" 
d="M251 466q102 0 151 -64.5t49 -172.5q0 -110 -49.5 -174.5t-153.5 -64.5q-99 0 -148.5 65t-49.5 173t50 173t151 65zM249 45q142 0 142 183t-141 183q-139 0 -139 -182q0 -184 138 -184zM334 681h47q0 -58 -35.5 -95t-94.5 -37q-58 0 -93.5 37t-35.5 95h45
q2 -37 23.5 -60.5t60.5 -23.5t60.5 23.5t22.5 60.5z" />
    <glyph glyph-name="Ohungarumlaut" unicode="&#x150;" horiz-adv-x="656" 
d="M124 337q0 -139 46 -214.5t156 -75.5q113 0 160 75t47 215q0 139 -47 215.5t-158 76.5q-204 0 -204 -292zM597 337q0 -161 -65.5 -254t-205.5 -93q-138 0 -202.5 92.5t-64.5 254.5t65 255.5t204 93.5t204 -93.5t65 -255.5zM299 899h68l-87 -151h-58zM443 899h67l-87 -151
h-58z" />
    <glyph glyph-name="ohungarumlaut" unicode="&#x151;" horiz-adv-x="501" 
d="M251 466q102 0 151 -64.5t49 -172.5q0 -110 -49.5 -174.5t-153.5 -64.5q-99 0 -148.5 65t-49.5 173t50 173t151 65zM249 45q142 0 142 183t-141 183q-139 0 -139 -182q0 -184 138 -184zM224 696h68l-87 -151h-58zM368 696h67l-87 -151h-58z" />
    <glyph glyph-name="OE" unicode="&#x152;" horiz-adv-x="871" 
d="M488 55h332v-55h-394q-45 -10 -100 -10q-138 0 -202.5 92.5t-64.5 254.5t65 255.5t204 93.5q49 0 99 -10h389v-55h-328v-245h295v-55h-295v-266zM326 47q56 0 99 12v555q-45 15 -97 15q-204 0 -204 -292q0 -139 46 -214.5t156 -75.5z" />
    <glyph glyph-name="oe" unicode="&#x153;" horiz-adv-x="812" 
d="M592 43q80 0 131 52l32 -41q-21 -26 -67 -45t-96 -19q-129 0 -171 105q-46 -105 -173 -105q-99 0 -148.5 65t-49.5 173t50 173t151 65q126 0 171 -107q43 107 165 107q86 0 131.5 -55t45.5 -134q0 -39 -6 -67h-307q3 -167 141 -167zM249 45q142 0 142 183t-141 183
q-139 0 -139 -182q0 -184 138 -184zM452 259h252q2 12 2 22q0 59 -31 96t-88 37q-126 0 -135 -155z" />
    <glyph glyph-name="Racute" unicode="&#x154;" horiz-adv-x="591" 
d="M89 0v676h223q113 0 170 -48t57 -135q0 -78 -48 -125t-135 -55l203 -313h-74l-197 308h-136l-1 -308h-62zM474 493q0 63 -39 95.5t-126 32.5h-157v-258h157q87 0 126 33t39 97zM321 899h67l-87 -151h-57z" />
    <glyph glyph-name="racute" unicode="&#x155;" horiz-adv-x="335" 
d="M132 379h1q43 87 130 87q35 0 57 -7l-9 -63q-26 9 -56 9q-80 0 -122 -102v-303h-59v456h58v-77zM217 696h67l-87 -151h-57z" />
    <glyph glyph-name="Rcommaaccent" unicode="&#x156;" horiz-adv-x="591" 
d="M89 0v676h223q113 0 170 -48t57 -135q0 -78 -48 -125t-135 -55l203 -313h-74l-197 308h-136l-1 -308h-62zM474 493q0 63 -39 95.5t-126 32.5h-157v-258h157q87 0 126 33t39 97zM319 -70l-48 -146h-48l25 146h71z" />
    <glyph glyph-name="rcommaaccent" unicode="&#x157;" horiz-adv-x="335" 
d="M132 379h1q43 87 130 87q35 0 57 -7l-9 -63q-26 9 -56 9q-80 0 -122 -102v-303h-59v456h58v-77zM138 -70l-48 -146h-48l25 146h71z" />
    <glyph glyph-name="Rcaron" unicode="&#x158;" horiz-adv-x="591" 
d="M89 0v676h223q113 0 170 -48t57 -135q0 -78 -48 -125t-135 -55l203 -313h-74l-197 308h-136l-1 -308h-62zM474 493q0 63 -39 95.5t-126 32.5h-157v-258h157q87 0 126 33t39 97zM305 748h-61l-102 151h57l76 -107l75 107h57z" />
    <glyph glyph-name="rcaron" unicode="&#x159;" horiz-adv-x="335" 
d="M132 379h1q43 87 130 87q35 0 57 -7l-9 -63q-26 9 -56 9q-80 0 -122 -102v-303h-59v456h58v-77zM218 545h-61l-102 151h57l76 -107l75 107h57z" />
    <glyph glyph-name="Sacute" unicode="&#x15a;" horiz-adv-x="545" 
d="M483 587l-50 -34q-47 76 -154 76q-71 0 -109 -37.5t-38 -95.5q0 -47 26.5 -72t82.5 -42l92 -27q76 -23 118.5 -62.5t42.5 -109.5q0 -86 -59 -139.5t-165 -53.5q-55 0 -96 11.5t-66.5 33t-39.5 41t-25 44.5l52 30q20 -48 58 -75.5t117 -27.5q78 0 118.5 36t40.5 97
q0 47 -30.5 74t-85.5 43l-93 27q-153 46 -153 170q0 81 55.5 136.5t156.5 55.5q74 0 127 -28.5t77 -70.5zM319 899h67l-87 -151h-57z" />
    <glyph glyph-name="sacute" unicode="&#x15b;" horiz-adv-x="427" 
d="M373 403l-38 -38q-42 51 -118 51q-52 0 -76.5 -23t-24.5 -59q0 -53 63 -69l79 -18q125 -31 125 -124q0 -59 -46 -96t-129 -37q-110 0 -168 76l39 38q16 -20 27.5 -31t38.5 -22t64 -11q51 0 82 20.5t31 59.5q0 29 -20 45t-60 27l-80 20q-107 25 -107 119q0 55 41 95
t122 40q102 0 155 -63zM271 696h67l-87 -151h-57z" />
    <glyph glyph-name="Scircumflex" unicode="&#x15c;" horiz-adv-x="545" 
d="M483 587l-50 -34q-47 76 -154 76q-71 0 -109 -37.5t-38 -95.5q0 -47 26.5 -72t82.5 -42l92 -27q76 -23 118.5 -62.5t42.5 -109.5q0 -86 -59 -139.5t-165 -53.5q-55 0 -96 11.5t-66.5 33t-39.5 41t-25 44.5l52 30q20 -48 58 -75.5t117 -27.5q78 0 118.5 36t40.5 97
q0 47 -30.5 74t-85.5 43l-93 27q-153 46 -153 170q0 81 55.5 136.5t156.5 55.5q74 0 127 -28.5t77 -70.5zM243 899h61l102 -151h-57l-76 107l-75 -107h-57z" />
    <glyph glyph-name="scircumflex" unicode="&#x15d;" horiz-adv-x="427" 
d="M373 403l-38 -38q-42 51 -118 51q-52 0 -76.5 -23t-24.5 -59q0 -53 63 -69l79 -18q125 -31 125 -124q0 -59 -46 -96t-129 -37q-110 0 -168 76l39 38q16 -20 27.5 -31t38.5 -22t64 -11q51 0 82 20.5t31 59.5q0 29 -20 45t-60 27l-80 20q-107 25 -107 119q0 55 41 95
t122 40q102 0 155 -63zM189 696h61l102 -151h-57l-76 107l-75 -107h-57z" />
    <glyph glyph-name="Scedilla" unicode="&#x15e;" horiz-adv-x="545" 
d="M483 587l-50 -34q-47 76 -154 76q-71 0 -109 -37.5t-38 -95.5q0 -47 26.5 -72t82.5 -42l92 -27q76 -23 118.5 -62.5t42.5 -109.5q0 -82 -54.5 -135t-152.5 -57l-18 -48q40 0 65 -19.5t25 -61.5q0 -31 -25.5 -54.5t-71.5 -23.5q-37 0 -81 22v49q37 -27 78 -27q22 0 34 10
t12 24q0 39 -60 39h-31l-3 5l27 85q-86 6 -129 41.5t-66 87.5l52 30q20 -48 58 -75.5t117 -27.5q78 0 118.5 36t40.5 97q0 47 -30.5 74t-85.5 43l-93 27q-153 46 -153 170q0 81 55.5 136.5t156.5 55.5q74 0 127 -28.5t77 -70.5z" />
    <glyph glyph-name="scedilla" unicode="&#x15f;" horiz-adv-x="427" 
d="M373 403l-38 -38q-42 51 -118 51q-52 0 -76.5 -23t-24.5 -59q0 -53 63 -69l79 -18q125 -31 125 -124q0 -54 -39 -90t-110 -42l-18 -48q40 0 65 -19.5t25 -61.5q0 -31 -25.5 -54.5t-71.5 -23.5q-37 0 -81 22v49q37 -27 78 -27q22 0 34 10t12 24q0 39 -60 39h-31l-3 5
l27 85q-92 7 -145 75l39 38q16 -20 27.5 -31t38.5 -22t64 -11q51 0 82 20.5t31 59.5q0 29 -20 45t-60 27l-80 20q-107 25 -107 119q0 55 41 95t122 40q102 0 155 -63z" />
    <glyph glyph-name="Scaron" unicode="&#x160;" horiz-adv-x="545" 
d="M483 587l-50 -34q-47 76 -154 76q-71 0 -109 -37.5t-38 -95.5q0 -47 26.5 -72t82.5 -42l92 -27q76 -23 118.5 -62.5t42.5 -109.5q0 -86 -59 -139.5t-165 -53.5q-55 0 -96 11.5t-66.5 33t-39.5 41t-25 44.5l52 30q20 -48 58 -75.5t117 -27.5q78 0 118.5 36t40.5 97
q0 47 -30.5 74t-85.5 43l-93 27q-153 46 -153 170q0 81 55.5 136.5t156.5 55.5q74 0 127 -28.5t77 -70.5zM303 748h-61l-102 151h57l76 -107l75 107h57z" />
    <glyph glyph-name="scaron" unicode="&#x161;" horiz-adv-x="427" 
d="M373 403l-38 -38q-42 51 -118 51q-52 0 -76.5 -23t-24.5 -59q0 -53 63 -69l79 -18q125 -31 125 -124q0 -59 -46 -96t-129 -37q-110 0 -168 76l39 38q16 -20 27.5 -31t38.5 -22t64 -11q51 0 82 20.5t31 59.5q0 29 -20 45t-60 27l-80 20q-107 25 -107 119q0 55 41 95
t122 40q102 0 155 -63zM252 545h-61l-102 151h57l76 -107l75 107h57z" />
    <glyph glyph-name="Tcommaaccent" unicode="&#x162;" horiz-adv-x="534" 
d="M34 676h466v-55h-201v-621h-7l-22 -57q40 0 65 -19.5t25 -61.5q0 -31 -25.5 -54.5t-71.5 -23.5q-37 0 -81 22v49q37 -27 78 -27q22 0 34 10t12 24q0 39 -60 39h-31l-3 5l30 94h-6v621h-202v55z" />
    <glyph glyph-name="tcommaaccent" unicode="&#x163;" horiz-adv-x="332" 
d="M168 403v-280q0 -78 67 -78q31 0 67 18l11 -52q-41 -20 -88 -21l-18 -47q40 0 65 -19.5t25 -61.5q0 -31 -25.5 -54.5t-71.5 -23.5q-37 0 -81 22v49q37 -27 78 -27q22 0 34 10t12 24q0 39 -60 39h-31l-3 5l29 90q-69 22 -69 122v285h-88v43l88 10v116l59 12v-128h132v-53
h-132z" />
    <glyph glyph-name="Tcaron" unicode="&#x164;" horiz-adv-x="534" 
d="M34 676h466v-55h-201v-621h-63v621h-202v55zM304 748h-61l-102 151h57l76 -107l75 107h57z" />
    <glyph glyph-name="tcaron" unicode="&#x165;" horiz-adv-x="332" 
d="M168 403v-280q0 -78 67 -78q31 0 67 18l11 -52q-44 -21 -91 -21q-113 0 -113 128v285h-88v43l88 10v116l59 12v-128h132v-53h-132zM386 690l-48 -146h-48l25 146h71z" />
    <glyph glyph-name="Tbar" unicode="&#x166;" horiz-adv-x="539" 
d="M144 366h94v255h-202v55h466v-55h-201v-255h92v-50h-92v-316h-63v316h-94v50z" />
    <glyph glyph-name="tbar" unicode="&#x167;" horiz-adv-x="338" 
d="M39 275h75v128h-88v43l88 10v116l59 12v-128h132v-53h-132v-128h107v-50h-107v-102q0 -78 67 -78q31 0 67 18l11 -52q-44 -21 -91 -21q-113 0 -113 128v107h-75v50z" />
    <glyph glyph-name="Utilde" unicode="&#x168;" horiz-adv-x="654" 
d="M327 -10q-243 0 -243 259v427h63v-430q0 -105 45.5 -152t134.5 -47q88 0 134 47t46 152v430h63v-427q0 -136 -65 -197.5t-178 -61.5zM460 829l-8 -49q-28 25 -59 25q-21 0 -64 -18.5t-72 -18.5q-44 0 -66 26l8 48q23 -25 58 -25q23 0 64 19t72 19q36 0 67 -26z" />
    <glyph glyph-name="utilde" unicode="&#x169;" horiz-adv-x="519" 
d="M393 626l-8 -49q-28 25 -59 25q-21 0 -64 -18.5t-72 -18.5q-44 0 -66 26l8 48q23 -25 58 -25q23 0 64 19t72 19q36 0 67 -26zM445 456v-456h-58v56q-22 -30 -64.5 -48t-89.5 -18q-86 0 -124 42.5t-38 129.5v294h58v-291q0 -62 26 -90.5t90 -28.5q93 0 141 62v348h59z" />
    <glyph glyph-name="Umacron" unicode="&#x16a;" horiz-adv-x="654" 
d="M327 -10q-243 0 -243 259v427h63v-430q0 -105 45.5 -152t134.5 -47q88 0 134 47t46 152v430h63v-427q0 -136 -65 -197.5t-178 -61.5zM190 838h272v-51h-272v51z" />
    <glyph glyph-name="umacron" unicode="&#x16b;" horiz-adv-x="519" 
d="M123 635h272v-51h-272v51zM445 456v-456h-58v56q-22 -30 -64.5 -48t-89.5 -18q-86 0 -124 42.5t-38 129.5v294h58v-291q0 -62 26 -90.5t90 -28.5q93 0 141 62v348h59z" />
    <glyph glyph-name="Ubreve" unicode="&#x16c;" horiz-adv-x="654" 
d="M327 -10q-243 0 -243 259v427h63v-430q0 -105 45.5 -152t134.5 -47q88 0 134 47t46 152v430h63v-427q0 -136 -65 -197.5t-178 -61.5zM408 884h47q0 -58 -35.5 -95t-94.5 -37q-58 0 -93.5 37t-35.5 95h45q2 -37 23.5 -60.5t60.5 -23.5t60.5 23.5t22.5 60.5z" />
    <glyph glyph-name="ubreve" unicode="&#x16d;" horiz-adv-x="519" 
d="M344 681h47q0 -58 -35.5 -95t-94.5 -37q-58 0 -93.5 37t-35.5 95h45q2 -37 23.5 -60.5t60.5 -23.5t60.5 23.5t22.5 60.5zM445 456v-456h-58v56q-22 -30 -64.5 -48t-89.5 -18q-86 0 -124 42.5t-38 129.5v294h58v-291q0 -62 26 -90.5t90 -28.5q93 0 141 62v348h59z" />
    <glyph glyph-name="Uring" unicode="&#x16e;" horiz-adv-x="654" 
d="M327 -10q-243 0 -243 259v427h63v-430q0 -105 45.5 -152t134.5 -47q88 0 134 47t46 152v430h63v-427q0 -136 -65 -197.5t-178 -61.5zM224 827q0 40 27.5 66t73.5 26q47 0 74.5 -26t27.5 -66q0 -41 -28 -67t-74 -26t-73.5 26.5t-27.5 66.5zM269 827q0 -24 15 -39t41 -15
t41.5 15t15.5 39t-15.5 38.5t-41.5 14.5t-41 -14.5t-15 -38.5z" />
    <glyph glyph-name="uring" unicode="&#x16f;" horiz-adv-x="519" 
d="M156 624q0 40 27.5 66t73.5 26q47 0 74.5 -26t27.5 -66q0 -41 -28 -67t-74 -26t-73.5 26.5t-27.5 66.5zM201 624q0 -24 15 -39t41 -15t41.5 15t15.5 39t-15.5 38.5t-41.5 14.5t-41 -14.5t-15 -38.5zM445 456v-456h-58v56q-22 -30 -64.5 -48t-89.5 -18q-86 0 -124 42.5
t-38 129.5v294h58v-291q0 -62 26 -90.5t90 -28.5q93 0 141 62v348h59z" />
    <glyph glyph-name="Uhungarumlaut" unicode="&#x170;" horiz-adv-x="654" 
d="M327 -10q-243 0 -243 259v427h63v-430q0 -105 45.5 -152t134.5 -47q88 0 134 47t46 152v430h63v-427q0 -136 -65 -197.5t-178 -61.5zM299 899h68l-87 -151h-58zM443 899h67l-87 -151h-58z" />
    <glyph glyph-name="uhungarumlaut" unicode="&#x171;" horiz-adv-x="519" 
d="M445 456v-456h-58v56q-22 -30 -64.5 -48t-89.5 -18q-86 0 -124 42.5t-38 129.5v294h58v-291q0 -62 26 -90.5t90 -28.5q93 0 141 62v348h59zM230 696h68l-87 -151h-58zM374 696h67l-87 -151h-58z" />
    <glyph glyph-name="Uogonek" unicode="&#x172;" horiz-adv-x="654" 
d="M570 249q0 -237 -203 -257l-67 -54q-34 -29 -34 -59q0 -17 13 -30.5t37 -13.5q27 0 61 25v-54q-32 -22 -73 -22q-46 0 -72.5 24.5t-26.5 62.5q0 50 50 90l37 31q-208 17 -208 257v427h63v-430q0 -105 45.5 -152t134.5 -47q88 0 134 47t46 152v430h63v-427z" />
    <glyph glyph-name="uogonek" unicode="&#x173;" horiz-adv-x="519" 
d="M445 456v-456h-1l-77 -62q-34 -29 -34 -59q0 -17 13 -30.5t37 -13.5q27 0 61 25v-54q-32 -22 -73 -22q-46 0 -72.5 24.5t-26.5 62.5q0 50 50 90l65 52v43q-22 -30 -64.5 -48t-89.5 -18q-86 0 -124 42.5t-38 129.5v294h58v-291q0 -62 26 -90.5t90 -28.5q93 0 141 62v348
h59z" />
    <glyph glyph-name="Wcircumflex" unicode="&#x174;" horiz-adv-x="967" 
d="M447 676h74l176 -600l176 600h68l-203 -676h-79l-176 589l-175 -589h-79l-203 676h68l176 -600zM454 899h61l102 -151h-57l-76 107l-75 -107h-57z" />
    <glyph glyph-name="wcircumflex" unicode="&#x175;" horiz-adv-x="751" 
d="M345 456h62l127 -389l125 389h65l-153 -456h-68l-127 380l-128 -380h-67l-153 456h65l124 -389zM346 696h61l102 -151h-57l-76 107l-75 -107h-57z" />
    <glyph glyph-name="Ycircumflex" unicode="&#x176;" horiz-adv-x="568" 
d="M315 0h-63v273l-233 403h71l193 -342l193 342h72l-233 -403v-273zM253 899h61l102 -151h-57l-76 107l-75 -107h-57z" />
    <glyph glyph-name="ycircumflex" unicode="&#x177;" horiz-adv-x="476" 
d="M88 456l158 -351l142 351h67l-283 -672h-64l107 249l-195 423h68zM214 696h61l102 -151h-57l-76 107l-75 -107h-57z" />
    <glyph glyph-name="Ydieresis" unicode="&#x178;" horiz-adv-x="568" 
d="M315 0h-63v273l-233 403h71l193 -342l193 342h72l-233 -403v-273zM195 772q-48 0 -48 47q0 24 13.5 36t34.5 12q20 0 33.5 -12.5t13.5 -35.5t-13.5 -35t-33.5 -12zM371 772q-47 0 -47 47q0 48 47 48q20 0 34 -12.5t14 -35.5t-14 -35t-34 -12z" />
    <glyph glyph-name="Zacute" unicode="&#x179;" horiz-adv-x="512" 
d="M463 676v-50l-349 -571h354v-55h-430v49l349 572h-329v55h405zM307 899h67l-87 -151h-57z" />
    <glyph glyph-name="zacute" unicode="&#x17a;" horiz-adv-x="407" 
d="M359 456v-45l-244 -358h249v-53h-324v45l245 358h-233v53h307zM256 696h67l-87 -151h-57z" />
    <glyph glyph-name="Zdotaccent" unicode="&#x17b;" horiz-adv-x="512" 
d="M463 676v-50l-349 -571h354v-55h-430v49l349 572h-329v55h405zM258 772q-48 0 -48 47q0 24 13.5 36t34.5 12q20 0 33.5 -12.5t13.5 -35.5t-13.5 -35t-33.5 -12z" />
    <glyph glyph-name="zdotaccent" unicode="&#x17c;" horiz-adv-x="407" 
d="M359 456v-45l-244 -358h249v-53h-324v45l245 358h-233v53h307zM215 569q-48 0 -48 47q0 24 13.5 36t34.5 12q20 0 33.5 -12.5t13.5 -35.5t-13.5 -35t-33.5 -12z" />
    <glyph glyph-name="Zcaron" unicode="&#x17d;" horiz-adv-x="512" 
d="M463 676v-50l-349 -571h354v-55h-430v49l349 572h-329v55h405zM290 748h-61l-102 151h57l76 -107l75 107h57z" />
    <glyph glyph-name="zcaron" unicode="&#x17e;" horiz-adv-x="407" 
d="M359 456v-45l-244 -358h249v-53h-324v45l245 358h-233v53h307zM239 545h-61l-102 151h57l76 -107l75 107h57z" />
    <glyph glyph-name="florin" unicode="&#x192;" horiz-adv-x="341" 
d="M194 401v-471q0 -69 -31.5 -112.5t-99.5 -43.5q-28 0 -56 7v57q27 -8 50 -8q43 0 60 26.5t17 79.5v465h-101v54h101v89q0 70 31.5 113t100.5 43q26 0 54 -7v-57q-27 8 -50 8q-43 0 -59.5 -26.5t-16.5 -79.5v-83h110v-54h-110z" />
    <glyph glyph-name="Aringacute" unicode="&#x1fa;" horiz-adv-x="605" 
d="M202 809q0 37 23.5 61.5t62.5 28.5l57 76h66l-68 -81q62 -21 62 -85q0 -40 -28 -66t-74 -26q-45 0 -73 26t-28 66zM246 809q0 -24 15.5 -38.5t41.5 -14.5q27 0 42 14.5t15 38.5t-15 39t-42 15q-26 0 -41.5 -15t-15.5 -39zM518 0l-67 190h-298l-67 -190h-68l245 676h78
l247 -676h-70zM303 611l-131 -366h260z" />
    <glyph glyph-name="aringacute" unicode="&#x1fb;" horiz-adv-x="468" 
d="M140 614q0 37 23.5 62t63.5 29l53 70h65l-65 -76q29 -9 46 -31.5t17 -53.5q0 -40 -28 -66t-74 -26q-45 0 -73 26t-28 66zM184 614q0 -25 15.5 -39.5t41.5 -14.5q27 0 42 14.5t15 39.5q0 24 -15 39t-42 15q-26 0 -41.5 -15t-15.5 -39zM397 0h-56v58q-59 -68 -157 -68
q-67 0 -104 33.5t-37 93.5q0 121 204 144l92 11v52q0 47 -24 68.5t-82 21.5q-107 0 -107 -61v-30h-54q-2 22 -2 33q0 50 41.5 80t123.5 30q162 0 162 -141v-325zM104 119q0 -78 91 -78q86 0 144 64v121l-89 -11q-146 -19 -146 -96z" />
    <glyph glyph-name="AEacute" unicode="&#x1fc;" horiz-adv-x="938" 
d="M689 899h67l-87 -151h-57zM239 244h253v372zM74 0h-71l463 676h417v-55h-328v-245h296v-55h-296v-267h332v-54h-395v189h-287z" />
    <glyph glyph-name="aeacute" unicode="&#x1fd;" horiz-adv-x="759" 
d="M439 696h67l-87 -151h-57zM539 43q80 0 131 52l31 -41q-20 -26 -66 -45t-96 -19q-119 0 -165 88q-30 -39 -79 -63.5t-107 -24.5q-69 0 -107 33.5t-38 93.5q0 121 204 144l91 11v52q0 47 -23.5 68.5t-81.5 21.5q-107 0 -107 -61v-30h-54q-3 16 -3 33q0 50 42 80t124 30
q118 0 148 -80q47 80 151 80q86 0 131.5 -55t45.5 -134q0 -39 -6 -67h-307q2 -167 141 -167zM104 119q0 -78 91 -78q87 0 143 64v121l-88 -11q-146 -19 -146 -96zM399 259h252q2 12 2 22q0 59 -31 96t-88 37q-126 0 -135 -155z" />
    <glyph glyph-name="Oslashacute" unicode="&#x1fe;" horiz-adv-x="658" 
d="M372 899h66l-86 -151h-56zM598 337q0 -161 -65.5 -254t-205.5 -93q-114 0 -180 66l-42 -56h-60l71 94q-56 88 -56 243q0 162 65 255.5t204 93.5q115 0 182 -69l45 59h63l-76 -100q55 -88 55 -239zM125 337q0 -121 32 -189l318 421q-51 60 -146 60q-204 0 -204 -292z
M534 337q0 117 -31 186l-319 -419q49 -57 143 -57q113 0 160 75t47 215z" />
    <glyph glyph-name="oslashacute" unicode="&#x1ff;" horiz-adv-x="501" 
d="M251 466q75 0 124 -38l21 28h57l-47 -61q45 -61 45 -166q0 -110 -49.5 -174.5t-153.5 -64.5q-74 0 -122 38l-22 -28h-54l45 60q-45 61 -45 168q0 108 50 173t151 65zM249 45q142 0 142 183q0 72 -23 117l-207 -270q33 -30 88 -30zM111 229q0 -73 23 -118l205 271
q-35 29 -89 29q-139 0 -139 -182zM293 696h67l-87 -151h-57z" />
    <glyph glyph-name="Scommaaccent" unicode="&#x218;" horiz-adv-x="545" 
d="M483 587l-50 -34q-47 76 -154 76q-71 0 -109 -37.5t-38 -95.5q0 -47 26.5 -72t82.5 -42l92 -27q76 -23 118.5 -62.5t42.5 -109.5q0 -86 -59 -139.5t-165 -53.5q-55 0 -96 11.5t-66.5 33t-39.5 41t-25 44.5l52 30q20 -48 58 -75.5t117 -27.5q78 0 118.5 36t40.5 97
q0 47 -30.5 74t-85.5 43l-93 27q-153 46 -153 170q0 81 55.5 136.5t156.5 55.5q74 0 127 -28.5t77 -70.5zM314 -70l-48 -146h-48l25 146h71z" />
    <glyph glyph-name="scommaaccent" unicode="&#x219;" horiz-adv-x="427" 
d="M373 403l-38 -38q-42 51 -118 51q-52 0 -76.5 -23t-24.5 -59q0 -53 63 -69l79 -18q125 -31 125 -124q0 -59 -46 -96t-129 -37q-110 0 -168 76l39 38q16 -20 27.5 -31t38.5 -22t64 -11q51 0 82 20.5t31 59.5q0 29 -20 45t-60 27l-80 20q-107 25 -107 119q0 55 41 95
t122 40q102 0 155 -63zM256 -70l-48 -146h-48l25 146h71z" />
    <glyph glyph-name="uni021A" unicode="&#x21a;" horiz-adv-x="533" 
d="M33 676h466v-55h-201v-621h-63v621h-202v55zM302 -70l-48 -146h-48l25 146h71z" />
    <glyph glyph-name="uni021B" unicode="&#x21b;" horiz-adv-x="332" 
d="M168 403v-280q0 -78 67 -78q31 0 67 18l11 -52q-44 -21 -91 -21q-113 0 -113 128v285h-88v43l88 10v116l59 12v-128h132v-53h-132zM233 -70l-48 -146h-48l25 146h71z" />
    <glyph glyph-name="dotlessj" unicode="&#x237;" horiz-adv-x="209" 
d="M17 -226l-27 45q50 19 67.5 51t17.5 97v489h59v-482q0 -87 -27.5 -133t-89.5 -67z" />
    <glyph glyph-name="circumflex" unicode="&#x2c6;" horiz-adv-x="600" 
d="M269 696h61l102 -151h-57l-76 107l-75 -107h-57z" />
    <glyph glyph-name="caron" unicode="&#x2c7;" horiz-adv-x="600" 
d="M330 545h-61l-102 151h57l76 -107l75 107h57z" />
    <glyph glyph-name="breve" unicode="&#x2d8;" horiz-adv-x="600" 
d="M382 681h47q0 -58 -35.5 -95t-94.5 -37q-58 0 -93.5 37t-35.5 95h45q2 -37 23.5 -60.5t60.5 -23.5t60.5 23.5t22.5 60.5z" />
    <glyph glyph-name="dotaccent" unicode="&#x2d9;" horiz-adv-x="600" 
d="M300 569q-48 0 -48 47q0 24 13.5 36t34.5 12q20 0 33.5 -12.5t13.5 -35.5t-13.5 -35t-33.5 -12z" />
    <glyph glyph-name="ring" unicode="&#x2da;" horiz-adv-x="600" 
d="M198 624q0 40 27.5 66t73.5 26q47 0 74.5 -26t27.5 -66q0 -41 -28 -67t-74 -26t-73.5 26.5t-27.5 66.5zM243 624q0 -24 15 -39t41 -15t41.5 15t15.5 39t-15.5 38.5t-41.5 14.5t-41 -14.5t-15 -38.5z" />
    <glyph glyph-name="ogonek" unicode="&#x2db;" horiz-adv-x="600" 
d="M382 0l-77 -62q-34 -29 -34 -59q0 -17 13 -30.5t37 -13.5q27 0 61 25v-54q-32 -22 -73 -22q-46 0 -72.5 24.5t-26.5 62.5q0 50 50 90l68 55z" />
    <glyph glyph-name="tilde" unicode="&#x2dc;" horiz-adv-x="600" 
d="M434 626l-8 -49q-28 25 -59 25q-21 0 -64 -18.5t-72 -18.5q-44 0 -66 26l8 48q23 -25 58 -25q23 0 64 19t72 19q36 0 67 -26z" />
    <glyph glyph-name="hungarumlaut" unicode="&#x2dd;" horiz-adv-x="600" 
d="M233 696h68l-87 -151h-58zM377 696h67l-87 -151h-58z" />
    <glyph glyph-name="uni0394" unicode="&#x394;" horiz-adv-x="673" 
d="M13 0l284 676h80l283 -676h-647zM565 54l-227 562l-233 -562h460z" />
    <glyph glyph-name="uni03A9" unicode="&#x3a9;" horiz-adv-x="686" 
d="M56 54h166q-65 47 -112 130t-47 179q0 141 70.5 232t209.5 91t209.5 -91t70.5 -232q0 -96 -47 -179t-112 -130h166v-54h-240v54q73 49 120.5 129.5t47.5 178.5q0 122 -53.5 194.5t-161.5 72.5t-161.5 -72.5t-53.5 -194.5q0 -98 47.5 -178.5t120.5 -129.5v-54h-240v54z
" />
    <glyph glyph-name="uni03BC" unicode="&#x3bc;" horiz-adv-x="523" 
d="M134 -216h-59v672h59v-291q0 -62 25.5 -90.5t89.5 -28.5q92 0 142 62v348h59v-456h-58v56q-22 -30 -64.5 -48t-90.5 -18q-64 0 -103 25v-231z" />
    <glyph glyph-name="pi" unicode="&#x3c0;" horiz-adv-x="569" 
d="M117 0v403h-92v53h503v-53h-102v-280q0 -35 16 -57t50 -22q12 0 28 3v-52q-18 -6 -40 -6q-112 0 -112 129v285h-194v-403h-57z" />
    <glyph glyph-name="Wgrave" unicode="&#x1e80;" horiz-adv-x="967" 
d="M447 676h74l176 -600l176 600h68l-203 -676h-79l-176 589l-175 -589h-79l-203 676h68l176 -600zM371 899h67l77 -151h-57z" />
    <glyph glyph-name="wgrave" unicode="&#x1e81;" horiz-adv-x="751" 
d="M345 456h62l127 -389l125 389h65l-153 -456h-68l-127 380l-128 -380h-67l-153 456h65l124 -389zM264 696h67l77 -151h-57z" />
    <glyph glyph-name="Wacute" unicode="&#x1e82;" horiz-adv-x="967" 
d="M447 676h74l176 -600l176 600h68l-203 -676h-79l-176 589l-175 -589h-79l-203 676h68l176 -600zM531 899h67l-87 -151h-57z" />
    <glyph glyph-name="wacute" unicode="&#x1e83;" horiz-adv-x="751" 
d="M345 456h62l127 -389l125 389h65l-153 -456h-68l-127 380l-128 -380h-67l-153 456h65l124 -389zM420 696h67l-87 -151h-57z" />
    <glyph glyph-name="Wdieresis" unicode="&#x1e84;" horiz-adv-x="967" 
d="M447 676h74l176 -600l176 600h68l-203 -676h-79l-176 589l-175 -589h-79l-203 676h68l176 -600zM396 772q-48 0 -48 47q0 24 13.5 36t34.5 12q20 0 33.5 -12.5t13.5 -35.5t-13.5 -35t-33.5 -12zM572 772q-47 0 -47 47q0 48 47 48q20 0 34 -12.5t14 -35.5t-14 -35t-34 -12
z" />
    <glyph glyph-name="wdieresis" unicode="&#x1e85;" horiz-adv-x="751" 
d="M345 456h62l127 -389l125 389h65l-153 -456h-68l-127 380l-128 -380h-67l-153 456h65l124 -389zM288 569q-48 0 -48 47q0 24 13.5 36t34.5 12q20 0 33.5 -12.5t13.5 -35.5t-13.5 -35t-33.5 -12zM464 569q-47 0 -47 47q0 48 47 48q20 0 34 -12.5t14 -35.5t-14 -35t-34 -12
z" />
    <glyph glyph-name="Ygrave" unicode="&#x1ef2;" horiz-adv-x="568" 
d="M315 0h-63v273l-233 403h71l193 -342l193 342h72l-233 -403v-273zM173 899h67l77 -151h-57z" />
    <glyph glyph-name="ygrave" unicode="&#x1ef3;" horiz-adv-x="476" 
d="M88 456l158 -351l142 351h67l-283 -672h-64l107 249l-195 423h68zM138 696h67l77 -151h-57z" />
    <glyph glyph-name="endash" unicode="&#x2013;" horiz-adv-x="583" 
d="M69 296h446v-53h-446v53z" />
    <glyph glyph-name="emdash" unicode="&#x2014;" horiz-adv-x="723" 
d="M69 296h586v-53h-586v53z" />
    <glyph glyph-name="quoteleft" unicode="&#x2018;" horiz-adv-x="205" 
d="M55 467l48 209h48l-25 -209h-71z" />
    <glyph glyph-name="quoteright" unicode="&#x2019;" horiz-adv-x="201" 
d="M157 676l-48 -209h-48l25 209h71z" />
    <glyph glyph-name="quotesinglbase" unicode="&#x201a;" horiz-adv-x="213" 
d="M146 95l-48 -208h-48l25 208h71z" />
    <glyph glyph-name="quotedblleft" unicode="&#x201c;" horiz-adv-x="326" 
d="M176 467l48 209h48l-25 -209h-71zM55 467l48 209h48l-25 -209h-71z" />
    <glyph glyph-name="quotedblright" unicode="&#x201d;" horiz-adv-x="322" 
d="M157 676l-48 -209h-48l25 209h71zM278 676l-48 -209h-48l25 209h71z" />
    <glyph glyph-name="quotedblbase" unicode="&#x201e;" horiz-adv-x="334" 
d="M146 95l-48 -209h-48l25 209h71zM267 95l-48 -209h-48l25 209h71z" />
    <glyph glyph-name="dagger" unicode="&#x2020;" horiz-adv-x="421" 
d="M33 292h155v398h48v-398h154v-46h-154v-462h-48v462h-155v46z" />
    <glyph glyph-name="daggerdbl" unicode="&#x2021;" horiz-adv-x="480" 
d="M62 449h154v241h48v-241h155v-46h-155v-328h155v-46h-155v-245h-48v245h-154v46h154v328h-154v46z" />
    <glyph glyph-name="bullet" unicode="&#x2022;" horiz-adv-x="373" 
d="M187 172q-44 0 -72.5 27.5t-28.5 69.5q0 43 28.5 70.5t72.5 27.5t72 -27.5t28 -70.5q0 -42 -28 -69.5t-72 -27.5z" />
    <glyph glyph-name="ellipsis" unicode="&#x2026;" horiz-adv-x="581" 
d="M111 -7q-22 0 -36.5 14.5t-14.5 36.5t14.5 36t36.5 14q23 0 37.5 -14t14.5 -36t-15 -36.5t-37 -14.5zM469 -7q-22 0 -37 14.5t-15 36.5t14.5 36t37.5 14t37.5 -14t14.5 -36t-15 -36.5t-37 -14.5zM291 -7q-22 0 -36.5 14.5t-14.5 36.5t14.5 36t36.5 14q23 0 37.5 -14
t14.5 -36t-15 -36.5t-37 -14.5z" />
    <glyph glyph-name="perthousand" unicode="&#x2030;" horiz-adv-x="1093" 
d="M624 676l-409 -676h-56l407 676h58zM599 36q86 0 86 136t-86 136t-86 -136t86 -136zM599 348q137 0 137 -176q0 -84 -33.5 -130.5t-103.5 -46.5t-103.5 46.5t-33.5 130.5q0 83 34 129.5t103 46.5zM181 367q86 0 86 136t-86 136t-86 -136t86 -136zM181 679q137 0 137 -176
q0 -84 -33.5 -130.5t-103.5 -46.5t-103.5 46.5t-33.5 130.5q0 83 34 129.5t103 46.5zM910 36q86 0 86 136t-86 136t-86 -136t86 -136zM910 348q137 0 137 -176q0 -84 -33.5 -130.5t-103.5 -46.5t-103.5 46.5t-33.5 130.5q0 83 34 129.5t103 46.5z" />
    <glyph glyph-name="guilsinglleft" unicode="&#x2039;" horiz-adv-x="295" 
d="M33 270l170 208l40 -30l-135 -178l136 -178l-41 -30z" />
    <glyph glyph-name="guilsinglright" unicode="&#x203a;" horiz-adv-x="295" 
d="M91 478l170 -208l-170 -208l-40 30l136 178l-136 178z" />
    <glyph glyph-name="fraction" unicode="&#x2044;" horiz-adv-x="168" 
d="M317 676l-409 -676h-56l407 676h58z" />
    <glyph glyph-name="zerosuperior" unicode="&#x2070;" horiz-adv-x="346" 
d="M172 479q86 0 86 136t-86 136t-86 -136t86 -136zM172 791q137 0 137 -176q0 -84 -33.5 -130.5t-103.5 -46.5t-103.5 46.5t-33.5 130.5q0 83 34 129.5t103 46.5z" />
    <glyph glyph-name="foursuperior" unicode="&#x2074;" horiz-adv-x="327" 
d="M302 556v-41h-53v-72h-50v72h-180v38l179 233h51v-230h53zM72 556h127v164z" />
    <glyph glyph-name="fivesuperior" unicode="&#x2075;" horiz-adv-x="308" 
d="M274 554q0 -51 -32.5 -84t-92.5 -33q-62 0 -92 27.5t-30 70.5h50q0 -25 18 -40.5t54 -15.5t55.5 21t19.5 54q0 30 -19.5 48.5t-53.5 18.5q-35 0 -66 -20l-41 4l24 181h194v-41h-154l-14 -99q37 17 65 17q51 0 83 -28t32 -81z" />
    <glyph glyph-name="sixsuperior" unicode="&#x2076;" horiz-adv-x="328" 
d="M87 576q0 -42 19.5 -70t59.5 -28q37 0 57 20t20 53q0 32 -20 51t-57 19q-52 0 -79 -45zM172 750q-42 0 -64.5 -35t-22.5 -92q33 38 92 38q55 0 85.5 -30t30.5 -80q0 -49 -33 -82t-94 -33q-66 0 -98.5 45t-32.5 121q0 88 34.5 138t102.5 50q56 0 84.5 -25.5t28.5 -65.5
h-49q0 23 -17 37t-47 14z" />
    <glyph glyph-name="sevensuperior" unicode="&#x2077;" horiz-adv-x="271" 
d="M59 443l138 302h-178v41h232v-35l-138 -308h-54z" />
    <glyph glyph-name="eightsuperior" unicode="&#x2078;" horiz-adv-x="333" 
d="M166 437q-59 0 -95 26t-36 73q0 66 68 84q-61 20 -61 76q0 44 33.5 69.5t90.5 25.5t89.5 -25.5t32.5 -69.5q0 -56 -61 -76q69 -18 69 -84q0 -47 -35.5 -73t-94.5 -26zM165 600q-35 0 -57.5 -17t-22.5 -44q0 -29 22.5 -44.5t58.5 -15.5q35 0 57 15.5t22 44.5
q0 28 -22 44.5t-58 16.5zM165 751q-33 0 -52.5 -15t-19.5 -42q0 -26 20 -40t52 -14t52.5 14.5t20.5 39.5q0 27 -19.5 42t-53.5 15z" />
    <glyph glyph-name="ninesuperior" unicode="&#x2079;" horiz-adv-x="328" 
d="M239 651q0 42 -20 70.5t-59 28.5q-38 0 -57.5 -20t-19.5 -54q0 -69 77 -69q26 0 47.5 13t31.5 31zM40 528h50q0 -23 17.5 -36.5t46.5 -13.5q43 0 64.5 34t21.5 93q-12 -14 -37 -26.5t-54 -12.5q-55 0 -86 30t-31 79q0 50 33 82.5t95 32.5q66 0 98.5 -44.5t32.5 -121.5
q0 -87 -34 -137.5t-103 -50.5q-54 0 -84 26.5t-30 65.5z" />
    <glyph glyph-name="zeroinferior" unicode="&#x2080;" horiz-adv-x="346" 
d="M172 -64q86 0 86 136t-86 136t-86 -136t86 -136zM172 248q137 0 137 -176q0 -84 -33.5 -130.5t-103.5 -46.5t-103.5 46.5t-33.5 130.5q0 83 34 129.5t103 46.5z" />
    <glyph glyph-name="oneinferior" unicode="&#x2081;" horiz-adv-x="226" 
d="M172 -100h-49v297l-103 -38l-13 39l121 45h44v-343z" />
    <glyph glyph-name="twoinferior" unicode="&#x2082;" horiz-adv-x="303" 
d="M147 248q52 0 83.5 -28t31.5 -72q0 -34 -19 -62.5t-56 -63.5l-86 -81h168v-41h-235v35l120 116q57 54 57 97q0 26 -17 43t-47 17q-32 0 -48.5 -17.5t-16.5 -47.5h-49q0 48 29.5 76.5t84.5 28.5z" />
    <glyph glyph-name="threeinferior" unicode="&#x2083;" horiz-adv-x="316" 
d="M205 76q31 -5 52.5 -27.5t21.5 -57.5q0 -43 -34 -70t-91 -27q-61 0 -92 26t-31 66h49q0 -22 19.5 -36t54.5 -14q34 0 54.5 15.5t20.5 41.5q0 29 -23 45.5t-63 16.5h-33v41h33q36 0 58 15t22 41q0 25 -18.5 40.5t-50.5 15.5q-33 0 -50.5 -14.5t-17.5 -36.5h-51
q0 39 30.5 65t88.5 26q55 0 87.5 -26t32.5 -68q0 -30 -20 -51t-49 -27z" />
    <glyph glyph-name="fourinferior" unicode="&#x2084;" horiz-adv-x="328" 
d="M302 13v-41h-53v-72h-50v72h-180v38l179 233h51v-230h53zM72 13h127v164z" />
    <glyph glyph-name="fiveinferior" unicode="&#x2085;" horiz-adv-x="307" 
d="M274 11q0 -51 -32.5 -84t-92.5 -33q-62 0 -92 27.5t-30 70.5h50q0 -25 18 -40.5t54 -15.5t55.5 21t19.5 54q0 30 -19.5 48.5t-53.5 18.5q-35 0 -66 -20l-41 4l24 181h194v-41h-154l-14 -99q37 17 65 17q51 0 83 -28t32 -81z" />
    <glyph glyph-name="sixinferior" unicode="&#x2086;" horiz-adv-x="327" 
d="M87 34q0 -42 19.5 -70t59.5 -28q37 0 57 20t20 53q0 32 -20 51t-57 19q-52 0 -79 -45zM172 208q-42 0 -64.5 -35t-22.5 -92q33 38 92 38q55 0 85.5 -30t30.5 -80q0 -49 -33 -82t-94 -33q-66 0 -98.5 45t-32.5 121q0 88 34.5 138t102.5 50q56 0 84.5 -25.5t28.5 -65.5h-49
q0 23 -17 37t-47 14z" />
    <glyph glyph-name="seveninferior" unicode="&#x2087;" horiz-adv-x="272" 
d="M59 -100l138 302h-178v41h232v-35l-138 -308h-54z" />
    <glyph glyph-name="eightinferior" unicode="&#x2088;" horiz-adv-x="333" 
d="M166 -106q-59 0 -95 26t-36 73q0 66 68 84q-61 20 -61 76q0 44 33.5 69.5t90.5 25.5t89.5 -25.5t32.5 -69.5q0 -56 -61 -76q69 -18 69 -84q0 -47 -35.5 -73t-94.5 -26zM165 57q-35 0 -57.5 -17t-22.5 -44q0 -29 22.5 -44.5t58.5 -15.5q35 0 57 15.5t22 44.5
q0 28 -22 44.5t-58 16.5zM165 208q-33 0 -52.5 -15t-19.5 -42q0 -26 20 -40t52 -14t52.5 14.5t20.5 39.5q0 27 -19.5 42t-53.5 15z" />
    <glyph glyph-name="nineinferior" unicode="&#x2089;" horiz-adv-x="328" 
d="M239 109q0 42 -20 70.5t-59 28.5q-38 0 -57.5 -20t-19.5 -54q0 -69 77 -69q26 0 47.5 13t31.5 31zM40 -14h50q0 -23 17.5 -36.5t46.5 -13.5q43 0 64.5 34t21.5 93q-12 -14 -37 -26.5t-54 -12.5q-55 0 -86 30t-31 79q0 50 33 82.5t95 32.5q66 0 98.5 -44.5t32.5 -121.5
q0 -87 -34 -137.5t-103 -50.5q-54 0 -84 26.5t-30 65.5z" />
    <glyph glyph-name="rupee" unicode="&#x20a8;" horiz-adv-x="524" 
d="M63 676h411v-48h-128q51 -40 58 -119h70v-48h-70q-6 -68 -52.5 -112.5t-122.5 -52.5l192 -296h-74l-187 291h-97v54h107q152 0 168 116h-275v48h276q-9 55 -44.5 84t-109.5 29h-122v54z" />
    <glyph glyph-name="Euro" unicode="&#x20ac;" horiz-adv-x="581" 
d="M48 427h55q16 122 78 190.5t172 68.5q89 0 172 -44l-23 -56q-71 42 -150 42q-81 0 -126.5 -54t-57.5 -147h269l-21 -48h-253q-1 -13 -1 -39q0 -18 2 -50h219l-20 -48h-194q31 -195 186 -195q85 0 160 51l17 -58q-87 -51 -179 -51q-217 0 -249 253h-56v48h51q-1 16 -1 50
q0 26 1 39h-51v48z" />
    <glyph glyph-name="afii61289" unicode="&#x2113;" horiz-adv-x="385" 
d="M358 37q-56 -48 -125 -48q-102 0 -102 128v131q-31 -27 -82 -63l-24 39q65 47 106 83v228q0 86 30.5 128.5t81.5 42.5q49 0 73.5 -35t24.5 -96q0 -137 -162 -291v-161q0 -86 57 -86q51 0 99 41zM292 572q0 40 -14 62.5t-38 22.5q-29 0 -45 -30.5t-16 -81.5v-199
q113 120 113 226z" />
    <glyph glyph-name="uni2117" unicode="&#x2117;" horiz-adv-x="808" 
d="M57 338q0 158 98.5 255.5t249.5 97.5q150 0 248 -97.5t98 -255.5t-98 -256.5t-248 -98.5q-151 0 -249.5 98.5t-98.5 256.5zM110 338q0 -138 82.5 -221t212.5 -83q129 0 211 83t82 221t-81.5 220t-211.5 82t-212.5 -82t-82.5 -220zM278 539h143q73 0 110 -34t37 -91
t-37 -90.5t-110 -33.5h-92v-159h-51v408zM515 414q0 81 -93 81h-93v-160h93q93 0 93 79z" />
    <glyph glyph-name="trademark" unicode="&#x2122;" horiz-adv-x="647" 
d="M58 607h194v-33h-78v-204h-40v204h-76v33zM435 415l58 192h54l30 -237h-39l-21 194l-61 -194h-43l-58 192l-24 -192h-38l31 237h56z" />
    <glyph glyph-name="Omega" unicode="&#x2126;" horiz-adv-x="692" 
d="M59 54h166q-65 47 -112 130t-47 179q0 141 70.5 232t209.5 91t209.5 -91t70.5 -232q0 -96 -47 -179t-112 -130h166v-54h-240v54q73 49 120.5 129.5t47.5 178.5q0 122 -53.5 194.5t-161.5 72.5t-161.5 -72.5t-53.5 -194.5q0 -98 47.5 -178.5t120.5 -129.5v-54h-240v54z
" />
    <glyph glyph-name="estimated" unicode="&#x212e;" horiz-adv-x="758" 
d="M713 338h-511v-230q74 -74 183 -74q80 0 139 36.5t106 115.5l45 -27q-59 -92 -125 -131.5t-165 -39.5q-146 0 -236.5 100t-90.5 250q0 151 90 250.5t237 99.5q146 0 236.5 -98t91.5 -252zM202 384h369v184q-81 75 -187 75q-107 0 -182 -75v-184z" />
    <glyph glyph-name="onethird" unicode="&#x2153;" horiz-adv-x="726" 
d="M601 176q31 -5 52.5 -27.5t21.5 -57.5q0 -43 -34 -70t-91 -27q-61 0 -92 26t-31 66h49q0 -22 19.5 -36t54.5 -14q34 0 54.5 15.5t20.5 41.5q0 29 -23 45.5t-63 16.5h-33v41h33q36 0 58 15t22 41q0 25 -18.5 40.5t-50.5 15.5q-33 0 -50.5 -14.5t-17.5 -36.5h-51
q0 39 30.5 65t88.5 26q55 0 87.5 -26t32.5 -68q0 -30 -20 -51t-49 -27zM575 676l-409 -676h-56l407 676h58zM200 331h-49v297l-103 -38l-13 39l121 45h44v-343z" />
    <glyph glyph-name="twothirds" unicode="&#x2154;" horiz-adv-x="778" 
d="M169 679q52 0 83.5 -28t31.5 -72q0 -34 -19 -62.5t-56 -63.5l-86 -81h168v-41h-235v35l120 116q57 54 57 97q0 26 -17 43t-47 17q-32 0 -48.5 -17.5t-16.5 -47.5h-49q0 48 29.5 76.5t84.5 28.5zM654 176q31 -5 52.5 -27.5t21.5 -57.5q0 -43 -34 -70t-91 -27q-61 0 -92 26
t-31 66h49q0 -22 19.5 -36t54.5 -14q34 0 54.5 15.5t20.5 41.5q0 29 -23 45.5t-63 16.5h-33v41h33q36 0 58 15t22 41q0 25 -18.5 40.5t-50.5 15.5q-33 0 -50.5 -14.5t-17.5 -36.5h-51q0 39 30.5 65t88.5 26q55 0 87.5 -26t32.5 -68q0 -30 -20 -51t-49 -27zM628 676
l-409 -676h-56l407 676h58z" />
    <glyph glyph-name="oneeighth" unicode="&#x215b;" horiz-adv-x="732" 
d="M552 -6q-59 0 -95 26t-36 73q0 66 68 84q-61 20 -61 76q0 44 33.5 69.5t90.5 25.5t89.5 -25.5t32.5 -69.5q0 -56 -61 -76q69 -18 69 -84q0 -47 -35.5 -73t-94.5 -26zM551 157q-35 0 -57.5 -17t-22.5 -44q0 -29 22.5 -44.5t58.5 -15.5q35 0 57 15.5t22 44.5q0 28 -22 44.5
t-58 16.5zM551 308q-33 0 -52.5 -15t-19.5 -42q0 -26 20 -40t52 -14t52.5 14.5t20.5 39.5q0 27 -19.5 42t-53.5 15zM575 676l-409 -676h-56l407 676h58zM200 331h-49v297l-103 -38l-13 39l121 45h44v-343z" />
    <glyph glyph-name="threeeighths" unicode="&#x215c;" horiz-adv-x="776" 
d="M224 507q31 -5 52.5 -27.5t21.5 -57.5q0 -43 -34 -70t-91 -27q-61 0 -92 26t-31 66h49q0 -22 19.5 -36t54.5 -14q34 0 54.5 15.5t20.5 41.5q0 29 -23 45.5t-63 16.5h-33v41h33q36 0 58 15t22 41q0 25 -18.5 40.5t-50.5 15.5q-33 0 -50.5 -14.5t-17.5 -36.5h-51
q0 39 30.5 65t88.5 26q55 0 87.5 -26t32.5 -68q0 -30 -20 -51t-49 -27zM620 676l-409 -676h-56l407 676h58zM598 -6q-59 0 -95 26t-36 73q0 66 68 84q-61 20 -61 76q0 44 33.5 69.5t90.5 25.5t89.5 -25.5t32.5 -69.5q0 -56 -61 -76q69 -18 69 -84q0 -47 -35.5 -73t-94.5 -26
zM597 157q-35 0 -57.5 -17t-22.5 -44q0 -29 22.5 -44.5t58.5 -15.5q35 0 57 15.5t22 44.5q0 28 -22 44.5t-58 16.5zM597 308q-33 0 -52.5 -15t-19.5 -42q0 -26 20 -40t52 -14t52.5 14.5t20.5 39.5q0 27 -19.5 42t-53.5 15z" />
    <glyph glyph-name="fiveeighths" unicode="&#x215d;" horiz-adv-x="764" 
d="M290 442q0 -51 -32.5 -84t-92.5 -33q-62 0 -92 27.5t-30 70.5h50q0 -25 18 -40.5t54 -15.5t55.5 21t19.5 54q0 30 -19.5 48.5t-53.5 18.5q-35 0 -66 -20l-41 4l24 181h194v-41h-154l-14 -99q37 17 65 17q51 0 83 -28t32 -81zM608 676l-409 -676h-56l407 676h58zM585 -6
q-59 0 -95 26t-36 73q0 66 68 84q-61 20 -61 76q0 44 33.5 69.5t90.5 25.5t89.5 -25.5t32.5 -69.5q0 -56 -61 -76q69 -18 69 -84q0 -47 -35.5 -73t-94.5 -26zM584 157q-35 0 -57.5 -17t-22.5 -44q0 -29 22.5 -44.5t58.5 -15.5q35 0 57 15.5t22 44.5q0 28 -22 44.5t-58 16.5z
M584 308q-33 0 -52.5 -15t-19.5 -42q0 -26 20 -40t52 -14t52.5 14.5t20.5 39.5q0 27 -19.5 42t-53.5 15z" />
    <glyph glyph-name="seveneighths" unicode="&#x215e;" horiz-adv-x="690" 
d="M88 331l138 302h-178v41h232v-35l-138 -308h-54zM511 -6q-59 0 -95 26t-36 73q0 66 68 84q-61 20 -61 76q0 44 33.5 69.5t90.5 25.5t89.5 -25.5t32.5 -69.5q0 -56 -61 -76q69 -18 69 -84q0 -47 -35.5 -73t-94.5 -26zM510 157q-35 0 -57.5 -17t-22.5 -44q0 -29 22.5 -44.5
t58.5 -15.5q35 0 57 15.5t22 44.5q0 28 -22 44.5t-58 16.5zM510 308q-33 0 -52.5 -15t-19.5 -42q0 -26 20 -40t52 -14t52.5 14.5t20.5 39.5q0 27 -19.5 42t-53.5 15zM534 676l-409 -676h-56l407 676h58z" />
    <glyph glyph-name="arrowleft" unicode="&#x2190;" horiz-adv-x="750" 
d="M59 275l258 261l38 -38l-195 -196h513v-53h-513l194 -195l-37 -38z" />
    <glyph glyph-name="arrowup" unicode="&#x2191;" horiz-adv-x="750" 
d="M374 596l261 -258l-38 -38l-196 195v-514h-53v514l-195 -194l-38 37z" />
    <glyph glyph-name="arrowright" unicode="&#x2192;" horiz-adv-x="750" 
d="M691 279l-258 -261l-38 38l195 196h-513v53h513l-194 195l37 38z" />
    <glyph glyph-name="arrowdown" unicode="&#x2193;" horiz-adv-x="750" 
d="M376 -44l-261 259l38 38l196 -195v513h53v-513l195 194l38 -37z" />
    <glyph glyph-name="uni2196" unicode="&#x2196;" horiz-adv-x="750" 
d="M164 503h367v-53h-276l364 -364l-39 -38l-363 363v-275h-53v367z" />
    <glyph glyph-name="uni2197" unicode="&#x2197;" horiz-adv-x="750" 
d="M586 503v-368h-53v276l-364 -363l-38 38l363 364h-275v53h367z" />
    <glyph glyph-name="uni2198" unicode="&#x2198;" horiz-adv-x="750" 
d="M581 51h-367v53h276l-364 364l39 38l363 -363v275h53v-367z" />
    <glyph glyph-name="uni2199" unicode="&#x2199;" horiz-adv-x="750" 
d="M168 51v368h54v-276l363 363l39 -38l-364 -364h275v-53h-367z" />
    <glyph glyph-name="partialdiff" unicode="&#x2202;" horiz-adv-x="524" 
d="M229 690h81q70 -55 113.5 -153t43.5 -223q0 -324 -213 -324q-100 0 -152 63t-52 166t50.5 165.5t143.5 62.5q61 0 102 -31t62 -78q0 211 -179 352zM254 44q42 0 71.5 18.5t45 52t22.5 68t10 78.5q-50 130 -153 130q-71 0 -106 -47t-35 -126q0 -76 35 -125t110 -49z" />
    <glyph glyph-name="Delta" unicode="&#x2206;" horiz-adv-x="696" 
d="M25 0l284 676h80l283 -676h-647zM577 54l-227 562l-233 -562h460z" />
    <glyph glyph-name="product" unicode="&#x220f;" horiz-adv-x="741" 
d="M45 676h651v-54h-67v-838h-60v838h-396v-838h-60v838h-68v54z" />
    <glyph glyph-name="summation" unicode="&#x2211;" horiz-adv-x="585" 
d="M540 -162v-54h-495v71l268 384l-267 365v72h491v-54h-433l280 -383l-280 -401h436z" />
    <glyph glyph-name="minus" unicode="&#x2212;" 
d="M54 244v53h451v-53h-451z" />
    <glyph glyph-name="uni2215" unicode="&#x2215;" horiz-adv-x="464" 
d="M465 676l-409 -676h-56l407 676h58z" />
    <glyph glyph-name="uni2219" unicode="&#x2219;" horiz-adv-x="239" 
d="M119 218q-23 0 -38 14.5t-15 37.5t15 37.5t38 14.5t38 -14.5t15 -37.5t-15 -37.5t-38 -14.5z" />
    <glyph glyph-name="radical" unicode="&#x221a;" horiz-adv-x="612" 
d="M593 696l-243 -912h-71l-160 359l-74 -37l-24 51l132 63l156 -368l222 844h62z" />
    <glyph glyph-name="infinity" unicode="&#x221e;" horiz-adv-x="752" 
d="M694 264q0 -68 -43 -111.5t-110 -43.5q-88 0 -164 112q-74 -111 -165 -111q-67 0 -110.5 42t-43.5 111q0 67 43 111t109 44q86 0 167 -117q76 119 163 119q67 0 110.5 -43.5t43.5 -112.5zM641 264q0 47 -28.5 75.5t-75.5 28.5q-8 0 -16.5 -2t-15.5 -4.5t-15 -8t-13 -9
t-13 -12.5t-12 -12.5t-12 -14.5t-10.5 -14t-10.5 -15t-10 -14q22 -32 37 -50.5t40.5 -35.5t51.5 -17q46 0 74.5 29.5t28.5 75.5zM346 262q-74 106 -133 106q-44 0 -73 -30t-29 -75q0 -47 29.5 -75.5t73.5 -28.5q27 0 54 18t42.5 37t35.5 48z" />
    <glyph glyph-name="integral" unicode="&#x222b;" horiz-adv-x="362" 
d="M210 547v-617q0 -70 -31.5 -113t-102.5 -43q-23 0 -51 7v55q34 -6 51 -6q42 0 59 26t17 77v617q0 70 32 113t103 43q24 0 50 -7v-55q-32 6 -51 6q-42 0 -59 -26t-17 -77z" />
    <glyph glyph-name="approxequal" unicode="&#x2248;" 
d="M457 412l22 -44q-40 -56 -100 -56q-37 0 -106 34t-92 34q-15 0 -29.5 -6.5t-22.5 -14t-15.5 -15.5t-8.5 -9l-22 45q40 55 102 55q31 0 100.5 -35t95.5 -35q14 0 28.5 7t23 15t16 16t8.5 9zM455 207l22 -44q-40 -56 -99 -56q-37 0 -105.5 35.5t-91.5 35.5q-20 0 -37 -10.5
t-29 -23.5l-12 -13l-21 45q38 54 101 54q32 0 101.5 -35t94.5 -35q14 0 28.5 7t23 15t16 16t8.5 9z" />
    <glyph glyph-name="notequal" unicode="&#x2260;" 
d="M91 412h204l32 127l41 -9l-30 -118h131v-53h-145l-44 -178h189v-52h-202l-34 -134l-40 10l31 124h-133v52h146l44 178h-190v53z" />
    <glyph glyph-name="lessequal" unicode="&#x2264;" 
d="M85 353v58l378 169v-59l-322 -139l322 -138v-60zM85 36v53h378v-53h-378z" />
    <glyph glyph-name="greaterequal" unicode="&#x2265;" 
d="M86 36v53h378v-53h-378zM480 411v-58l-379 -169v60l322 138l-322 139v59z" />
    <glyph glyph-name="lozenge" unicode="&#x25ca;" horiz-adv-x="597" 
d="M498 350l-199 287l-200 -287l200 -292zM567 350l-241 -350h-55l-241 350l241 346h55z" />
    <glyph glyph-name="circle" unicode="&#x25cb;" horiz-adv-x="791" 
d="M57 339q0 156 95.5 251.5t243.5 95.5t243 -95.5t95 -251.5t-95.5 -253t-242.5 -97t-243 97t-96 253zM108 339q0 -140 79 -220t209 -80t208.5 80t78.5 220q0 139 -78.5 218t-208.5 79t-209 -79t-79 -218z" />
    <glyph glyph-name="commaaccent" unicode="&#xf6c3;" horiz-adv-x="600" 
d="M348 -70l-48 -146h-48l25 146h71z" />
    <glyph glyph-name="uniF8FF" unicode="&#xf8ff;" horiz-adv-x="610" 
d="M98 0v656h413v-656h-413zM136 40h337v576h-337v-576z" />
    <glyph glyph-name="exclam.sc" horiz-adv-x="217" 
d="M131 158h-47l-10 349h69zM109 -5q-20 0 -33 12t-13 30q0 19 13 31t33 12t33 -12t13 -31q0 -18 -13 -30t-33 -12z" />
    <glyph glyph-name="numbersign.sc" horiz-adv-x="522" 
d="M128 152h-82l5 51h85l19 117h-81l6 51h84l22 136h56l-24 -136h116l23 136h56l-23 -136h86l-5 -51h-90l-19 -117h86l-5 -51h-90l-25 -152h-56l26 152h-115l-25 -152h-57zM210 320l-19 -117h115l20 117h-116z" />
    <glyph glyph-name="dollar.sc" horiz-adv-x="468" 
d="M252 -77h-40v70q-51 2 -87.5 19t-51.5 34.5t-28 41.5l48 31q30 -68 119 -74v186l-22 6q-125 37 -125 131q0 55 38 96.5t109 48.5v56h40v-54q56 -2 96 -23t59 -51l-46 -33q-34 49 -109 53v-182l32 -8q131 -37 131 -132q0 -62 -43 -101.5t-120 -44.5v-70zM265 218l-13 3
v-176q50 4 76 28t26 63q0 58 -89 82zM127 371q0 -33 19.5 -50.5t62.5 -29.5l3 -1v170q-42 -6 -63.5 -30t-21.5 -59z" />
    <glyph glyph-name="percent.sc" horiz-adv-x="663" 
d="M522 507l-330 -507h-51l329 507h52zM505 34q65 0 65 97q0 98 -65 98q-66 0 -66 -98q0 -97 66 -97zM505 266q114 0 114 -135t-114 -135q-115 0 -115 135t115 135zM158 278q36 0 51 24t15 74q0 49 -15 73t-51 24q-66 0 -66 -97q0 -98 66 -98zM158 511q115 0 115 -135
t-115 -135q-113 0 -113 135t113 135z" />
    <glyph glyph-name="ampersand.sc" horiz-adv-x="551" 
d="M454 268l43 -33l-80 -103l-16 -20l113 -107v-5h-69l-77 73q-76 -81 -172 -81q-68 0 -106.5 32.5t-38.5 80.5q0 24 9 45.5t28.5 40.5t34.5 30.5t40 28.5l12 8l-22 21q-23 22 -32.5 32t-23.5 35.5t-14 49.5q0 50 42 84.5t112 34.5q65 0 106 -34.5t41 -84.5q0 -36 -23 -62.5
t-73 -62.5l-32 -21l107 -101l13 17zM197 41q69 0 133 69l-116 111l-18 -12q-30 -20 -44 -30.5t-29 -30.5t-15 -41q0 -27 26 -46.5t63 -19.5zM140 396q0 -24 13.5 -43t40.5 -44l24 -23l36 24q28 20 40 29t23 24.5t11 32.5q0 29 -24 49.5t-68 20.5t-70 -20.5t-26 -49.5z" />
    <glyph glyph-name="section.sc" horiz-adv-x="474" 
d="M414 200q0 -54 -62 -93q59 -33 59 -82q0 -48 -47 -79.5t-131 -31.5q-125 0 -182 73l35 37q54 -63 150 -63q50 0 82 14.5t32 43.5q0 21 -22 35t-65 28l-89 31q-108 39 -108 111q0 58 60 93q-58 32 -58 84q0 45 45.5 79.5t125.5 34.5q116 0 172 -71l-38 -35q-52 57 -138 57
q-46 0 -76 -16t-30 -43q0 -23 24.5 -38t73.5 -31l64 -22q62 -21 92.5 -47.5t30.5 -68.5zM173 296q-22 -10 -35 -27.5t-13 -36.5q0 -25 21 -41t63 -31l94 -32q21 11 37 28t16 37q0 28 -23.5 43.5t-68.5 30.5z" />
    <glyph glyph-name="paragraph.sc" horiz-adv-x="437" 
d="M180 342h84v-376h-53v156q-86 0 -124.5 26t-38.5 84q0 51 32.5 80.5t99.5 29.5zM274 -170l-28 39q38 16 52.5 38.5t14.5 67.5v367h53v-360q0 -58 -19 -95.5t-73 -56.5z" />
    <glyph glyph-name="parenleft.sc" horiz-adv-x="249" 
d="M210 -151l-44 -16q-56 83 -83.5 163t-27.5 184q0 109 28.5 187.5t82.5 159.5l45 -15q-47 -83 -71.5 -160t-24.5 -172q0 -92 23 -168.5t72 -162.5z" />
    <glyph glyph-name="slash.sc" horiz-adv-x="293" 
d="M258 507v-8l-167 -499h-55v9l164 498h58z" />
    <glyph glyph-name="parenright.sc" horiz-adv-x="249" 
d="M39 -151q49 86 72 162.5t23 168.5q0 95 -24.5 172t-71.5 160l45 15q54 -83 82.5 -161t28.5 -186q0 -104 -27.5 -183.5t-83.5 -163.5z" />
    <glyph glyph-name="bracketleft.sc" horiz-adv-x="273" 
d="M72 522h156v-50h-98v-584h98v-50h-156v684z" />
    <glyph glyph-name="backslash.sc" horiz-adv-x="295" 
d="M35 499v8h57l167 -498v-9h-55z" />
    <glyph glyph-name="bracketright.sc" horiz-adv-x="273" 
d="M45 522h157v-684h-157v50h98v584h-98v50z" />
    <glyph glyph-name="braceleft.sc" horiz-adv-x="272" 
d="M165 413v-156q0 -72 -54 -79q54 -9 54 -80v-155q0 -34 13.5 -47t45.5 -13v-45q-62 0 -89 22t-27 81v153q0 34 -16.5 47.5t-55.5 13.5v45q39 0 55.5 13.5t16.5 47.5v154q0 57 27.5 80t88.5 23v-46q-32 0 -45.5 -12.5t-13.5 -46.5z" />
    <glyph glyph-name="bar.sc" horiz-adv-x="186" 
d="M114 -162h-42v684h42v-684z" />
    <glyph glyph-name="braceright.sc" horiz-adv-x="272" 
d="M107 257v156q0 34 -13.5 46.5t-45.5 12.5v46q61 0 88.5 -23t27.5 -80v-154q0 -34 16.5 -47.5t55.5 -13.5v-45q-39 0 -55.5 -13.5t-16.5 -47.5v-153q0 -59 -27 -81t-89 -22v45q32 0 45.5 13t13.5 47v155q0 71 54 80q-54 6 -54 79z" />
    <glyph glyph-name="zero.sc" horiz-adv-x="506" 
d="M253 44q134 0 134 210q0 209 -134 209q-133 0 -133 -209q0 -210 133 -210zM253 515q99 0 147 -68.5t48 -192.5t-48 -193t-147 -69q-98 0 -146.5 69t-48.5 193q0 123 48.5 192t146.5 69z" />
    <glyph glyph-name="one.sc" horiz-adv-x="334" 
d="M252 0h-59v450l-153 -57l-16 46l175 68h53v-507z" />
    <glyph glyph-name="two.sc" horiz-adv-x="446" 
d="M217 515q75 0 119.5 -41t44.5 -106q0 -49 -26.5 -90.5t-80.5 -93.5l-138 -134h258v-50h-337v44l176 176q87 82 87 148q0 43 -27 69t-76 26q-48 0 -74 -27t-26 -72h-61q0 68 42 109.5t119 41.5z" />
    <glyph glyph-name="three.sc" horiz-adv-x="470" 
d="M301 262q45 -8 78 -42t33 -85q0 -64 -49 -103.5t-131 -39.5q-86 0 -131 37t-45 94h60q0 -35 31 -57t85 -22q55 0 87 25.5t32 67.5q0 45 -36.5 72t-96.5 27h-49v50h49q56 0 90 23.5t34 65.5q0 40 -29 64t-81 24q-51 0 -80 -23t-29 -57h-59q0 55 43 93.5t125 38.5
q78 0 124.5 -39t46.5 -99q0 -46 -29.5 -76t-72.5 -39z" />
    <glyph glyph-name="four.sc" horiz-adv-x="490" 
d="M446 162v-50h-81v-112h-60v112h-266v45l264 350h62v-345h81zM104 162h201v262z" />
    <glyph glyph-name="five.sc" horiz-adv-x="453" 
d="M401 163q0 -74 -47 -122.5t-133 -48.5q-87 0 -130.5 40t-43.5 102h60q0 -40 28.5 -65t85.5 -25q58 0 88 33t30 86q0 50 -29.5 78.5t-84.5 28.5t-103 -32l-50 6l34 263h277v-50h-228l-23 -163q53 28 103 28q75 0 120.5 -41t45.5 -118z" />
    <glyph glyph-name="six.sc" horiz-adv-x="480" 
d="M122 199q0 -66 31 -110.5t93 -44.5q58 0 89 31.5t31 84.5q0 52 -31 81.5t-89 29.5q-41 0 -74.5 -21t-49.5 -51zM355 383q0 37 -28.5 58.5t-76.5 21.5q-64 0 -97.5 -54.5t-33.5 -149.5q17 23 54.5 42.5t82.5 19.5q80 0 125.5 -43.5t45.5 -116.5t-47 -121t-134 -48
q-95 0 -142 66t-47 180q0 129 49.5 203t143.5 74q79 0 121.5 -37.5t42.5 -94.5h-59z" />
    <glyph glyph-name="seven.sc" horiz-adv-x="402" 
d="M102 0l202 457h-266v50h332v-45l-202 -462h-66z" />
    <glyph glyph-name="eight.sc" horiz-adv-x="488" 
d="M245 -8q-86 0 -137 38t-51 106q0 52 32 84t78 42q-44 11 -71.5 39.5t-27.5 74.5q0 63 48 101t128 38t128 -38t48 -101q0 -46 -27.5 -74.5t-70.5 -39.5q46 -10 77.5 -42t31.5 -84q0 -68 -51 -106t-135 -38zM244 463q-53 0 -83.5 -23t-30.5 -66q0 -41 32 -64t82 -23t82 23
t32 64q0 43 -30.5 66t-83.5 23zM243 44q59 0 92.5 25t33.5 72q0 45 -35 70t-91 25q-54 0 -89 -25.5t-35 -69.5q0 -46 33.5 -71.5t90.5 -25.5z" />
    <glyph glyph-name="nine.sc" horiz-adv-x="481" 
d="M359 307q0 66 -31.5 111t-92.5 45q-58 0 -89 -31.5t-31 -84.5t31 -82t89 -29q40 0 74 21t50 50zM67 125h59q0 -37 28 -59t76 -22q65 0 98.5 55t33.5 149q-18 -22 -55.5 -42t-82.5 -20q-80 0 -125.5 44t-45.5 116t47.5 120.5t134.5 48.5q95 0 141.5 -66t46.5 -180
q0 -129 -49 -203t-144 -74q-79 0 -121 37.5t-42 95.5z" />
    <glyph glyph-name="question.sc" horiz-adv-x="384" 
d="M183 -5q-20 0 -33 12t-13 30q0 19 13 31t33 12t33 -12t13 -31q0 -18 -13 -30t-33 -12zM184 515q72 0 114 -36.5t42 -91.5q0 -35 -20 -65.5t-43.5 -50t-43.5 -49.5t-20 -64h-58q0 32 13 60t31.5 48t37 38t31.5 38.5t13 42.5q0 31 -24.5 54t-67.5 23q-40 0 -65 -19t-25 -51
l-57 5q0 52 36.5 85t105.5 33z" />
    <glyph glyph-name="a.sc" horiz-adv-x="512" 
d="M425 0l-52 136h-234l-52 -136h-65l198 507h73l198 -507h-66zM257 445l-100 -259h199z" />
    <glyph glyph-name="b.sc" horiz-adv-x="493" 
d="M82 0v507h167q83 0 124.5 -34t41.5 -94q0 -45 -23.5 -75t-62.5 -38q48 -7 80.5 -39t32.5 -87q0 -140 -186 -140h-174zM142 51h106q69 0 100.5 22t31.5 70q0 93 -132 93h-106v-185zM142 287h97q112 0 112 89q0 80 -112 80h-97v-169z" />
    <glyph glyph-name="c.sc" horiz-adv-x="496" 
d="M117 253q0 -208 161 -208q41 0 75 17t50 47l48 -30q-22 -39 -68.5 -63t-106.5 -24q-111 0 -166 68.5t-55 192.5q0 125 55 193.5t166 68.5q60 0 106.5 -24t68.5 -63l-48 -31q-16 30 -50 47.5t-75 17.5q-161 0 -161 -209z" />
    <glyph glyph-name="d.sc" horiz-adv-x="548" 
d="M82 0v507h150q139 0 199.5 -59t60.5 -194q0 -134 -61 -194t-199 -60h-150zM142 51h88q112 0 156 45.5t44 157.5q0 110 -44 156t-156 46h-88v-405z" />
    <glyph glyph-name="e.sc" horiz-adv-x="463" 
d="M142 51h266v-51h-326v507h323v-51h-263v-171h235v-51h-235v-183z" />
    <glyph glyph-name="f.sc" horiz-adv-x="447" 
d="M82 0v507h319v-51h-259v-185h222v-51h-222v-220h-60z" />
    <glyph glyph-name="g.sc" horiz-adv-x="536" 
d="M287 218v52h199q3 -30 3 -35q0 -110 -49.5 -176.5t-159.5 -66.5q-225 0 -225 261q0 262 235 262q119 0 171 -85l-46 -31q-43 63 -127 63q-94 0 -132.5 -54t-38.5 -155q0 -103 38.5 -156t124.5 -53q147 0 147 174h-140z" />
    <glyph glyph-name="h.sc" horiz-adv-x="571" 
d="M429 292v215h60v-507h-60v241h-287v-241h-60v507h60v-215h287z" />
    <glyph glyph-name="i.sc" horiz-adv-x="224" 
d="M82 0v507h60v-507h-60z" />
    <glyph glyph-name="j.sc" horiz-adv-x="416" 
d="M29 68l46 29q31 -52 96 -52q54 0 82 30.5t28 101.5v330h58v-331q0 -94 -44.5 -139t-123.5 -45q-98 0 -142 76z" />
    <glyph glyph-name="k.sc" horiz-adv-x="511" 
d="M230 254l-88 -81v-173h-60v507h60v-256l265 256h77l-211 -210l211 -297h-75z" />
    <glyph glyph-name="l.sc" horiz-adv-x="407" 
d="M142 51h239v-51h-299v507h60v-456z" />
    <glyph glyph-name="m.sc" horiz-adv-x="717" 
d="M359 76l154 431h81l73 -507h-59l-62 436l-155 -436h-66l-153 436l-63 -436h-60l76 507h83z" />
    <glyph glyph-name="n.sc" horiz-adv-x="576" 
d="M434 97v410h60v-507h-63l-289 413l1 -413h-61v507h65z" />
    <glyph glyph-name="o.sc" horiz-adv-x="551" 
d="M117 253q0 -100 36 -154t121 -54q87 0 123.5 54t36.5 154t-36.5 154.5t-122.5 54.5q-158 0 -158 -209zM496 253q0 -121 -54 -191t-168 -70t-166.5 70t-52.5 191t53 191.5t167 70.5t167.5 -70.5t53.5 -191.5z" />
    <glyph glyph-name="p.sc" horiz-adv-x="476" 
d="M252 202h-110v-202h-60v507h170q91 0 136 -40t45 -112t-45 -112.5t-136 -40.5zM142 456v-203h107q122 0 122 102q0 101 -122 101h-107z" />
    <glyph glyph-name="q.sc" horiz-adv-x="551" 
d="M496 253q0 -99 -35 -163l68 -60l-35 -38l-63 57q-57 -57 -157 -57q-114 0 -166.5 70t-52.5 191t53 191.5t167 70.5t167.5 -70.5t53.5 -191.5zM117 253q0 -100 36 -154t121 -54q77 0 115 43l-136 124l33 36l129 -117q19 45 19 122q0 100 -36.5 154.5t-122.5 54.5
q-158 0 -158 -209z" />
    <glyph glyph-name="r.sc" horiz-adv-x="505" 
d="M82 0v507h185q186 0 186 -140q0 -59 -37.5 -94.5t-107.5 -42.5l160 -230h-69l-154 225h-103v-225h-60zM391 367q0 89 -128 89h-121v-180h121q128 0 128 91z" />
    <glyph glyph-name="s.sc" horiz-adv-x="463" 
d="M404 441l-45 -33q-38 54 -122 54q-54 0 -83 -25.5t-29 -65.5q0 -32 20 -50t63 -30l74 -20q131 -37 131 -132q0 -66 -49 -106.5t-135 -40.5q-137 0 -186 96l47 31q16 -35 46.5 -54.5t92.5 -19.5q60 0 90.5 24t30.5 67q0 58 -88 82l-74 19q-126 37 -126 131q0 61 45.5 104
t129.5 43q61 0 104 -21t63 -53z" />
    <glyph glyph-name="t.sc" horiz-adv-x="450" 
d="M34 507h382v-51h-160v-456h-61v456h-161v51z" />
    <glyph glyph-name="u.sc" horiz-adv-x="553" 
d="M276 -8q-199 0 -199 196v319h60v-321q0 -74 35 -107.5t104 -33.5q68 0 103.5 33.5t35.5 107.5v321h61v-319q0 -102 -53.5 -149t-146.5 -47z" />
    <glyph glyph-name="v.sc" horiz-adv-x="502" 
d="M411 507h65l-187 -507h-77l-186 507h64l161 -445z" />
    <glyph glyph-name="w.sc" horiz-adv-x="806" 
d="M367 507h71l138 -438l135 438h64l-160 -507h-76l-137 425l-136 -425h-75l-161 507h65l135 -438z" />
    <glyph glyph-name="x.sc" horiz-adv-x="484" 
d="M36 507h70l135 -204l136 204h71l-166 -245l175 -262h-71l-145 217l-144 -217h-71l175 262z" />
    <glyph glyph-name="y.sc" horiz-adv-x="482" 
d="M271 0h-60v203l-188 304h68l150 -248l150 248h69l-189 -304v-203z" />
    <glyph glyph-name="z.sc" horiz-adv-x="439" 
d="M388 507v-46l-275 -410h280v-51h-353v45l275 411h-259v51h332z" />
    <glyph glyph-name="agrave.sc" horiz-adv-x="512" 
d="M425 0l-52 136h-234l-52 -136h-65l198 507h73l198 -507h-66zM257 445l-100 -259h199zM141 726h66l78 -151h-57z" />
    <glyph glyph-name="aacute.sc" horiz-adv-x="512" 
d="M425 0l-52 136h-234l-52 -136h-65l198 507h73l198 -507h-66zM257 445l-100 -259h199zM306 726h66l-87 -151h-57z" />
    <glyph glyph-name="acircumflex.sc" horiz-adv-x="512" 
d="M425 0l-52 136h-234l-52 -136h-65l198 507h73l198 -507h-66zM257 445l-100 -259h199zM226 726h61l102 -151h-57l-76 107l-75 -107h-57z" />
    <glyph glyph-name="atilde.sc" horiz-adv-x="512" 
d="M425 0l-52 136h-234l-52 -136h-65l198 507h73l198 -507h-66zM257 445l-100 -259h199zM391 656l-8 -49q-28 25 -59 25q-21 0 -64 -18.5t-72 -18.5q-44 0 -66 26l8 48q23 -25 58 -25q23 0 64 19t72 19q36 0 67 -26z" />
    <glyph glyph-name="adieresis.sc" horiz-adv-x="512" 
d="M425 0l-52 136h-234l-52 -136h-65l198 507h73l198 -507h-66zM257 445l-100 -259h199zM169 600q-47 0 -47 46q0 47 47 47q20 0 33.5 -12t13.5 -35t-13.5 -34.5t-33.5 -11.5zM345 600q-47 0 -47 46q0 47 47 47q20 0 33.5 -12t13.5 -35t-13.5 -34.5t-33.5 -11.5z" />
    <glyph glyph-name="amacron.sc" horiz-adv-x="512" 
d="M425 0l-52 136h-234l-52 -136h-65l198 507h73l198 -507h-66zM257 445l-100 -259h199zM122 663h270v-53h-270v53z" />
    <glyph glyph-name="abreve.sc" horiz-adv-x="512" 
d="M425 0l-52 136h-234l-52 -136h-65l198 507h73l198 -507h-66zM257 445l-100 -259h199zM340 701h47q0 -58 -35.5 -95t-94.5 -37q-58 0 -93.5 37t-35.5 95h45q2 -37 23.5 -60.5t60.5 -23.5t60.5 23.5t22.5 60.5z" />
    <glyph glyph-name="aring.sc" horiz-adv-x="512" 
d="M425 0l-52 136h-234l-52 -136h-65l198 507h73l198 -507h-66zM257 445l-100 -259h199zM156 651q0 41 27.5 66.5t73.5 25.5q47 0 74.5 -25.5t27.5 -66.5q0 -40 -27.5 -66t-74.5 -26q-46 0 -73.5 26t-27.5 66zM201 651q0 -24 15 -38.5t41 -14.5t41.5 14.5t15.5 38.5
t-15.5 38.5t-41.5 14.5t-41 -14.5t-15 -38.5z" />
    <glyph glyph-name="aringacute.sc" horiz-adv-x="512" 
d="M155 651q0 36 23 60t61 29l59 77h65l-68 -81q29 -9 46 -32t17 -53q0 -40 -28 -66t-74 -26q-45 0 -73 26t-28 66zM199 651q0 -24 15.5 -38.5t41.5 -14.5q27 0 42 14.5t15 38.5t-15 39t-42 15q-26 0 -41.5 -15t-15.5 -39zM425 0l-52 136h-234l-52 -136h-65l198 507h73
l198 -507h-66zM257 445l-100 -259h199z" />
    <glyph glyph-name="aogonek.sc" horiz-adv-x="511" 
d="M490 0l-77 -62q-34 -29 -34 -59q0 -17 13 -30.5t37 -13.5q27 0 61 25v-54q-32 -22 -73 -22q-46 0 -72.5 24.5t-26.5 62.5q0 50 50 90l54 44l-50 131h-234l-52 -136h-65l198 507h73zM256 445l-100 -259h199z" />
    <glyph glyph-name="ae.sc" horiz-adv-x="796" 
d="M475 51h266v-51h-327v136h-226l-105 -136h-75l398 507h332v-51h-263v-171h234v-51h-234v-183zM227 186h187v241z" />
    <glyph glyph-name="aeacute.sc" horiz-adv-x="796" 
d="M593 726h66l-87 -151h-57zM475 51h266v-51h-327v136h-226l-105 -136h-75l398 507h332v-51h-263v-171h234v-51h-234v-183zM227 186h187v241z" />
    <glyph glyph-name="cacute.sc" horiz-adv-x="496" 
d="M117 253q0 -208 161 -208q41 0 75 17t50 47l48 -30q-22 -39 -68.5 -63t-106.5 -24q-111 0 -166 68.5t-55 192.5q0 125 55 193.5t166 68.5q60 0 106.5 -24t68.5 -63l-48 -31q-16 30 -50 47.5t-75 17.5q-161 0 -161 -209zM317 726h66l-87 -151h-57z" />
    <glyph glyph-name="ccircumflex.sc" horiz-adv-x="496" 
d="M117 253q0 -208 161 -208q41 0 75 17t50 47l48 -30q-22 -39 -68.5 -63t-106.5 -24q-111 0 -166 68.5t-55 192.5q0 125 55 193.5t166 68.5q60 0 106.5 -24t68.5 -63l-48 -31q-16 30 -50 47.5t-75 17.5q-161 0 -161 -209zM240 726h61l102 -151h-57l-76 107l-75 -107h-57z
" />
    <glyph glyph-name="ccaron.sc" horiz-adv-x="496" 
d="M117 253q0 -208 161 -208q41 0 75 17t50 47l48 -30q-22 -39 -68.5 -63t-106.5 -24q-111 0 -166 68.5t-55 192.5q0 125 55 193.5t166 68.5q60 0 106.5 -24t68.5 -63l-48 -31q-16 30 -50 47.5t-75 17.5q-161 0 -161 -209zM301 575h-61l-102 151h57l76 -107l75 107h57z" />
    <glyph glyph-name="cdotaccent.sc" horiz-adv-x="496" 
d="M117 253q0 -208 161 -208q41 0 75 17t50 47l48 -30q-22 -39 -68.5 -63t-106.5 -24q-111 0 -166 68.5t-55 192.5q0 125 55 193.5t166 68.5q60 0 106.5 -24t68.5 -63l-48 -31q-16 30 -50 47.5t-75 17.5q-161 0 -161 -209zM271 600q-47 0 -47 46q0 47 47 47q20 0 33.5 -12
t13.5 -35t-13.5 -34.5t-33.5 -11.5z" />
    <glyph glyph-name="ccedilla.sc" horiz-adv-x="496" 
d="M117 253q0 -208 161 -208q41 0 75 17t50 47l48 -30q-44 -76 -148 -85l-19 -51q40 0 65 -19.5t25 -61.5q0 -31 -25.5 -54.5t-71.5 -23.5q-37 0 -81 22v49q37 -27 78 -27q22 0 34 10t12 24q0 39 -60 39h-31l-3 5l28 87q-100 7 -149.5 75t-49.5 185q0 125 55 193.5t166 68.5
q60 0 106.5 -24t68.5 -63l-48 -31q-16 30 -50 47.5t-75 17.5q-161 0 -161 -209z" />
    <glyph glyph-name="dcaron.sc" horiz-adv-x="548" 
d="M82 0v507h150q139 0 199.5 -59t60.5 -194q0 -134 -61 -194t-199 -60h-150zM142 51h88q112 0 156 45.5t44 157.5q0 110 -44 156t-156 46h-88v-405zM285 575h-61l-102 151h57l76 -107l75 107h57z" />
    <glyph glyph-name="dcroat.sc" horiz-adv-x="556" 
d="M27 283h63v224h150q139 0 199.5 -59t60.5 -194q0 -134 -61 -194t-199 -60h-150v233h-63v50zM150 51h88q112 0 156 45.5t44 157.5q0 110 -44 156t-156 46h-88v-173h118v-50h-118v-182z" />
    <glyph glyph-name="eth.sc" horiz-adv-x="556" 
d="M27 283h63v224h150q139 0 199.5 -59t60.5 -194q0 -134 -61 -194t-199 -60h-150v233h-63v50zM150 51h88q112 0 156 45.5t44 157.5q0 110 -44 156t-156 46h-88v-173h118v-50h-118v-182z" />
    <glyph glyph-name="egrave.sc" horiz-adv-x="463" 
d="M142 51h266v-51h-326v507h323v-51h-263v-171h235v-51h-235v-183zM130 726h66l78 -151h-57z" />
    <glyph glyph-name="eacute.sc" horiz-adv-x="463" 
d="M142 51h266v-51h-326v507h323v-51h-263v-171h235v-51h-235v-183zM288 726h66l-87 -151h-57z" />
    <glyph glyph-name="ecircumflex.sc" horiz-adv-x="463" 
d="M142 51h266v-51h-326v507h323v-51h-263v-171h235v-51h-235v-183zM210 726h61l102 -151h-57l-76 107l-75 -107h-57z" />
    <glyph glyph-name="ecaron.sc" horiz-adv-x="463" 
d="M142 51h266v-51h-326v507h323v-51h-263v-171h235v-51h-235v-183zM271 575h-61l-102 151h57l76 -107l75 107h57z" />
    <glyph glyph-name="edieresis.sc" horiz-adv-x="463" 
d="M142 51h266v-51h-326v507h323v-51h-263v-171h235v-51h-235v-183zM153 600q-47 0 -47 46q0 47 47 47q20 0 33.5 -12t13.5 -35t-13.5 -34.5t-33.5 -11.5zM329 600q-47 0 -47 46q0 47 47 47q20 0 33.5 -12t13.5 -35t-13.5 -34.5t-33.5 -11.5z" />
    <glyph glyph-name="emacron.sc" horiz-adv-x="463" 
d="M142 51h266v-51h-326v507h323v-51h-263v-171h235v-51h-235v-183zM106 663h270v-53h-270v53z" />
    <glyph glyph-name="ebreve.sc" horiz-adv-x="463" 
d="M142 51h266v-51h-326v507h323v-51h-263v-171h235v-51h-235v-183zM323 701h47q0 -58 -35.5 -95t-94.5 -37q-58 0 -93.5 37t-35.5 95h45q2 -37 23.5 -60.5t60.5 -23.5t60.5 23.5t22.5 60.5z" />
    <glyph glyph-name="edotaccent.sc" horiz-adv-x="463" 
d="M142 51h266v-51h-326v507h323v-51h-263v-171h235v-51h-235v-183zM241 600q-47 0 -47 46q0 47 47 47q20 0 33.5 -12t13.5 -35t-13.5 -34.5t-33.5 -11.5z" />
    <glyph glyph-name="eogonek.sc" horiz-adv-x="462" 
d="M141 51h266v-51l-77 -62q-34 -29 -34 -59q0 -17 13 -30.5t37 -13.5q27 0 61 25v-54q-32 -22 -73 -22q-46 0 -72.5 24.5t-26.5 62.5q0 50 50 90l48 39h-252v507h323v-51h-263v-171h235v-51h-235v-183z" />
    <glyph glyph-name="gcircumflex.sc" horiz-adv-x="536" 
d="M287 218v52h199q3 -30 3 -35q0 -110 -49.5 -176.5t-159.5 -66.5q-225 0 -225 261q0 262 235 262q119 0 171 -85l-46 -31q-43 63 -127 63q-94 0 -132.5 -54t-38.5 -155q0 -103 38.5 -156t124.5 -53q147 0 147 174h-140zM246 726h61l102 -151h-57l-76 107l-75 -107h-57z
" />
    <glyph glyph-name="gbreve.sc" horiz-adv-x="536" 
d="M287 218v52h199q3 -30 3 -35q0 -110 -49.5 -176.5t-159.5 -66.5q-225 0 -225 261q0 262 235 262q119 0 171 -85l-46 -31q-43 63 -127 63q-94 0 -132.5 -54t-38.5 -155q0 -103 38.5 -156t124.5 -53q147 0 147 174h-140zM359 701h47q0 -58 -35.5 -95t-94.5 -37
q-58 0 -93.5 37t-35.5 95h45q2 -37 23.5 -60.5t60.5 -23.5t60.5 23.5t22.5 60.5z" />
    <glyph glyph-name="gdotaccent.sc" horiz-adv-x="536" 
d="M287 218v52h199q3 -30 3 -35q0 -110 -49.5 -176.5t-159.5 -66.5q-225 0 -225 261q0 262 235 262q119 0 171 -85l-46 -31q-43 63 -127 63q-94 0 -132.5 -54t-38.5 -155q0 -103 38.5 -156t124.5 -53q147 0 147 174h-140zM276 600q-47 0 -47 46q0 47 47 47q20 0 33.5 -12
t13.5 -35t-13.5 -34.5t-33.5 -11.5z" />
    <glyph glyph-name="gcommaaccent.sc" horiz-adv-x="536" 
d="M287 218v52h199q3 -30 3 -35q0 -110 -49.5 -176.5t-159.5 -66.5q-225 0 -225 261q0 262 235 262q119 0 171 -85l-46 -31q-43 63 -127 63q-94 0 -132.5 -54t-38.5 -155q0 -103 38.5 -156t124.5 -53q147 0 147 174h-140zM317 -70l-48 -146h-48l25 146h71z" />
    <glyph glyph-name="hcircumflex.sc" horiz-adv-x="571" 
d="M429 292v215h60v-507h-60v241h-287v-241h-60v507h60v-215h287zM255 726h61l102 -151h-57l-76 107l-75 -107h-57z" />
    <glyph glyph-name="hbar.sc" horiz-adv-x="572" 
d="M38 420h45v87h59v-87h287v87h61v-87h41v-47h-41v-373h-61v241h-287v-241h-59v373h-45v47zM429 292v81h-287v-81h287z" />
    <glyph glyph-name="igrave.sc" horiz-adv-x="224" 
d="M82 0v507h60v-507h-60zM-4 726h66l78 -151h-57z" />
    <glyph glyph-name="iacute.sc" horiz-adv-x="224" 
d="M82 0v507h60v-507h-60zM161 726h66l-87 -151h-57z" />
    <glyph glyph-name="ibreve.sc" horiz-adv-x="224" 
d="M82 0v507h60v-507h-60zM195 701h47q0 -58 -35.5 -95t-94.5 -37q-58 0 -93.5 37t-35.5 95h45q2 -37 23.5 -60.5t60.5 -23.5t60.5 23.5t22.5 60.5z" />
    <glyph glyph-name="icircumflex.sc" horiz-adv-x="224" 
d="M82 0v507h60v-507h-60zM82 726h61l102 -151h-57l-76 107l-75 -107h-57z" />
    <glyph glyph-name="itilde.sc" horiz-adv-x="224" 
d="M82 0v507h60v-507h-60zM247 656l-8 -49q-28 25 -59 25q-21 0 -64 -18.5t-72 -18.5q-44 0 -66 26l8 48q23 -25 58 -25q23 0 64 19t72 19q36 0 67 -26z" />
    <glyph glyph-name="idieresis.sc" horiz-adv-x="224" 
d="M82 0v507h60v-507h-60zM24 600q-47 0 -47 46q0 47 47 47q20 0 33.5 -12t13.5 -35t-13.5 -34.5t-33.5 -11.5zM200 600q-47 0 -47 46q0 47 47 47q20 0 33.5 -12t13.5 -35t-13.5 -34.5t-33.5 -11.5z" />
    <glyph glyph-name="imacron.sc" horiz-adv-x="224" 
d="M82 0v507h60v-507h-60zM-23 663h270v-53h-270v53z" />
    <glyph glyph-name="idotaccent.sc" horiz-adv-x="224" 
d="M82 0v507h60v-507h-60zM112 600q-47 0 -47 46q0 47 47 47q20 0 33.5 -12t13.5 -35t-13.5 -34.5t-33.5 -11.5z" />
    <glyph glyph-name="iogonek.sc" horiz-adv-x="224" 
d="M142 0l-77 -62q-34 -29 -34 -59q0 -17 13 -30.5t37 -13.5q27 0 61 25v-54q-32 -22 -73 -22q-46 0 -72.5 24.5t-26.5 62.5q0 50 50 90l62 50v496h60v-507z" />
    <glyph glyph-name="jcircumflex.sc" horiz-adv-x="417" 
d="M30 68l46 29q31 -52 96 -52q54 0 82 30.5t28 101.5v330h58v-331q0 -94 -44.5 -139t-123.5 -45q-98 0 -142 76zM279 726h61l102 -151h-57l-76 107l-75 -107h-57z" />
    <glyph glyph-name="kcommaaccent.sc" horiz-adv-x="511" 
d="M230 254l-88 -81v-173h-60v507h60v-256l265 256h77l-211 -210l211 -297h-75zM284 -70l-48 -146h-48l25 146h71z" />
    <glyph glyph-name="lacute.sc" horiz-adv-x="407" 
d="M142 51h239v-51h-299v507h60v-456zM162 726h66l-87 -151h-57z" />
    <glyph glyph-name="lcaron.sc" horiz-adv-x="430" 
d="M142 51h239v-51h-299v507h60v-456zM395 507l-47 -149h-47l25 149h69z" />
    <glyph glyph-name="lcommaaccent.sc" horiz-adv-x="407" 
d="M142 51h239v-51h-299v507h60v-456zM258 -70l-48 -146h-48l25 146h71z" />
    <glyph glyph-name="lslash.sc" horiz-adv-x="416" 
d="M151 51h239v-51h-299v205l-64 -27v53l64 27v249h60v-224l78 33v-53l-78 -33v-179z" />
    <glyph glyph-name="ldot.sc" horiz-adv-x="436" 
d="M142 51h239v-51h-299v507h60v-456zM324 231q-47 0 -47 46q0 47 47 47q20 0 33.5 -12t13.5 -35t-13.5 -34.5t-33.5 -11.5z" />
    <glyph glyph-name="nacute.sc" horiz-adv-x="576" 
d="M434 97v410h60v-507h-63l-289 413l1 -413h-61v507h65zM339 726h66l-87 -151h-57z" />
    <glyph glyph-name="ncaron.sc" horiz-adv-x="576" 
d="M434 97v410h60v-507h-63l-289 413l1 -413h-61v507h65zM319 575h-61l-102 151h57l76 -107l75 107h57z" />
    <glyph glyph-name="ntilde.sc" horiz-adv-x="576" 
d="M434 97v410h60v-507h-63l-289 413l1 -413h-61v507h65zM423 656l-8 -49q-28 25 -59 25q-21 0 -64 -18.5t-72 -18.5q-44 0 -66 26l8 48q23 -25 58 -25q23 0 64 19t72 19q36 0 67 -26z" />
    <glyph glyph-name="ncommaaccent.sc" horiz-adv-x="576" 
d="M434 97v410h60v-507h-63l-289 413l1 -413h-61v507h65zM327 -70l-48 -146h-48l25 146h71z" />
    <glyph glyph-name="ograve.sc" horiz-adv-x="551" 
d="M117 253q0 -100 36 -154t121 -54q87 0 123.5 54t36.5 154t-36.5 154.5t-122.5 54.5q-158 0 -158 -209zM496 253q0 -121 -54 -191t-168 -70t-166.5 70t-52.5 191t53 191.5t167 70.5t167.5 -70.5t53.5 -191.5zM165 726h66l78 -151h-57z" />
    <glyph glyph-name="oacute.sc" horiz-adv-x="551" 
d="M117 253q0 -100 36 -154t121 -54q87 0 123.5 54t36.5 154t-36.5 154.5t-122.5 54.5q-158 0 -158 -209zM496 253q0 -121 -54 -191t-168 -70t-166.5 70t-52.5 191t53 191.5t167 70.5t167.5 -70.5t53.5 -191.5zM324 726h66l-87 -151h-57z" />
    <glyph glyph-name="ocircumflex.sc" horiz-adv-x="551" 
d="M117 253q0 -100 36 -154t121 -54q87 0 123.5 54t36.5 154t-36.5 154.5t-122.5 54.5q-158 0 -158 -209zM496 253q0 -121 -54 -191t-168 -70t-166.5 70t-52.5 191t53 191.5t167 70.5t167.5 -70.5t53.5 -191.5zM245 726h61l102 -151h-57l-76 107l-75 -107h-57z" />
    <glyph glyph-name="otilde.sc" horiz-adv-x="551" 
d="M117 253q0 -100 36 -154t121 -54q87 0 123.5 54t36.5 154t-36.5 154.5t-122.5 54.5q-158 0 -158 -209zM496 253q0 -121 -54 -191t-168 -70t-166.5 70t-52.5 191t53 191.5t167 70.5t167.5 -70.5t53.5 -191.5zM410 656l-8 -49q-28 25 -59 25q-21 0 -64 -18.5t-72 -18.5
q-44 0 -66 26l8 48q23 -25 58 -25q23 0 64 19t72 19q36 0 67 -26z" />
    <glyph glyph-name="odieresis.sc" horiz-adv-x="551" 
d="M117 253q0 -100 36 -154t121 -54q87 0 123.5 54t36.5 154t-36.5 154.5t-122.5 54.5q-158 0 -158 -209zM496 253q0 -121 -54 -191t-168 -70t-166.5 70t-52.5 191t53 191.5t167 70.5t167.5 -70.5t53.5 -191.5zM188 600q-47 0 -47 46q0 47 47 47q20 0 33.5 -12t13.5 -35
t-13.5 -34.5t-33.5 -11.5zM364 600q-47 0 -47 46q0 47 47 47q20 0 33.5 -12t13.5 -35t-13.5 -34.5t-33.5 -11.5z" />
    <glyph glyph-name="omacron.sc" horiz-adv-x="551" 
d="M117 253q0 -100 36 -154t121 -54q87 0 123.5 54t36.5 154t-36.5 154.5t-122.5 54.5q-158 0 -158 -209zM496 253q0 -121 -54 -191t-168 -70t-166.5 70t-52.5 191t53 191.5t167 70.5t167.5 -70.5t53.5 -191.5zM141 663h270v-53h-270v53z" />
    <glyph glyph-name="obreve.sc" horiz-adv-x="551" 
d="M117 253q0 -100 36 -154t121 -54q87 0 123.5 54t36.5 154t-36.5 154.5t-122.5 54.5q-158 0 -158 -209zM496 253q0 -121 -54 -191t-168 -70t-166.5 70t-52.5 191t53 191.5t167 70.5t167.5 -70.5t53.5 -191.5zM358 701h47q0 -58 -35.5 -95t-94.5 -37q-58 0 -93.5 37
t-35.5 95h45q2 -37 23.5 -60.5t60.5 -23.5t60.5 23.5t22.5 60.5z" />
    <glyph glyph-name="ohungarumlaut.sc" horiz-adv-x="551" 
d="M117 253q0 -100 36 -154t121 -54q87 0 123.5 54t36.5 154t-36.5 154.5t-122.5 54.5q-158 0 -158 -209zM496 253q0 -121 -54 -191t-168 -70t-166.5 70t-52.5 191t53 191.5t167 70.5t167.5 -70.5t53.5 -191.5zM251 726h66l-87 -151h-57zM393 726h66l-87 -151h-57z" />
    <glyph glyph-name="oslash.sc" horiz-adv-x="551" 
d="M496 253q0 -121 -54 -191t-168 -70q-88 0 -140 43l-26 -35h-58l52 69q-47 66 -47 184q0 121 53 191.5t167 70.5q82 0 136 -40l24 32h61l-51 -67q51 -67 51 -187zM434 253q0 87 -27 138l-238 -311q37 -35 105 -35q87 0 123.5 54t36.5 154zM117 253q0 -85 24 -134l236 311
q-37 32 -102 32q-158 0 -158 -209z" />
    <glyph glyph-name="oslashacute.sc" horiz-adv-x="551" 
d="M321 726h66l-87 -151h-57zM496 253q0 -121 -54 -191t-168 -70q-88 0 -140 43l-26 -35h-58l52 69q-47 66 -47 184q0 121 53 191.5t167 70.5q82 0 136 -40l24 32h61l-51 -67q51 -67 51 -187zM434 253q0 87 -27 138l-238 -311q37 -35 105 -35q87 0 123.5 54t36.5 154z
M117 253q0 -85 24 -134l236 311q-37 32 -102 32q-158 0 -158 -209z" />
    <glyph glyph-name="oe.sc" horiz-adv-x="728" 
d="M408 51h265v-51h-320q-31 -8 -79 -8q-114 0 -166.5 70t-52.5 191t53 191.5t167 70.5q47 0 78 -8h317v-51h-262v-171h234v-51h-234v-183zM274 45q44 0 73 10v396q-31 11 -72 11q-158 0 -158 -209q0 -100 36 -154t121 -54z" />
    <glyph glyph-name="racute.sc" horiz-adv-x="505" 
d="M82 0v507h185q186 0 186 -140q0 -59 -37.5 -94.5t-107.5 -42.5l160 -230h-69l-154 225h-103v-225h-60zM391 367q0 89 -128 89h-121v-180h121q128 0 128 91zM281 726h66l-87 -151h-57z" />
    <glyph glyph-name="rcaron.sc" horiz-adv-x="505" 
d="M82 0v507h185q186 0 186 -140q0 -59 -37.5 -94.5t-107.5 -42.5l160 -230h-69l-154 225h-103v-225h-60zM391 367q0 89 -128 89h-121v-180h121q128 0 128 91zM264 575h-61l-102 151h57l76 -107l75 107h57z" />
    <glyph glyph-name="rcommaaccent.sc" horiz-adv-x="505" 
d="M82 0v507h185q186 0 186 -140q0 -59 -37.5 -94.5t-107.5 -42.5l160 -230h-69l-154 225h-103v-225h-60zM391 367q0 89 -128 89h-121v-180h121q128 0 128 91zM278 -70l-48 -146h-48l25 146h71z" />
    <glyph glyph-name="sacute.sc" horiz-adv-x="463" 
d="M404 441l-45 -33q-38 54 -122 54q-54 0 -83 -25.5t-29 -65.5q0 -32 20 -50t63 -30l74 -20q131 -37 131 -132q0 -66 -49 -106.5t-135 -40.5q-137 0 -186 96l47 31q16 -35 46.5 -54.5t92.5 -19.5q60 0 90.5 24t30.5 67q0 58 -88 82l-74 19q-126 37 -126 131q0 61 45.5 104
t129.5 43q61 0 104 -21t63 -53zM282 726h66l-87 -151h-57z" />
    <glyph glyph-name="scircumflex.sc" horiz-adv-x="463" 
d="M404 441l-45 -33q-38 54 -122 54q-54 0 -83 -25.5t-29 -65.5q0 -32 20 -50t63 -30l74 -20q131 -37 131 -132q0 -66 -49 -106.5t-135 -40.5q-137 0 -186 96l47 31q16 -35 46.5 -54.5t92.5 -19.5q60 0 90.5 24t30.5 67q0 58 -88 82l-74 19q-126 37 -126 131q0 61 45.5 104
t129.5 43q61 0 104 -21t63 -53zM202 726h61l102 -151h-57l-76 107l-75 -107h-57z" />
    <glyph glyph-name="scaron.sc" horiz-adv-x="463" 
d="M404 441l-45 -33q-38 54 -122 54q-54 0 -83 -25.5t-29 -65.5q0 -32 20 -50t63 -30l74 -20q131 -37 131 -132q0 -66 -49 -106.5t-135 -40.5q-137 0 -186 96l47 31q16 -35 46.5 -54.5t92.5 -19.5q60 0 90.5 24t30.5 67q0 58 -88 82l-74 19q-126 37 -126 131q0 61 45.5 104
t129.5 43q61 0 104 -21t63 -53zM263 575h-61l-102 151h57l76 -107l75 107h57z" />
    <glyph glyph-name="scedilla.sc" horiz-adv-x="463" 
d="M404 441l-45 -33q-38 54 -122 54q-54 0 -83 -25.5t-29 -65.5q0 -32 20 -50t63 -30l74 -20q131 -37 131 -132q0 -60 -41 -99t-114 -46l-19 -51q40 0 65 -19.5t25 -61.5q0 -31 -25.5 -54.5t-71.5 -23.5q-37 0 -81 22v49q37 -27 78 -27q22 0 34 10t12 24q0 39 -60 39h-31
l-3 5l28 87q-73 3 -109.5 29.5t-56.5 65.5l47 31q16 -35 46.5 -54.5t92.5 -19.5q60 0 90.5 24t30.5 67q0 58 -88 82l-74 19q-126 37 -126 131q0 61 45.5 104t129.5 43q61 0 104 -21t63 -53z" />
    <glyph glyph-name="scommaaccent.sc" horiz-adv-x="463" 
d="M404 441l-45 -33q-38 54 -122 54q-54 0 -83 -25.5t-29 -65.5q0 -32 20 -50t63 -30l74 -20q131 -37 131 -132q0 -66 -49 -106.5t-135 -40.5q-137 0 -186 96l47 31q16 -35 46.5 -54.5t92.5 -19.5q60 0 90.5 24t30.5 67q0 58 -88 82l-74 19q-126 37 -126 131q0 61 45.5 104
t129.5 43q61 0 104 -21t63 -53zM272 -70l-48 -146h-48l25 146h71z" />
    <glyph glyph-name="tcaron.sc" horiz-adv-x="451" 
d="M34 507h382v-51h-160v-456h-61v456h-161v51zM256 575h-61l-102 151h57l76 -107l75 107h57z" />
    <glyph glyph-name="tcommaaccent.sc" horiz-adv-x="450" 
d="M34 507h382v-51h-160v-456h-7l-22 -57q40 0 65 -19.5t25 -61.5q0 -31 -25.5 -54.5t-71.5 -23.5q-37 0 -81 22v49q37 -27 78 -27q22 0 34 10t12 24q0 39 -60 39h-31l-3 5l30 94h-4v456h-161v51z" />
    <glyph glyph-name="uni021A.sc" horiz-adv-x="454" 
d="M262 -70l-48 -146h-48l25 146h71zM36 507h382v-51h-160v-456h-61v456h-161v51z" />
    <glyph glyph-name="tbar.sc" horiz-adv-x="457" 
d="M108 274h90v182h-161v51h382v-51h-160v-182h90v-50h-90v-224h-61v224h-90v50z" />
    <glyph glyph-name="thorn.sc" horiz-adv-x="476" 
d="M252 101h-110v-101h-60v507h60v-101h110q91 0 136 -40t45 -112t-45 -112.5t-136 -40.5zM142 355v-203h107q122 0 122 102q0 101 -122 101h-107z" />
    <glyph glyph-name="ugrave.sc" horiz-adv-x="553" 
d="M276 -8q-199 0 -199 196v319h60v-321q0 -74 35 -107.5t104 -33.5q68 0 103.5 33.5t35.5 107.5v321h61v-319q0 -102 -53.5 -149t-146.5 -47zM162 726h66l78 -151h-57z" />
    <glyph glyph-name="uacute.sc" horiz-adv-x="553" 
d="M276 -8q-199 0 -199 196v319h60v-321q0 -74 35 -107.5t104 -33.5q68 0 103.5 33.5t35.5 107.5v321h61v-319q0 -102 -53.5 -149t-146.5 -47zM323 726h66l-87 -151h-57z" />
    <glyph glyph-name="ucircumflex.sc" horiz-adv-x="553" 
d="M276 -8q-199 0 -199 196v319h60v-321q0 -74 35 -107.5t104 -33.5q68 0 103.5 33.5t35.5 107.5v321h61v-319q0 -102 -53.5 -149t-146.5 -47zM246 726h61l102 -151h-57l-76 107l-75 -107h-57z" />
    <glyph glyph-name="utilde.sc" horiz-adv-x="553" 
d="M276 -8q-199 0 -199 196v319h60v-321q0 -74 35 -107.5t104 -33.5q68 0 103.5 33.5t35.5 107.5v321h61v-319q0 -102 -53.5 -149t-146.5 -47zM411 656l-8 -49q-28 25 -59 25q-21 0 -64 -18.5t-72 -18.5q-44 0 -66 26l8 48q23 -25 58 -25q23 0 64 19t72 19q36 0 67 -26z" />
    <glyph glyph-name="udieresis.sc" horiz-adv-x="553" 
d="M276 -8q-199 0 -199 196v319h60v-321q0 -74 35 -107.5t104 -33.5q68 0 103.5 33.5t35.5 107.5v321h61v-319q0 -102 -53.5 -149t-146.5 -47zM188 600q-47 0 -47 46q0 47 47 47q20 0 33.5 -12t13.5 -35t-13.5 -34.5t-33.5 -11.5zM364 600q-47 0 -47 46q0 47 47 47
q20 0 33.5 -12t13.5 -35t-13.5 -34.5t-33.5 -11.5z" />
    <glyph glyph-name="umacron.sc" horiz-adv-x="553" 
d="M276 -8q-199 0 -199 196v319h60v-321q0 -74 35 -107.5t104 -33.5q68 0 103.5 33.5t35.5 107.5v321h61v-319q0 -102 -53.5 -149t-146.5 -47zM141 663h270v-53h-270v53z" />
    <glyph glyph-name="ubreve.sc" horiz-adv-x="553" 
d="M276 -8q-199 0 -199 196v319h60v-321q0 -74 35 -107.5t104 -33.5q68 0 103.5 33.5t35.5 107.5v321h61v-319q0 -102 -53.5 -149t-146.5 -47zM359 701h47q0 -58 -35.5 -95t-94.5 -37q-58 0 -93.5 37t-35.5 95h45q2 -37 23.5 -60.5t60.5 -23.5t60.5 23.5t22.5 60.5z" />
    <glyph glyph-name="uring.sc" horiz-adv-x="553" 
d="M276 -8q-199 0 -199 196v319h60v-321q0 -74 35 -107.5t104 -33.5q68 0 103.5 33.5t35.5 107.5v321h61v-319q0 -102 -53.5 -149t-146.5 -47zM175 651q0 41 27.5 66.5t73.5 25.5q47 0 74.5 -25.5t27.5 -66.5q0 -40 -27.5 -66t-74.5 -26q-46 0 -73.5 26t-27.5 66zM220 651
q0 -24 15 -38.5t41 -14.5t41.5 14.5t15.5 38.5t-15.5 38.5t-41.5 14.5t-41 -14.5t-15 -38.5z" />
    <glyph glyph-name="uhungarumlaut.sc" horiz-adv-x="553" 
d="M276 -8q-199 0 -199 196v319h60v-321q0 -74 35 -107.5t104 -33.5q68 0 103.5 33.5t35.5 107.5v321h61v-319q0 -102 -53.5 -149t-146.5 -47zM252 726h66l-87 -151h-57zM394 726h66l-87 -151h-57z" />
    <glyph glyph-name="uogonek.sc" horiz-adv-x="553" 
d="M476 188q0 -158 -131 -188l-69 -56q-34 -29 -34 -59q0 -17 13 -30.5t37 -13.5q27 0 61 25v-54q-32 -22 -73 -22q-46 0 -72.5 24.5t-26.5 62.5q0 50 50 90l31 26q-185 7 -185 195v319h60v-321q0 -74 35 -107.5t104 -33.5q68 0 103.5 33.5t35.5 107.5v321h61v-319z" />
    <glyph glyph-name="wacute.sc" horiz-adv-x="806" 
d="M367 507h71l138 -438l135 438h64l-160 -507h-76l-137 425l-136 -425h-75l-161 507h65l135 -438zM452 726h66l-87 -151h-57z" />
    <glyph glyph-name="wcircumflex.sc" horiz-adv-x="806" 
d="M367 507h71l138 -438l135 438h64l-160 -507h-76l-137 425l-136 -425h-75l-161 507h65l135 -438zM373 726h61l102 -151h-57l-76 107l-75 -107h-57z" />
    <glyph glyph-name="wdieresis.sc" horiz-adv-x="806" 
d="M367 507h71l138 -438l135 438h64l-160 -507h-76l-137 425l-136 -425h-75l-161 507h65l135 -438zM315 600q-47 0 -47 46q0 47 47 47q20 0 33.5 -12t13.5 -35t-13.5 -34.5t-33.5 -11.5zM491 600q-47 0 -47 46q0 47 47 47q20 0 33.5 -12t13.5 -35t-13.5 -34.5t-33.5 -11.5z
" />
    <glyph glyph-name="wgrave.sc" horiz-adv-x="806" 
d="M367 507h71l138 -438l135 438h64l-160 -507h-76l-137 425l-136 -425h-75l-161 507h65l135 -438zM286 726h66l78 -151h-57z" />
    <glyph glyph-name="yacute.sc" horiz-adv-x="482" 
d="M271 0h-60v203l-188 304h68l150 -248l150 248h69l-189 -304v-203zM290 726h66l-87 -151h-57z" />
    <glyph glyph-name="ycircumflex.sc" horiz-adv-x="482" 
d="M271 0h-60v203l-188 304h68l150 -248l150 248h69l-189 -304v-203zM211 726h61l102 -151h-57l-76 107l-75 -107h-57z" />
    <glyph glyph-name="ydieresis.sc" horiz-adv-x="482" 
d="M271 0h-60v203l-188 304h68l150 -248l150 248h69l-189 -304v-203zM153 600q-47 0 -47 46q0 47 47 47q20 0 33.5 -12t13.5 -35t-13.5 -34.5t-33.5 -11.5zM329 600q-47 0 -47 46q0 47 47 47q20 0 33.5 -12t13.5 -35t-13.5 -34.5t-33.5 -11.5z" />
    <glyph glyph-name="ygrave.sc" horiz-adv-x="482" 
d="M271 0h-60v203l-188 304h68l150 -248l150 248h69l-189 -304v-203zM131 726h66l78 -151h-57z" />
    <glyph glyph-name="zacute.sc" horiz-adv-x="438" 
d="M388 507v-46l-275 -410h280v-51h-353v45l275 411h-259v51h332zM266 726h66l-87 -151h-57z" />
    <glyph glyph-name="zcaron.sc" horiz-adv-x="438" 
d="M388 507v-46l-275 -410h280v-51h-353v45l275 411h-259v51h332zM249 575h-61l-102 151h57l76 -107l75 107h57z" />
    <glyph glyph-name="zdotaccent.sc" horiz-adv-x="438" 
d="M388 507v-46l-275 -410h280v-51h-353v45l275 411h-259v51h332zM218 600q-47 0 -47 46q0 47 47 47q20 0 33.5 -12t13.5 -35t-13.5 -34.5t-33.5 -11.5z" />
    <glyph glyph-name="ij.sc" horiz-adv-x="630" 
d="M81 0v507h60v-507h-60zM242 68l46 29q31 -52 96 -52q54 0 82 30.5t28 101.5v330h58v-331q0 -94 -44.5 -139t-123.5 -45q-98 0 -142 76z" />
    <glyph glyph-name="germandbls.sc" horiz-adv-x="908" 
d="M849 441l-45 -33q-38 54 -122 54q-54 0 -83 -25.5t-29 -65.5q0 -32 20 -50t63 -30l74 -20q131 -37 131 -132q0 -66 -49 -106.5t-135 -40.5q-137 0 -186 96l47 31q16 -35 46.5 -54.5t92.5 -19.5q60 0 90.5 24t30.5 67q0 58 -88 82l-74 19q-126 37 -126 131q0 61 45.5 104
t129.5 43q61 0 104 -21t63 -53zM404 441l-45 -33q-38 54 -122 54q-54 0 -83 -25.5t-29 -65.5q0 -32 20 -50t63 -30l74 -20q131 -37 131 -132q0 -66 -49 -106.5t-135 -40.5q-137 0 -186 96l47 31q16 -35 46.5 -54.5t92.5 -19.5q60 0 90.5 24t30.5 67q0 58 -88 82l-74 19
q-126 37 -126 131q0 61 45.5 104t129.5 43q61 0 104 -21t63 -53z" />
    <glyph glyph-name="fi.sc" horiz-adv-x="684" 
d="M82 0v507h319v-51h-259v-185h222v-51h-222v-220h-60zM542 0v507h60v-507h-60z" />
    <glyph glyph-name="fl.sc" horiz-adv-x="866" 
d="M82 0v507h319v-51h-259v-185h222v-51h-222v-220h-60zM601 51h239v-51h-299v507h60v-456z" />
    <glyph glyph-name="eng.sc" horiz-adv-x="575" 
d="M433 97v410h60v-525q0 -57 -20 -96t-74 -59l-33 44q39 15 52.5 41.5t14.5 83.5l-292 417q0 -69 0.5 -206.5t0.5 -206.5h-61v507h65z" />
    <glyph glyph-name="grave.sc" horiz-adv-x="600" 
d="M228 726h66l78 -151h-57z" />
    <glyph glyph-name="acute.sc" horiz-adv-x="600" 
d="M306 726h66l-87 -151h-57z" />
    <glyph glyph-name="circumflex.sc" horiz-adv-x="600" 
d="M269 726h61l102 -151h-57l-76 107l-75 -107h-57z" />
    <glyph glyph-name="caron.sc" horiz-adv-x="600" 
d="M330 575h-61l-102 151h57l76 -107l75 107h57z" />
    <glyph glyph-name="caronalt.sc" horiz-adv-x="600" 
d="M347 507l-47 -149h-47l25 149h69z" />
    <glyph glyph-name="tilde.sc" horiz-adv-x="600" 
d="M434 656l-8 -49q-28 25 -59 25q-21 0 -64 -18.5t-72 -18.5q-44 0 -66 26l8 48q23 -25 58 -25q23 0 64 19t72 19q36 0 67 -26z" />
    <glyph glyph-name="dieresis.sc" horiz-adv-x="600" 
d="M212 600q-47 0 -47 46q0 47 47 47q20 0 33.5 -12t13.5 -35t-13.5 -34.5t-33.5 -11.5zM388 600q-47 0 -47 46q0 47 47 47q20 0 33.5 -12t13.5 -35t-13.5 -34.5t-33.5 -11.5z" />
    <glyph glyph-name="macron.sc" horiz-adv-x="600" 
d="M165 663h270v-53h-270v53z" />
    <glyph glyph-name="breve.sc" horiz-adv-x="600" 
d="M382 701h47q0 -58 -35.5 -95t-94.5 -37q-58 0 -93.5 37t-35.5 95h45q2 -37 23.5 -60.5t60.5 -23.5t60.5 23.5t22.5 60.5z" />
    <glyph glyph-name="ring.sc" horiz-adv-x="600" 
d="M198 651q0 41 27.5 66.5t73.5 25.5q47 0 74.5 -25.5t27.5 -66.5q0 -40 -27.5 -66t-74.5 -26q-46 0 -73.5 26t-27.5 66zM243 651q0 -24 15 -38.5t41 -14.5t41.5 14.5t15.5 38.5t-15.5 38.5t-41.5 14.5t-41 -14.5t-15 -38.5z" />
    <glyph glyph-name="hungarumlaut.sc" horiz-adv-x="600" 
d="M235 726h66l-87 -151h-57zM377 726h66l-87 -151h-57z" />
    <glyph glyph-name="dotaccent.sc" horiz-adv-x="600" 
d="M300 600q-47 0 -47 46q0 47 47 47q20 0 33.5 -12t13.5 -35t-13.5 -34.5t-33.5 -11.5z" />
    <glyph glyph-name="exclamdown.sc" horiz-adv-x="216" 
d="M86 349h47l10 -349h-69zM108 512q20 0 33 -12t13 -30q0 -19 -13 -31t-33 -12t-33 12t-13 31q0 18 13 30t33 12z" />
    <glyph glyph-name="questiondown.sc" horiz-adv-x="384" 
d="M201 512q19 0 32 -12t13 -30q0 -19 -12.5 -31t-32.5 -12t-33 12t-13 31q0 18 13 30t33 12zM199 -8q-72 0 -114 36.5t-42 91.5q0 35 20 65.5t44 50t44 49.5t20 64h58q0 -32 -13 -60t-31.5 -48t-37 -38t-31.5 -38.5t-13 -42.5q0 -32 24.5 -54.5t67.5 -22.5q40 0 65 19
t25 51l56 -5q0 -52 -36 -85t-106 -33z" />
    <glyph glyph-name="Euro.sc" horiz-adv-x="495" 
d="M49 323h45q12 90 63 141t141 51q72 0 140 -33l-21 -50q-55 29 -120 29q-62 0 -97 -37t-45 -101h215l-18 -41h-201q-1 -9 -1 -27q0 -24 1 -34h176l-17 -42h-153q24 -134 143 -134q69 0 127 36l16 -53q-70 -36 -145 -36q-176 0 -203 187h-46v42h41q-1 10 -1 34q0 18 1 27
h-41v41z" />
    <glyph glyph-name="cent.sc" horiz-adv-x="410" 
d="M55 170q0 80 40.5 130t121.5 50q9 0 25 -2l15 57l38 -8l-15 -57q47 -16 73 -59l-41 -28q-17 28 -45 38l-65 -248q5 -1 18 -1q64 0 93 47l40 -28q-40 -69 -136 -69q-10 0 -28 2l-12 -46l-37 8l12 46q-97 36 -97 168zM111 170q0 -89 54 -116l64 246h-9q-109 0 -109 -130z
" />
    <glyph glyph-name="sterling.sc" horiz-adv-x="479" 
d="M45 245h55v89q0 80 41 130.5t127 50.5q108 0 164 -71l-38 -37q-48 54 -124 54q-111 0 -111 -129v-87h160v-42h-160v-154h244v-49h-303v203h-55v42z" />
    <glyph glyph-name="florin.sc" horiz-adv-x="316" 
d="M172 292v-345q0 -52 -26 -84.5t-82 -32.5q-26 0 -49 7v51q21 -6 41 -6q60 0 60 73v337h-81v49h81v68q0 51 26 83.5t83 32.5q17 0 47 -6v-51q-23 5 -41 5q-33 0 -46 -18t-13 -54v-60h87v-49h-87z" />
    <glyph glyph-name="yen.sc" horiz-adv-x="493" 
d="M74 221h133l-37 60h-96v42h72l-111 184h66l144 -245l145 245h68l-115 -184h73v-42h-97l-38 -60h135v-41h-144v-180h-58v180h-140v41z" />
    <glyph glyph-name="rupee.sc" horiz-adv-x="453" 
d="M61 507h341v-45h-101q38 -30 42 -80h59v-41h-59q-5 -49 -38.5 -81t-89.5 -41l149 -219h-72l-144 213h-87v51h85q65 0 96.5 19t36.5 58h-218v41h218q-6 37 -31.5 56t-82.5 19h-104v50z" />
    <glyph glyph-name="perthousand.sc" horiz-adv-x="918" 
d="M522 507l-330 -507h-51l329 507h52zM505 34q65 0 65 97q0 98 -65 98q-66 0 -66 -98q0 -97 66 -97zM505 266q114 0 114 -135t-114 -135q-115 0 -115 135t115 135zM158 278q36 0 51 24t15 74q0 49 -15 73t-51 24q-66 0 -66 -97q0 -98 66 -98zM158 511q115 0 115 -135
t-115 -135q-113 0 -113 135t113 135zM761 34q66 0 66 97q0 98 -66 98t-66 -98q0 -97 66 -97zM761 266q114 0 114 -135t-114 -135t-114 135t114 135z" />
    <glyph glyph-name="zero.tf" 
d="M280 46q170 0 170 292t-170 292t-170 -292t170 -292zM280 686q119 0 176.5 -91.5t57.5 -256.5t-57.5 -256.5t-176.5 -91.5t-176.5 91.5t-57.5 256.5t57.5 256.5t176.5 91.5z" />
    <glyph glyph-name="one.tf" 
d="M91 0v55h185v559l-179 -75l-18 52l202 85h57v-621h158v-55h-405z" />
    <glyph glyph-name="two.tf" 
d="M271 686q92 0 145.5 -53.5t53.5 -138.5q0 -66 -32.5 -120t-98.5 -125l-181 -194h330v-55h-413v49l220 238q57 62 84 109t27 98q0 61 -35.5 98.5t-99.5 37.5q-63 0 -97.5 -38.5t-34.5 -101.5h-62q0 89 51 142.5t143 53.5z" />
    <glyph glyph-name="three.tf" 
d="M355 349q55 -10 97 -55t42 -115q0 -84 -60 -137t-159 -53q-105 0 -160 49t-55 122h62q0 -50 41 -82.5t112 -32.5q73 0 114 37.5t41 98.5q0 64 -47.5 102t-123.5 38h-60v55h60q71 0 115.5 33.5t44.5 93.5q0 57 -38.5 92t-105.5 35q-68 0 -105.5 -33.5t-37.5 -83.5h-63
q0 72 53 122.5t153 50.5q95 0 151.5 -51.5t56.5 -129.5q0 -64 -36.5 -103.5t-91.5 -52.5z" />
    <glyph glyph-name="four.tf" 
d="M527 209v-55h-105v-154h-62v154h-332v50l330 472h64v-467h105zM97 209h263v375z" />
    <glyph glyph-name="five.tf" 
d="M492 217q0 -98 -56.5 -163t-161.5 -65q-106 0 -159 54t-53 135h63q0 -58 37 -95.5t112 -37.5t114.5 48t39.5 124q0 71 -39 112.5t-109 41.5t-134 -46l-53 5l41 346h338v-55h-286l-29 -235q67 41 132 41q92 0 147.5 -55t55.5 -155z" />
    <glyph glyph-name="six.tf" 
d="M126 268q0 -94 40.5 -158.5t120.5 -64.5q76 0 117 45.5t41 122.5q0 74 -41 116t-117 42q-51 0 -95 -30t-66 -73zM429 513q0 54 -37 85.5t-100 31.5q-82 0 -126 -79t-44 -215q22 33 69.5 61.5t104.5 28.5q100 0 156 -58.5t56 -154.5t-57 -160t-164 -64q-115 0 -172 88
t-57 241q0 173 60 270.5t174 97.5q96 0 148 -49t52 -124h-63z" />
    <glyph glyph-name="seven.tf" 
d="M165 0l250 621h-335v55h404v-50l-250 -626h-69z" />
    <glyph glyph-name="eight.tf" 
d="M280 -11q-103 0 -165.5 50.5t-62.5 140.5q0 71 40.5 114t96.5 56q-54 14 -88.5 52.5t-34.5 100.5q0 83 58.5 133t155.5 50t155 -50t58 -133q0 -63 -34.5 -101t-88.5 -52q56 -13 96.5 -56t40.5 -114q0 -90 -62.5 -140.5t-164.5 -50.5zM280 630q-69 0 -109.5 -33.5
t-40.5 -95.5q0 -57 42 -90.5t108 -33.5q65 0 107 33t42 91q0 62 -40 95.5t-109 33.5zM279 45q76 0 120 37t44 104q0 63 -46.5 99.5t-117.5 36.5q-72 0 -117.5 -36.5t-45.5 -99.5q0 -67 44 -104t119 -37z" />
    <glyph glyph-name="nine.tf" 
d="M434 408q0 94 -40.5 158.5t-120.5 64.5q-76 0 -117 -45.5t-41 -122.5q0 -74 41 -116t117 -42q51 0 95 30t66 73zM68 163h63q0 -53 36.5 -85t99.5 -32q83 0 127 79t44 215q-22 -32 -69.5 -61.5t-104.5 -29.5q-100 0 -156 58.5t-56 155.5q0 96 57 160t164 64q115 0 172 -88
t57 -241q0 -173 -60 -270.5t-175 -97.5q-95 0 -147 49t-52 124z" />
    <glyph glyph-name="zero.tosf" 
d="M280 47q171 0 171 241t-171 241t-171 -241t171 -241zM280 586q118 0 176.5 -78.5t58.5 -219.5q0 -140 -59 -219t-176 -79q-118 0 -176.5 78.5t-58.5 219.5q0 140 59 219t176 79z" />
    <glyph glyph-name="one.tosf" 
d="M110 0v56h170v455l-172 -63l-18 51l194 76h57v-519h148v-56h-379z" />
    <glyph glyph-name="two.tosf" 
d="M475 0h-386v46l232 205q48 42 68 74.5t20 76.5q0 52 -33.5 90t-101.5 38t-100 -38.5t-32 -103.5h-61q0 87 51.5 142.5t141.5 55.5q98 0 148.5 -54t50.5 -128q0 -59 -29 -102.5t-83 -90.5l-180 -158h294v-53z" />
    <glyph glyph-name="three.tosf" 
d="M355 249q55 -10 97 -55t42 -115q0 -84 -60 -137t-159 -53q-105 0 -160 49t-55 122h62q0 -50 41 -82.5t112 -32.5q73 0 114 37.5t41 98.5q0 64 -47.5 102t-123.5 38h-60v55h60q71 0 115.5 33.5t44.5 93.5q0 57 -38.5 92t-105.5 35q-68 0 -105.5 -33.5t-37.5 -83.5h-63
q0 72 53 122.5t153 50.5q95 0 151.5 -51.5t56.5 -129.5q0 -64 -36.5 -103.5t-91.5 -52.5z" />
    <glyph glyph-name="four.tosf" 
d="M525 109v-55h-105v-154h-62v154h-332v50l330 472h64v-467h105zM95 109h263v375z" />
    <glyph glyph-name="five.tosf" 
d="M489 115q0 -98 -56.5 -163t-161.5 -65q-106 0 -159 54t-53 135h63q0 -58 37 -95.5t112 -37.5t114.5 48t39.5 124q0 71 -39 112.5t-109 41.5t-134 -46l-53 5l41 346h338v-55h-286l-29 -235q67 41 132 41q92 0 147.5 -55t55.5 -155z" />
    <glyph glyph-name="six.tosf" 
d="M126 268q0 -94 40.5 -158.5t120.5 -64.5q76 0 117 45.5t41 122.5q0 74 -41 116t-117 42q-51 0 -95 -30t-66 -73zM429 513q0 54 -37 85.5t-100 31.5q-82 0 -126 -79t-44 -215q22 33 69.5 61.5t104.5 28.5q100 0 156 -58.5t56 -154.5t-57 -160t-164 -64q-115 0 -172 88
t-57 241q0 173 60 270.5t174 97.5q96 0 148 -49t52 -124h-63z" />
    <glyph glyph-name="seven.tosf" 
d="M167 -100l250 621h-335v55h404v-50l-250 -626h-69z" />
    <glyph glyph-name="eight.tosf" 
d="M280 -11q-103 0 -165.5 50.5t-62.5 140.5q0 71 40.5 114t96.5 56q-54 14 -88.5 52.5t-34.5 100.5q0 83 58.5 133t155.5 50t155 -50t58 -133q0 -63 -34.5 -101t-88.5 -52q56 -13 96.5 -56t40.5 -114q0 -90 -62.5 -140.5t-164.5 -50.5zM280 630q-69 0 -109.5 -33.5
t-40.5 -95.5q0 -57 42 -90.5t108 -33.5q65 0 107 33t42 91q0 62 -40 95.5t-109 33.5zM279 45q76 0 120 37t44 104q0 63 -46.5 99.5t-117.5 36.5q-72 0 -117.5 -36.5t-45.5 -99.5q0 -67 44 -104t119 -37z" />
    <glyph glyph-name="nine.tosf" 
d="M434 308q0 94 -40.5 158.5t-120.5 64.5q-76 0 -117 -45.5t-41 -122.5q0 -74 41 -116t117 -42q51 0 95 30t66 73zM68 63h63q0 -53 36.5 -85t99.5 -32q83 0 127 79t44 215q-22 -32 -69.5 -61.5t-104.5 -29.5q-100 0 -156 58.5t-56 155.5q0 96 57 160t164 64q115 0 172 -88
t57 -241q0 -173 -60 -270.5t-175 -97.5q-95 0 -147 49t-52 124z" />
    <glyph glyph-name="Euro.tf" 
d="M37 427h55q16 122 78 190.5t172 68.5q89 0 172 -44l-23 -56q-71 42 -150 42q-81 0 -126.5 -54t-57.5 -147h269l-21 -48h-253q-1 -13 -1 -39q0 -18 2 -50h219l-20 -48h-194q31 -195 186 -195q85 0 160 51l17 -58q-87 -51 -179 -51q-217 0 -249 253h-56v48h51q-1 16 -1 50
q0 26 1 39h-51v48z" />
    <glyph glyph-name="cent.tf" 
d="M99 227q0 108 50 173.5t148 65.5q10 0 30 -2l19 76l44 -10l-19 -76q59 -21 90 -76l-45 -31q-22 37 -58 54l-86 -355q18 -2 28 -2q80 0 116 64l45 -31q-50 -87 -164 -87q-20 0 -38 3l-14 -61l-43 10l15 62q-118 47 -118 223zM160 227q0 -128 70 -167l85 351q-5 1 -15 1
q-73 0 -106.5 -50t-33.5 -135z" />
    <glyph glyph-name="sterling.tf" 
d="M42 323h68v123q0 107 50 173.5t155 66.5q130 0 202 -90l-43 -41q-58 73 -157 73q-145 0 -145 -185v-120h204v-48h-204v-221h309v-54h-370l-1 275h-68v48z" />
    <glyph glyph-name="florin.tf" 
d="M304 401v-471q0 -69 -31.5 -112.5t-99.5 -43.5q-28 0 -56 7v57q27 -8 50 -8q43 0 60 26.5t17 79.5v465h-101v54h101v89q0 70 31.5 113t100.5 43q26 0 54 -7v-57q-27 8 -50 8q-43 0 -59.5 -26.5t-16.5 -79.5v-83h110v-54h-110z" />
    <glyph glyph-name="yen.tf" 
d="M75 291h165l-49 89h-116v48h89l-141 248h70l186 -340l189 340h71l-145 -248h88v-48h-116l-51 -89h167v-48h-174v-243h-62v243h-171v48z" />
    <glyph glyph-name="rupee.tf" 
d="M81 676h411v-48h-128q51 -40 58 -119h70v-48h-70q-6 -68 -52.5 -112.5t-122.5 -52.5l192 -296h-74l-187 291h-97v54h107q152 0 168 116h-275v48h276q-9 55 -44.5 84t-109.5 29h-122v54z" />
    <glyph glyph-name="dollar.tf" 
d="M303 -103h-47v93q-49 2 -86 14.5t-60 33t-35.5 39t-23.5 42.5l52 30q18 -45 51.5 -72t101.5 -31v270l-28 8q-154 46 -154 170q0 74 47.5 127.5t134.5 62.5v75h47v-74q67 -4 116 -31t72 -66l-50 -35q-43 69 -138 75v-262l38 -11q76 -23 118 -62.5t42 -110.5
q0 -80 -51.5 -132.5t-146.5 -59.5v-93zM321 297l-18 5v-255q66 6 100 41t34 91q0 85 -116 118zM139 496q0 -47 26.5 -72t82.5 -42l8 -3v248q-57 -8 -87 -43.5t-30 -87.5z" />
    <glyph glyph-name="zero.osf" horiz-adv-x="596" 
d="M298 47q173 0 173 241t-173 241t-173 -241t173 -241zM298 586q118 0 177.5 -78.5t59.5 -219.5t-59.5 -219.5t-177.5 -78.5q-119 0 -178 78.5t-59 219.5t59.5 219.5t177.5 78.5z" />
    <glyph glyph-name="one.osf" horiz-adv-x="368" 
d="M278 0h-61v515l-172 -72l-17 51l193 81h57v-575z" />
    <glyph glyph-name="two.osf" horiz-adv-x="512" 
d="M451 0h-386v46l232 205q48 42 68 74.5t20 76.5q0 52 -33.5 90t-101.5 38t-100 -38.5t-32 -103.5h-61q0 87 51.5 142.5t141.5 55.5q98 0 148.5 -54t50.5 -128q0 -59 -29 -102.5t-83 -90.5l-180 -158h294v-53z" />
    <glyph glyph-name="three.osf" horiz-adv-x="548" 
d="M349 249q55 -10 97 -55t42 -115q0 -84 -60 -137t-159 -53q-105 0 -160 49t-55 122h62q0 -50 41 -82.5t112 -32.5q73 0 114 37.5t41 98.5q0 64 -47.5 102t-123.5 38h-60v55h60q71 0 115.5 33.5t44.5 93.5q0 57 -38.5 92t-105.5 35q-68 0 -105.5 -33.5t-37.5 -83.5h-63
q0 72 53 122.5t153 50.5q95 0 151.5 -51.5t56.5 -129.5q0 -64 -36.5 -103.5t-91.5 -52.5z" />
    <glyph glyph-name="four.osf" horiz-adv-x="583" 
d="M537 109v-55h-105v-154h-62v154h-332v50l330 472h64v-467h105zM107 109h263v375z" />
    <glyph glyph-name="five.osf" horiz-adv-x="534" 
d="M477 117q0 -98 -56.5 -163t-161.5 -65q-106 0 -159 54t-53 135h63q0 -58 37 -95.5t112 -37.5t114.5 48t39.5 124q0 71 -39 112.5t-109 41.5t-134 -46l-53 5l41 346h338v-55h-286l-29 -235q67 41 132 41q92 0 147.5 -55t55.5 -155z" />
    <glyph glyph-name="six.osf" horiz-adv-x="565" 
d="M128 268q0 -94 40.5 -158.5t120.5 -64.5q76 0 117 45.5t41 122.5q0 74 -41 116t-117 42q-51 0 -95 -30t-66 -73zM431 513q0 54 -37 85.5t-100 31.5q-82 0 -126 -79t-44 -215q22 33 69.5 61.5t104.5 28.5q100 0 156 -58.5t56 -154.5t-57 -160t-164 -64q-115 0 -172 88
t-57 241q0 173 60 270.5t174 97.5q96 0 148 -49t52 -124h-63z" />
    <glyph glyph-name="seven.osf" horiz-adv-x="485" 
d="M129 -100l250 621h-335v55h404v-50l-250 -626h-69z" />
    <glyph glyph-name="eight.osf" horiz-adv-x="573" 
d="M287 -11q-103 0 -165.5 50.5t-62.5 140.5q0 71 40.5 114t96.5 56q-54 14 -88.5 52.5t-34.5 100.5q0 83 58.5 133t155.5 50t155 -50t58 -133q0 -63 -34.5 -101t-88.5 -52q56 -13 96.5 -56t40.5 -114q0 -90 -62.5 -140.5t-164.5 -50.5zM287 630q-69 0 -109.5 -33.5
t-40.5 -95.5q0 -57 42 -90.5t108 -33.5q65 0 107 33t42 91q0 62 -40 95.5t-109 33.5zM286 45q76 0 120 37t44 104q0 63 -46.5 99.5t-117.5 36.5q-72 0 -117.5 -36.5t-45.5 -99.5q0 -67 44 -104t119 -37z" />
    <glyph glyph-name="nine.osf" horiz-adv-x="564" 
d="M436 308q0 94 -40.5 158.5t-120.5 64.5q-76 0 -117 -45.5t-41 -122.5q0 -74 41 -116t117 -42q51 0 95 30t66 73zM70 63h63q0 -53 36.5 -85t99.5 -32q83 0 127 79t44 215q-22 -32 -69.5 -61.5t-104.5 -29.5q-100 0 -156 58.5t-56 155.5q0 96 57 160t164 64q115 0 172 -88
t57 -241q0 -173 -60 -270.5t-175 -97.5q-95 0 -147 49t-52 124z" />
    <glyph glyph-name="zero.denom" horiz-adv-x="341" 
d="M170 36q86 0 86 136t-86 136t-86 -136t86 -136zM170 348q137 0 137 -176q0 -84 -33.5 -130.5t-103.5 -46.5t-103.5 46.5t-33.5 130.5q0 83 34 129.5t103 46.5z" />
    <glyph glyph-name="one.denom" horiz-adv-x="220" 
d="M170 0h-49v297l-103 -38l-13 39l121 45h44v-343z" />
    <glyph glyph-name="two.denom" horiz-adv-x="298" 
d="M145 348q52 0 83.5 -28t31.5 -72q0 -34 -19 -62.5t-56 -63.5l-86 -81h168v-41h-235v35l120 116q57 54 57 97q0 26 -17 43t-47 17q-32 0 -48.5 -17.5t-16.5 -47.5h-49q0 48 29.5 76.5t84.5 28.5z" />
    <glyph glyph-name="three.denom" horiz-adv-x="310" 
d="M203 176q31 -5 52.5 -27.5t21.5 -57.5q0 -43 -34 -70t-91 -27q-61 0 -92 26t-31 66h49q0 -22 19.5 -36t54.5 -14q34 0 54.5 15.5t20.5 41.5q0 29 -23 45.5t-63 16.5h-33v41h33q36 0 58 15t22 41q0 25 -18.5 40.5t-50.5 15.5q-33 0 -50.5 -14.5t-17.5 -36.5h-51
q0 39 30.5 65t88.5 26q55 0 87.5 -26t32.5 -68q0 -30 -20 -51t-49 -27z" />
    <glyph glyph-name="four.denom" horiz-adv-x="320" 
d="M300 113v-41h-53v-72h-50v72h-180v38l179 233h51v-230h53zM70 113h127v164z" />
    <glyph glyph-name="five.denom" horiz-adv-x="301" 
d="M272 111q0 -51 -32.5 -84t-92.5 -33q-62 0 -92 27.5t-30 70.5h50q0 -25 18 -40.5t54 -15.5t55.5 21t19.5 54q0 30 -19.5 48.5t-53.5 18.5q-35 0 -66 -20l-41 4l24 181h194v-41h-154l-14 -99q37 17 65 17q51 0 83 -28t32 -81z" />
    <glyph glyph-name="six.denom" horiz-adv-x="321" 
d="M85 134q0 -42 19.5 -70t59.5 -28q37 0 57 20t20 53q0 32 -20 51t-57 19q-52 0 -79 -45zM170 308q-42 0 -64.5 -35t-22.5 -92q33 38 92 38q55 0 85.5 -30t30.5 -80q0 -49 -33 -82t-94 -33q-66 0 -98.5 45t-32.5 121q0 88 34.5 138t102.5 50q56 0 84.5 -25.5t28.5 -65.5
h-49q0 23 -17 37t-47 14z" />
    <glyph glyph-name="seven.denom" horiz-adv-x="264" 
d="M57 0l138 302h-178v41h232v-35l-138 -308h-54z" />
    <glyph glyph-name="eight.denom" horiz-adv-x="327" 
d="M164 -6q-59 0 -95 26t-36 73q0 66 68 84q-61 20 -61 76q0 44 33.5 69.5t90.5 25.5t89.5 -25.5t32.5 -69.5q0 -56 -61 -76q69 -18 69 -84q0 -47 -35.5 -73t-94.5 -26zM163 157q-35 0 -57.5 -17t-22.5 -44q0 -29 22.5 -44.5t58.5 -15.5q35 0 57 15.5t22 44.5q0 28 -22 44.5
t-58 16.5zM163 308q-33 0 -52.5 -15t-19.5 -42q0 -26 20 -40t52 -14t52.5 14.5t20.5 39.5q0 27 -19.5 42t-53.5 15z" />
    <glyph glyph-name="nine.denom" horiz-adv-x="321" 
d="M237 209q0 42 -20 70.5t-59 28.5q-38 0 -57.5 -20t-19.5 -54q0 -69 77 -69q26 0 47.5 13t31.5 31zM38 86h50q0 -23 17.5 -36.5t46.5 -13.5q43 0 64.5 34t21.5 93q-12 -14 -37 -26.5t-54 -12.5q-55 0 -86 30t-31 79q0 50 33 82.5t95 32.5q66 0 98.5 -44.5t32.5 -121.5
q0 -87 -34 -137.5t-103 -50.5q-54 0 -84 26.5t-30 65.5z" />
    <glyph glyph-name="zero.num" horiz-adv-x="346" 
d="M172 367q86 0 86 136t-86 136t-86 -136t86 -136zM172 679q137 0 137 -176q0 -84 -33.5 -130.5t-103.5 -46.5t-103.5 46.5t-33.5 130.5q0 83 34 129.5t103 46.5z" />
    <glyph glyph-name="one.num" horiz-adv-x="226" 
d="M172 331h-49v297l-103 -38l-13 39l121 45h44v-343z" />
    <glyph glyph-name="two.num" horiz-adv-x="304" 
d="M147 679q52 0 83.5 -28t31.5 -72q0 -34 -19 -62.5t-56 -63.5l-86 -81h168v-41h-235v35l120 116q57 54 57 97q0 26 -17 43t-47 17q-32 0 -48.5 -17.5t-16.5 -47.5h-49q0 48 29.5 76.5t84.5 28.5z" />
    <glyph glyph-name="three.num" horiz-adv-x="317" 
d="M205 507q31 -5 52.5 -27.5t21.5 -57.5q0 -43 -34 -70t-91 -27q-61 0 -92 26t-31 66h49q0 -22 19.5 -36t54.5 -14q34 0 54.5 15.5t20.5 41.5q0 29 -23 45.5t-63 16.5h-33v41h33q36 0 58 15t22 41q0 25 -18.5 40.5t-50.5 15.5q-33 0 -50.5 -14.5t-17.5 -36.5h-51
q0 39 30.5 65t88.5 26q55 0 87.5 -26t32.5 -68q0 -30 -20 -51t-49 -27z" />
    <glyph glyph-name="four.num" horiz-adv-x="327" 
d="M302 444v-41h-53v-72h-50v72h-180v38l179 233h51v-230h53zM72 444h127v164z" />
    <glyph glyph-name="five.num" horiz-adv-x="309" 
d="M274 442q0 -51 -32.5 -84t-92.5 -33q-62 0 -92 27.5t-30 70.5h50q0 -25 18 -40.5t54 -15.5t55.5 21t19.5 54q0 30 -19.5 48.5t-53.5 18.5q-35 0 -66 -20l-41 4l24 181h194v-41h-154l-14 -99q37 17 65 17q51 0 83 -28t32 -81z" />
    <glyph glyph-name="six.num" horiz-adv-x="329" 
d="M87 465q0 -42 19.5 -70t59.5 -28q37 0 57 20t20 53q0 32 -20 51t-57 19q-52 0 -79 -45zM172 639q-42 0 -64.5 -34.5t-22.5 -92.5q33 38 92 38q55 0 85.5 -30t30.5 -80q0 -49 -33 -82t-94 -33q-66 0 -98.5 45t-32.5 121q0 88 34.5 138t102.5 50q56 0 84.5 -25.5
t28.5 -65.5h-49q0 23 -17 37t-47 14z" />
    <glyph glyph-name="seven.num" horiz-adv-x="272" 
d="M59 331l138 302h-178v41h232v-35l-138 -308h-54z" />
    <glyph glyph-name="eight.num" horiz-adv-x="334" 
d="M166 325q-59 0 -95 26t-36 73q0 66 68 84q-61 20 -61 76q0 44 33.5 69.5t90.5 25.5t89.5 -25.5t32.5 -69.5q0 -56 -61 -76q69 -18 69 -84q0 -47 -35.5 -73t-94.5 -26zM165 488q-35 0 -57.5 -17t-22.5 -44q0 -29 22.5 -44.5t58.5 -15.5q35 0 57 15.5t22 44.5
q0 28 -22 44.5t-58 16.5zM165 639q-33 0 -52.5 -15t-19.5 -42q0 -26 20 -40t52 -14t52.5 14.5t20.5 39.5q0 27 -19.5 42t-53.5 15z" />
    <glyph glyph-name="nine.num" horiz-adv-x="329" 
d="M239 540q0 42 -20 70.5t-59 28.5q-38 0 -57.5 -20t-19.5 -54q0 -69 77 -69q26 0 47.5 13t31.5 31zM40 417h50q0 -23 17.5 -36.5t46.5 -13.5q43 0 64.5 34t21.5 93q-12 -14 -37 -26.5t-54 -12.5q-55 0 -86 30t-31 79q0 50 33 82.5t95 32.5q66 0 98.5 -44.5t32.5 -121.5
q0 -87 -34 -137.5t-103 -50.5q-54 0 -84 26.5t-30 65.5z" />
    <glyph glyph-name="parenleft.case" horiz-adv-x="276" 
d="M239 -106l-46 -16q-68 110 -101.5 216t-33.5 246q0 147 34.5 250.5t100.5 212.5l48 -16q-58 -110 -88.5 -211.5t-30.5 -235.5q0 -126 28.5 -228.5t88.5 -217.5z" />
    <glyph glyph-name="parenright.case" horiz-adv-x="276" 
d="M37 -106q61 116 89.5 218.5t28.5 227.5q0 133 -30.5 235t-89.5 212l49 16q66 -110 100 -213t34 -250q0 -140 -33 -246t-101 -216z" />
    <glyph glyph-name="hyphen.case" horiz-adv-x="390" 
d="M73 356h245v-53h-245v53z" />
    <glyph glyph-name="bracketleft.case" horiz-adv-x="303" 
d="M78 790h182v-52h-122v-802h122v-52h-182v906z" />
    <glyph glyph-name="bracketright.case" horiz-adv-x="303" 
d="M43 790h182v-906h-182v52h122v802h-122v52z" />
    <glyph glyph-name="braceleft.case" horiz-adv-x="302" 
d="M179 655v-216q0 -92 -65 -102q65 -10 65 -104v-213q0 -49 17 -67.5t59 -18.5v-50q-73 0 -104.5 29t-31.5 106v211q0 46 -19.5 64t-68.5 18v50q49 0 68.5 17.5t19.5 63.5v212q0 75 32 105t104 30v-50q-42 0 -59 -18.5t-17 -66.5z" />
    <glyph glyph-name="bar.case" horiz-adv-x="202" 
d="M125 -116h-47v906h47v-906z" />
    <glyph glyph-name="braceright.case" horiz-adv-x="302" 
d="M123 439v216q0 48 -17 66.5t-59 18.5v50q72 0 104 -30t32 -105v-212q0 -46 19.5 -63.5t68.5 -17.5v-50q-49 0 -68.5 -18t-19.5 -64v-211q0 -77 -31.5 -106t-104.5 -29v50q42 0 59 18.5t17 67.5v213q0 94 65 104q-65 10 -65 102z" />
    <glyph glyph-name="guilsinglleft.case" horiz-adv-x="326" 
d="M48 330l170 208l40 -30l-135 -178l136 -178l-41 -30z" />
    <glyph glyph-name="guilsinglright.case" horiz-adv-x="326" 
d="M108 538l170 -208l-170 -208l-40 30l136 178l-136 178z" />
    <glyph glyph-name="guillemotleft.case" horiz-adv-x="503" 
d="M48 330l170 208l40 -30l-135 -178l136 -178l-41 -30zM225 330l170 208l40 -30l-135 -178l136 -178l-41 -30z" />
    <glyph glyph-name="guillemotright.case" horiz-adv-x="503" 
d="M285 538l170 -208l-170 -208l-40 30l136 178l-136 178zM108 538l170 -208l-170 -208l-40 30l136 178l-136 178z" />
    <glyph glyph-name="endash.case" horiz-adv-x="590" 
d="M73 356h446v-53h-446v53z" />
    <glyph glyph-name="emdash.case" horiz-adv-x="730" 
d="M73 356h586v-53h-586v53z" />
    <glyph glyph-name="bullet.case" horiz-adv-x="370" 
d="M185 232q-44 0 -72.5 27.5t-28.5 69.5q0 43 28.5 70.5t72.5 27.5t72 -27.5t28 -70.5q0 -42 -28 -69.5t-72 -27.5z" />
    <glyph glyph-name="periodcentered.case" horiz-adv-x="247" 
d="M123 318q-23 0 -38 14.5t-15 37.5t15 37.5t38 14.5t38 -14.5t15 -37.5t-15 -37.5t-38 -14.5z" />
    <glyph glyph-name="a.alt" horiz-adv-x="515" 
d="M382 409v47h58v-456h-58v46q-45 -56 -138 -56q-98 0 -146 63t-48 176q0 111 48 174t146 63q93 0 138 -57zM111 229q0 -184 142 -184q91 0 128 67v232q-42 67 -128 67q-142 0 -142 -182z" />
    <glyph glyph-name="agrave.alt" horiz-adv-x="515" 
d="M382 409v47h58v-456h-58v46q-45 -56 -138 -56q-98 0 -146 63t-48 176q0 111 48 174t146 63q93 0 138 -57zM111 229q0 -184 142 -184q91 0 128 67v232q-42 67 -128 67q-142 0 -142 -182zM152 696h67l77 -151h-57z" />
    <glyph glyph-name="aacute.alt" horiz-adv-x="515" 
d="M382 409v47h58v-456h-58v46q-45 -56 -138 -56q-98 0 -146 63t-48 176q0 111 48 174t146 63q93 0 138 -57zM111 229q0 -184 142 -184q91 0 128 67v232q-42 67 -128 67q-142 0 -142 -182zM308 696h67l-87 -151h-57z" />
    <glyph glyph-name="acircumflex.alt" horiz-adv-x="515" 
d="M382 409v47h58v-456h-58v46q-45 -56 -138 -56q-98 0 -146 63t-48 176q0 111 48 174t146 63q93 0 138 -57zM111 229q0 -184 142 -184q91 0 128 67v232q-42 67 -128 67q-142 0 -142 -182zM232 696h61l102 -151h-57l-76 107l-75 -107h-57z" />
    <glyph glyph-name="atilde.alt" horiz-adv-x="515" 
d="M382 409v47h58v-456h-58v46q-45 -56 -138 -56q-98 0 -146 63t-48 176q0 111 48 174t146 63q93 0 138 -57zM111 229q0 -184 142 -184q91 0 128 67v232q-42 67 -128 67q-142 0 -142 -182zM397 626l-8 -49q-28 25 -59 25q-21 0 -64 -18.5t-72 -18.5q-44 0 -66 26l8 48
q23 -25 58 -25q23 0 64 19t72 19q36 0 67 -26z" />
    <glyph glyph-name="adieresis.alt" horiz-adv-x="515" 
d="M382 409v47h58v-456h-58v46q-45 -56 -138 -56q-98 0 -146 63t-48 176q0 111 48 174t146 63q93 0 138 -57zM111 229q0 -184 142 -184q91 0 128 67v232q-42 67 -128 67q-142 0 -142 -182zM174 569q-48 0 -48 47q0 24 13.5 36t34.5 12q20 0 33.5 -12.5t13.5 -35.5t-13.5 -35
t-33.5 -12zM350 569q-47 0 -47 47q0 48 47 48q20 0 34 -12.5t14 -35.5t-14 -35t-34 -12z" />
    <glyph glyph-name="amacron.alt" horiz-adv-x="515" 
d="M382 409v47h58v-456h-58v46q-45 -56 -138 -56q-98 0 -146 63t-48 176q0 111 48 174t146 63q93 0 138 -57zM111 229q0 -184 142 -184q91 0 128 67v232q-42 67 -128 67q-142 0 -142 -182zM126 635h272v-51h-272v51z" />
    <glyph glyph-name="abreve.alt" horiz-adv-x="515" 
d="M382 409v47h58v-456h-58v46q-45 -56 -138 -56q-98 0 -146 63t-48 176q0 111 48 174t146 63q93 0 138 -57zM111 229q0 -184 142 -184q91 0 128 67v232q-42 67 -128 67q-142 0 -142 -182zM345 681h47q0 -58 -35.5 -95t-94.5 -37q-58 0 -93.5 37t-35.5 95h45
q2 -37 23.5 -60.5t60.5 -23.5t60.5 23.5t22.5 60.5z" />
    <glyph glyph-name="aring.alt" horiz-adv-x="515" 
d="M161 624q0 40 27.5 66t73.5 26q47 0 74.5 -26t27.5 -66q0 -41 -28 -67t-74 -26t-73.5 26.5t-27.5 66.5zM206 624q0 -24 15 -39t41 -15t41.5 15t15.5 39t-15.5 38.5t-41.5 14.5t-41 -14.5t-15 -38.5zM382 409v47h58v-456h-58v46q-45 -56 -138 -56q-98 0 -146 63t-48 176
q0 111 48 174t146 63q93 0 138 -57zM111 229q0 -184 142 -184q91 0 128 67v232q-42 67 -128 67q-142 0 -142 -182z" />
    <glyph glyph-name="aringacute.alt" horiz-adv-x="515" 
d="M162 613q0 38 23 63t63 29l52 71h67l-65 -78q29 -9 45.5 -31.5t16.5 -53.5q0 -40 -28 -66t-74 -26q-45 0 -72.5 26t-27.5 66zM206 613q0 -23 15.5 -37.5t40.5 -14.5q27 0 42 14t15 38t-15 39t-42 15q-25 0 -40.5 -15t-15.5 -39zM382 409v47h58v-456h-58v46
q-45 -56 -138 -56q-98 0 -146 63t-48 176q0 111 48 174t146 63q93 0 138 -57zM111 229q0 -184 142 -184q91 0 128 67v232q-42 67 -128 67q-142 0 -142 -182z" />
    <glyph glyph-name="g.alt" horiz-adv-x="485" 
d="M450 464v-58h-75q42 -40 42 -105q0 -74 -47 -115t-133 -41q-44 0 -72 8q-22 -29 -22 -47q0 -40 48 -40h90q79 0 119.5 -31.5t40.5 -90.5q0 -69 -58 -110.5t-158 -41.5q-94 0 -142 34.5t-48 88.5q0 38 23.5 68t54.5 41q-14 6 -22.5 23t-8.5 35q0 38 45 85q-75 39 -75 136
q0 77 47 120t136 43q67 0 99 -18zM236 195q120 0 120 107q0 110 -121 110q-123 0 -123 -109q0 -108 124 -108zM150 12q-55 -30 -55 -84q0 -84 130 -84q71 0 112 24t41 71q0 73 -98 73h-130z" />
    <glyph glyph-name="gcircumflex.alt" horiz-adv-x="485" 
d="M450 464v-58h-75q42 -40 42 -105q0 -74 -47 -115t-133 -41q-44 0 -72 8q-22 -29 -22 -47q0 -40 48 -40h90q79 0 119.5 -31.5t40.5 -90.5q0 -69 -58 -110.5t-158 -41.5q-94 0 -142 34.5t-48 88.5q0 38 23.5 68t54.5 41q-14 6 -22.5 23t-8.5 35q0 38 45 85q-75 39 -75 136
q0 77 47 120t136 43q67 0 99 -18zM236 195q120 0 120 107q0 110 -121 110q-123 0 -123 -109q0 -108 124 -108zM150 12q-55 -30 -55 -84q0 -84 130 -84q71 0 112 24t41 71q0 73 -98 73h-130zM214 696h61l102 -151h-57l-76 107l-75 -107h-57z" />
    <glyph glyph-name="gbreve.alt" horiz-adv-x="485" 
d="M319 681h47q0 -58 -35.5 -95t-94.5 -37q-58 0 -93.5 37t-35.5 95h45q2 -37 23.5 -60.5t60.5 -23.5t60.5 23.5t22.5 60.5zM450 464v-58h-75q42 -40 42 -105q0 -74 -47 -115t-133 -41q-44 0 -72 8q-22 -29 -22 -47q0 -40 48 -40h90q79 0 119.5 -31.5t40.5 -90.5
q0 -69 -58 -110.5t-158 -41.5q-94 0 -142 34.5t-48 88.5q0 38 23.5 68t54.5 41q-14 6 -22.5 23t-8.5 35q0 38 45 85q-75 39 -75 136q0 77 47 120t136 43q67 0 99 -18zM236 195q120 0 120 107q0 110 -121 110q-123 0 -123 -109q0 -108 124 -108zM150 12q-55 -30 -55 -84
q0 -84 130 -84q71 0 112 24t41 71q0 73 -98 73h-130z" />
    <glyph glyph-name="gdotaccent.alt" horiz-adv-x="485" 
d="M232 569q-48 0 -48 47q0 24 13.5 36t34.5 12q20 0 33.5 -12.5t13.5 -35.5t-13.5 -35t-33.5 -12zM450 464v-58h-75q42 -40 42 -105q0 -74 -47 -115t-133 -41q-44 0 -72 8q-22 -29 -22 -47q0 -40 48 -40h90q79 0 119.5 -31.5t40.5 -90.5q0 -69 -58 -110.5t-158 -41.5
q-94 0 -142 34.5t-48 88.5q0 38 23.5 68t54.5 41q-14 6 -22.5 23t-8.5 35q0 38 45 85q-75 39 -75 136q0 77 47 120t136 43q67 0 99 -18zM236 195q120 0 120 107q0 110 -121 110q-123 0 -123 -109q0 -108 124 -108zM150 12q-55 -30 -55 -84q0 -84 130 -84q71 0 112 24t41 71
q0 73 -98 73h-130z" />
    <glyph glyph-name="brokenbar.sc" horiz-adv-x="204" 
d="M123 290h-42v292h42v-292zM81 188h42v-290h-42v290z" />
    <glyph glyph-name="gcommaaccent.alt" horiz-adv-x="485" 
d="M450 464v-58h-75q42 -40 42 -105q0 -74 -47 -115t-133 -41q-44 0 -72 8q-22 -29 -22 -47q0 -40 48 -40h90q79 0 119.5 -31.5t40.5 -90.5q0 -69 -58 -110.5t-158 -41.5q-94 0 -142 34.5t-48 88.5q0 38 23.5 68t54.5 41q-14 6 -22.5 23t-8.5 35q0 38 45 85q-75 39 -75 136
q0 77 47 120t136 43q67 0 99 -18zM236 195q120 0 120 107q0 110 -121 110q-123 0 -123 -109q0 -108 124 -108zM150 12q-55 -30 -55 -84q0 -84 130 -84q71 0 112 24t41 71q0 73 -98 73h-130zM203 555l49 170h48l-25 -170h-72z" />
    <glyph glyph-name="aogonek.alt" horiz-adv-x="515" 
d="M383 409v47h58v-456h-1l-77 -62q-34 -29 -34 -59q0 -17 13 -30.5t37 -13.5q27 0 61 25v-54q-32 -22 -73 -22q-46 0 -72.5 24.5t-26.5 62.5q0 50 50 90l65 52v33q-45 -56 -138 -56q-98 0 -146 63t-48 176q0 111 48 174t146 63q93 0 138 -57zM112 229q0 -184 142 -184
q91 0 128 67v232q-42 67 -128 67q-142 0 -142 -182z" />
    </font>
</defs>
</svg>
