<svg xmlns="http://www.w3.org/2000/svg" width="27" height="30" viewBox="0 0 27 30">
    <g fill="#DD0060" fill-rule="evenodd">
        <path stroke="#DD0060" stroke-linecap="square" stroke-width="1.5" d="M22.25 13.609V9.826C22.25 4.952 18.332 1 13.5 1S4.75 4.952 4.75 9.826v3.783c0 4.16-3.75 5.17-3.75 7.565 0 2.143 4.875 3.783 12.5 3.783S26 23.317 26 21.174c0-2.396-3.75-3.404-3.75-7.565z"/>
        <path d="M13.5 27.478c-1.264 0-2.451-.043-3.569-.126a3.744 3.744 0 0 0 3.569 2.644c1.635 0 3.08-1.07 3.569-2.644a48.095 48.095 0 0 1-3.569.126z"/>
    </g>
</svg>
