<svg xmlns="http://www.w3.org/2000/svg" width="151" height="72" viewBox="0 0 151 72">
    <g fill="none" fill-rule="evenodd">
        <g transform="translate(87 7)">
            <rect width="61" height="61.5" x="1.5" y="1.5" stroke="#000" stroke-width="3" rx="9"/>
            <rect width="45" height="45.5" x="9.5" y="9.5" stroke="#000" stroke-width="3" rx="2"/>
            <path fill="#000" fill-rule="nonzero" d="M40.71 32.224l-8.835-15.347-8.836 15.347a10.219 10.219 0 0 0-1.364 5.116c0 5.64 4.577 10.231 10.2 10.231 5.623 0 10.2-4.591 10.2-10.231 0-1.867-.497-3.607-1.364-5.116zm-8.835 12.79c-4.22 0-7.65-3.44-7.65-7.674 0-1.394.37-2.711 1.02-3.837l6.63-11.51 6.63 11.51a7.662 7.662 0 0 1 1.02 3.837c0 4.233-3.43 7.674-7.65 7.674z"/>
        </g>
        <path fill="#000" fill-rule="nonzero" d="M30.954 11.712a7.192 7.192 0 0 0-2.115 5.088c0 3.968 3.236 7.2 7.21 7.2 3.973 0 7.21-3.232 7.21-7.2s-3.237-7.2-7.21-7.2c-1.987 0-3.798.8-5.095 2.112zm9.1 5.088c0 2.208-1.795 4-4.006 4a4.004 4.004 0 0 1-4.005-4c0-1.104.449-2.096 1.17-2.832a3.945 3.945 0 0 1 2.835-1.168 4.004 4.004 0 0 1 4.006 4zM62.484 0H9.613C4.326 0 0 4.32 0 9.6v52.8C0 67.68 4.326 72 9.613 72h52.87c5.288 0 9.614-4.32 9.614-9.6V56h-3.205v6.4c0 3.52-2.883 6.4-6.408 6.4H9.613c-3.525 0-6.409-2.88-6.409-6.4V9.6c0-3.52 2.884-6.4 6.409-6.4h52.87c3.526 0 6.41 2.88 6.41 6.4v17.6h3.204V9.6c0-5.28-4.326-9.6-9.613-9.6z"/>
        <path fill="#FFF" d="M64 24h37v32H64z"/>
        <path fill="#37A58C" fill-rule="nonzero" d="M92.118 43.2l12.817-8-12.817-8v6.4h-36.85v3.2h36.85v6.4zM66.484 40l-12.817 8 12.817 8v-6.4h36.85v-3.2h-36.85V40z"/>
    </g>
</svg>
