<svg xmlns="http://www.w3.org/2000/svg" width="102" height="102" viewBox="0 0 102 102">
    <g fill="none" fill-rule="evenodd">
        <path fill="#37A58C" d="M54.188 0v47.813H102V0H54.187zm38.25 27.094H81.28V38.25h-6.375V27.094H63.75v-6.375h11.156V9.562h6.375V20.72h11.156v6.375z"/>
        <path fill="#000" fill-rule="nonzero" d="M79.688 51v39.844c0 6.152-5.005 11.156-11.157 11.156H11.156C5.004 102 0 96.996 0 90.844V33.469c0-6.152 5.004-11.157 11.156-11.157H51V25.5H11.156c-4.383 0-7.969 3.586-7.969 7.969v57.375c0 4.383 3.586 7.969 7.97 7.969H68.53c4.383 0 7.969-3.586 7.969-7.97V51h3.188z"/>
        <path fill="#000" fill-rule="nonzero" d="M70.125 51v38.25a3.197 3.197 0 0 1-3.188 3.188H12.75a3.197 3.197 0 0 1-3.188-3.188V35.062a3.197 3.197 0 0 1 3.188-3.187H51v3.188H12.75V89.25h54.188V51h3.187z"/>
        <path fill="#000" fill-rule="nonzero" d="M50.888 62.156L39.844 43.031 28.799 62.156a12.704 12.704 0 0 0-1.705 6.375c0 7.029 5.721 12.75 12.75 12.75 7.028 0 12.75-5.721 12.75-12.75 0-2.327-.622-4.494-1.706-6.375zM39.844 78.094c-5.276 0-9.563-4.287-9.563-9.563 0-1.737.462-3.379 1.275-4.781l8.288-14.344L48.13 63.75a9.525 9.525 0 0 1 1.275 4.781c0 5.276-4.287 9.563-9.562 9.563z"/>
    </g>
</svg>
