<svg xmlns="http://www.w3.org/2000/svg" width="77" height="96" viewBox="0 0 77 96">
    <g fill="none" fill-rule="nonzero">
        <path fill="#37A58C" d="M35.292 25.6a15.93 15.93 0 0 1 4.7-11.312A16.012 16.012 0 0 1 51.333 9.6c4.428 0 8.438 1.792 11.342 4.688a15.93 15.93 0 0 1 4.7 11.312 15.93 15.93 0 0 1-4.7 11.312A16.012 16.012 0 0 1 51.333 41.6c-2.679 0-5.197-.656-7.41-1.808l10.827-10.8a4.776 4.776 0 0 0 1.396-3.392 4.727 4.727 0 0 0-1.412-3.392 4.752 4.752 0 0 0-3.4-1.408c-1.236 0-2.471.464-3.402 1.408l-10.828 10.8a16.01 16.01 0 0 1-1.812-7.408z"/>
        <path fill="#000" d="M49.697 63.424a6.365 6.365 0 0 0-.257-8.752c-.85-.848-1.876-1.376-2.951-1.648a6.365 6.365 0 0 0-.257-8.752 6.292 6.292 0 0 0-2.903-1.632l12.528-12.512a6.4 6.4 0 0 0 0-9.056c-2.486-2.496-6.577-2.496-9.08 0l-31.2 31.152a1.615 1.615 0 0 1-2.262 0 1.555 1.555 0 0 1-.466-1.12l-.016-9.504c0-6.176-5.037-11.2-11.229-11.2H0v36.8h3.208V33.76c3.706.752 6.417 4.048 6.417 7.84v9.504c0 1.312.53 2.496 1.412 3.376 1.877 1.872 4.94 1.872 6.801 0l31.217-31.136a3.22 3.22 0 0 1 4.54 0 3.2 3.2 0 0 1 0 4.528L33.768 47.664l-.465.464 2.261 2.256 3.866-3.856a3.22 3.22 0 0 1 4.54 0 3.2 3.2 0 0 1 0 4.528L37.17 57.84l2.261 2.256.93-.928.017.032 2.262-2.256a3.22 3.22 0 0 1 4.54 0 3.2 3.2 0 0 1 0 4.528l-6.802 6.784 2.262 2.256.93-.928.016.016 2.262-2.256a3.22 3.22 0 0 1 4.54 0 3.2 3.2 0 0 1 0 4.528L26.196 96h4.54l21.929-21.872c2.502-2.496 2.502-6.544 0-9.056-.85-.848-1.877-1.376-2.968-1.648zM25.667 0v35.2h3.208v-32h44.917V48H51.333v3.2H77V0H25.667z"/>
    </g>
</svg>
