<svg xmlns="http://www.w3.org/2000/svg" width="102" height="102" viewBox="0 0 102 102">
    <g fill="none" fill-rule="nonzero">
        <path fill="#37A58C" d="M31.875 25.516v35.062h35.063V25.516H31.874zm14.344 26.17l-7.507-7.507 2.247-2.263 5.26 5.259 11.618-11.618 2.247 2.247L46.22 51.685z"/>
        <path fill="#000" d="M35.063 0H25.5v9.563h9.563V0zm-3.188 6.375h-3.188V3.187h3.188v3.188zm-9.563 9.563V12.75h-3.187V9.562h-3.188v3.188H12.75v3.188h3.188v3.187h3.187v-3.188h3.188zM9.563 12.75h3.188V9.562H9.562v3.188zm6.376 6.375H12.75V25.5h3.188v3.188h3.187V25.5h-3.188v-6.375zm3.187-15.938h-3.188v3.188h3.188V3.187zM9.562 0H0v9.563h9.563V0zM6.376 6.375H3.187V3.187h3.188v3.188zM0 35.063h9.563V25.5H0v9.563zm3.188-6.376h3.187v3.188H3.187v-3.188zM6.374 12.75H3.187v3.188h3.188v6.374h3.188v-3.187h3.187v-3.188H6.375V12.75zM25.5 15.938h-3.188v3.187H25.5v-3.188zm3.188-3.188H25.5v3.188h3.188V12.75zm-6.375 9.563v-3.188h-3.188v3.188h3.188zm-9.563 9.562h3.188v-3.188H12.75v3.188zM76.5 102H102l-.016-31.875c0-4.303-1.705-8.43-4.75-11.475L73.314 35.063V19.124H25.5v3.188h-3.188V25.5H25.5V102h47.813V74.906h-3.188v23.906H28.687v-12.75h38.25v-3.187h-38.25V22.312h41.438V51a6.372 6.372 0 0 0-4.51 1.865c-1.243 1.227-1.865 2.884-1.865 4.51s.638 3.267 1.897 4.526l14.04 14.296v5.084c0 4.399 1.785 8.383 4.67 11.268 1.435 1.434 3.092 2.646 5.068 3.458l1.228-2.948c-1.53-.637-2.821-1.562-4.033-2.773-2.31-2.311-3.745-5.483-3.745-9.005v-6.39L67.91 59.653a3.141 3.141 0 0 1-.972-2.279c0-.829.302-1.626.924-2.247a3.173 3.173 0 0 1 2.263-.94c.813 0 1.626.302 2.263.94l14.137 14.519 2.279-2.215L74.65 52.897a6.597 6.597 0 0 0-1.338-.989V39.557l21.674 21.372a13.027 13.027 0 0 1 3.81 9.212l.016 28.671H76.5V102z"/>
    </g>
</svg>
