<svg xmlns="http://www.w3.org/2000/svg" width="102" height="102" viewBox="0 0 102 102">
    <g fill="none" fill-rule="nonzero">
        <path fill="#000" d="M35.063 65.344l9.562-11.125V27.094H30.281V4.78c0-.876.717-1.593 1.594-1.593.877 0 1.594.717 1.594 1.593v19.125h3.187V4.781A4.775 4.775 0 0 0 31.875 0a4.775 4.775 0 0 0-4.781 4.781v22.313H17.53V4.78A4.775 4.775 0 0 0 12.75 0a4.775 4.775 0 0 0-4.781 4.781v22.313H0v27.125l9.563 11.125v14.344h7.968V102h3.188V79.687h14.343V65.344zM11.155 4.78c0-.876.717-1.593 1.594-1.593.877 0 1.594.717 1.594 1.593v22.313h-3.188V4.78zM31.875 76.5H12.75V64.148L3.187 53.024V30.281h38.25V53.04l-9.562 11.124V76.5zM23.906 102h3.188V82.875h-3.188V102zm49.407-54.984c0-3.953-3.22-7.172-7.172-7.172a7.103 7.103 0 0 0-5.069 2.103 7.169 7.169 0 0 0-2.103 5.069c0 3.952 3.22 7.172 7.172 7.172 3.952 0 7.171-3.22 7.171-7.172zm-11.157 0c0-1.1.447-2.088 1.164-2.821a4.016 4.016 0 0 1 2.82-1.164 3.986 3.986 0 0 1 0 7.969 3.986 3.986 0 0 1-3.984-3.984zM92.438 30.28H47.812v3.188h44.626c3.506 0 6.374 2.868 6.374 6.375v52.593c0 3.507-2.868 6.376-6.374 6.376h-58.97V102h58.97c5.259 0 9.562-4.303 9.562-9.563V39.844c0-5.26-4.303-9.563-9.563-9.563z"/>
        <path fill="#37A58C" d="M38.25 33.469H6.375V51.86l9.563 11.108v10.343h12.75V62.97l9.562-11.108z"/>
    </g>
</svg>
