<svg xmlns="http://www.w3.org/2000/svg" width="102" height="54" viewBox="0 0 102 54">
    <g fill="none" fill-rule="nonzero">
        <path fill="#37A58C" d="M74.906 47.647H27.094a20.694 20.694 0 0 1-14.647-6.051C8.702 37.864 6.375 32.702 6.375 27s2.327-10.864 6.072-14.596a20.627 20.627 0 0 1 14.647-6.051h47.812V7.94a19.089 19.089 0 0 0-13.515 5.575c-3.458 3.462-5.61 8.227-5.61 13.484a18.904 18.904 0 0 0 5.61 13.468 19.036 19.036 0 0 0 13.515 5.59v1.59z"/>
        <path fill="#000" d="M94.063 7.91C88.772 2.635 81.84 0 74.906 0H27.094C12.16 0 0 12.102 0 27c0 14.882 12.144 27 27.094 27h47.812C89.856 54 102 41.898 102 27a26.866 26.866 0 0 0-7.937-19.09zM74.906 50.823H27.094c-13.18 0-23.907-10.69-23.907-23.824 0-13.135 10.726-23.824 23.907-23.824h47.812c6.12 0 12.24 2.32 16.91 6.973A23.706 23.706 0 0 1 98.812 27c0 13.135-10.725 23.824-23.906 23.824zm0-44.471a20.694 20.694 0 0 0-14.646 6.051c-3.746 3.732-6.072 8.894-6.072 14.596 0 11.388 9.291 20.647 20.718 20.647S95.625 38.387 95.625 27c0-11.388-9.292-20.647-20.719-20.647zm0 38.118c-9.674 0-17.531-7.83-17.531-17.471 0-4.828 1.96-9.196 5.132-12.356a17.507 17.507 0 0 1 12.4-5.115c9.673 0 17.53 7.83 17.53 17.471 0 9.64-7.857 17.47-17.53 17.47z"/>
    </g>
</svg>
