<svg xmlns="http://www.w3.org/2000/svg" width="102" height="64" viewBox="0 0 102 64">
    <g fill="none" fill-rule="nonzero">
        <path fill="#37A58C" d="M86.063 6.4v28.8H48.114L35.062 12.512 22.01 35.2H6.375V6.4z"/>
        <path fill="#000" d="M3.188 64h63.75L35.061 9.6 3.189 64zm5.562-3.2l26.313-44.896L61.358 60.8H8.75zM33.469 48h3.187V32H33.47v16zm0 6.4h3.187v-3.2H33.47v3.2zM92.437 9.6V0H0v41.6h12.75v-3.2H3.187V3.2H89.25v35.2H57.375v3.2h35.063V32H102V9.6h-9.563zm6.376 19.2h-6.376v-16h6.376v16z"/>
    </g>
</svg>
