<svg xmlns="http://www.w3.org/2000/svg" width="87" height="88" viewBox="0 0 87 88">
    <g fill="none" fill-rule="nonzero">
        <path fill="#37A58C" d="M58.258 43.2v7.856l7.984 9.6V68.8h6.387v-8l7.984-9.744V43.2z"/>
        <path fill="#000" d="M10.355 76.8V19.2h57.484v11.2h3.193V0H7.162v49.6H.773v16h6.387v11.2c0 6.176 5.014 11.2 11.178 11.2h46.306v-3.2H18.34c-4.391 0-7.984-3.6-7.984-8zm0-73.6h57.484V16H10.355V3.2zM7.16 62.4H3.968v-9.6H7.16v9.6zm6.387-51.2h6.387V8h-6.387v3.2zm9.581 0h6.387V8H23.13v3.2zm9.58 0h6.388V8H32.71v3.2zm25.55 0h6.386V8h-6.387v3.2zm22.354 25.6V24h-3.194v12.8H61.452V24h-3.194v12.8h-6.387v16.576l7.984 9.6V75.2h7.984V88h3.193V75.2h7.984V62.976l7.984-9.6V36.8h-6.387zm3.193 15.424l-7.983 9.6V72H63.048V61.824l-7.983-9.6V40h28.741v12.224z"/>
    </g>
</svg>
