<svg xmlns="http://www.w3.org/2000/svg" width="102" height="102" viewBox="0 0 102 102">
    <g fill="none" fill-rule="evenodd">
        <path fill="#37A58C" d="M54.188 0v47.813H102V0H54.187zm19.124 37.98l-11.81-11.81 4.511-4.51 7.3 7.298L90.19 12.097l4.51 4.51-21.388 21.372z"/>
        <path fill="#000" fill-rule="nonzero" d="M31.875 39.844a7.972 7.972 0 0 0 7.969 7.968 7.972 7.972 0 0 0 7.968-7.968c0-2.2-.892-4.192-2.326-5.626a7.95 7.95 0 0 0-5.642-2.343 7.972 7.972 0 0 0-7.969 7.969zm12.75 0a4.775 4.775 0 0 1-4.781 4.781 4.785 4.785 0 0 1-4.782-4.781 4.795 4.795 0 0 1 4.782-4.782c1.323 0 2.518.526 3.378 1.403a4.77 4.77 0 0 1 1.403 3.379zM76.5 51v39.844c0 4.383-3.586 7.969-7.969 7.969H11.156c-4.383 0-7.969-3.586-7.969-7.97V33.47c0-4.383 3.586-7.969 7.97-7.969H51v-3.188H11.156C5.004 22.313 0 27.317 0 33.47v57.375C0 96.996 5.004 102 11.156 102h57.375c6.152 0 11.156-5.004 11.156-11.156V51H76.5z"/>
    </g>
</svg>
