<svg xmlns="http://www.w3.org/2000/svg" width="149" height="88" viewBox="0 0 149 88">
    <g fill="none" fill-rule="nonzero">
        <path fill="#000" d="M142.591 49.6V0H78.505v43.2h3.205v-24h57.677v57.6c0 4.4-3.605 8-8.01 8H89.72c-4.405 0-8.01-3.6-8.01-8V72h-3.205v4.8c0 6.176 5.031 11.2 11.215 11.2h41.656c6.185 0 11.215-5.024 11.215-11.2V65.6H149v-16h-6.409zM139.387 16H81.71V3.2h57.677V16zm6.409 46.4h-3.205v-9.6h3.205v9.6zM91.323 8h-6.409v3.2h6.409V8zm9.612 0h-6.408v3.2h6.408V8zm9.613 0h-6.408v3.2h6.408V8zM30.954 27.712a7.192 7.192 0 0 0-2.115 5.088c0 3.968 3.236 7.2 7.21 7.2 3.973 0 7.21-3.232 7.21-7.2s-3.237-7.2-7.21-7.2c-1.987 0-3.798.8-5.095 2.112zm9.1 5.088c0 2.208-1.795 4-4.006 4a4.004 4.004 0 0 1-4.005-4c0-1.104.449-2.096 1.17-2.832a3.945 3.945 0 0 1 2.835-1.168 4.004 4.004 0 0 1 4.006 4zM62.484 16H9.613C4.326 16 0 20.32 0 25.6v52.8C0 83.68 4.326 88 9.613 88h52.87c5.288 0 9.614-4.32 9.614-9.6V72h-3.205v6.4c0 3.52-2.883 6.4-6.408 6.4H9.613c-3.525 0-6.409-2.88-6.409-6.4V25.6c0-3.52 2.884-6.4 6.409-6.4h52.87c3.526 0 6.41 2.88 6.41 6.4v17.6h3.204V25.6c0-5.28-4.326-9.6-9.613-9.6zm73.699-8h-6.409v3.2h6.409V8z"/>
        <path fill="#37A58C" d="M88.118 59.2l12.817-8-12.817-8v6.4h-36.85v3.2h36.85v6.4zM62.484 56l-12.817 8 12.817 8v-6.4h36.85v-3.2h-36.85V56z"/>
    </g>
</svg>
