<svg xmlns="http://www.w3.org/2000/svg" width="77" height="103" viewBox="0 0 77 103">
    <g fill="none" fill-rule="nonzero">
        <path fill="#37A58C" d="M32.083 27.8h19.25V47h-4.812v-6.4a4.8 4.8 0 0 0-4.813-4.8 4.8 4.8 0 0 0-4.812 4.8V47h-4.813V27.8z"/>
        <path fill="#000" d="M54.189 12.152c-6.882-6.88-18.063-6.88-24.945 0l2.262 2.256c5.63-5.616 14.774-5.616 20.42 0l2.263-2.256zM19.25 42.2V39h-6.417v3.2h6.417zm20.854-17.6h3.209v-3.2h-3.209v3.2zm30.48 33.6V31h-19.25v3.2h16.041V47H54.542v3.2h12.833v8h3.208zM57.75 39v3.2h6.417V39H57.75zm-8.101-22.32c-4.38-4.368-11.486-4.368-15.881 0l2.262 2.256c3.128-3.12 8.213-3.12 11.341 0l2.278-2.256zM9.625 95V50.2h19.25V47H9.625V34.2h22.458V31H6.417v33.6H0v16h6.417V95c0 4.4 3.609 8 8.02 8H57.75v-3.2H14.437c-2.646 0-4.812-2.16-4.812-4.8zM6.417 77.4H3.208v-9.6h3.209v9.6zm22.458-35.2V39h-6.417v3.2h6.417zm41.708 22.4c-1.203 0-2.31.352-3.272.928-.353-3.216-3.048-5.728-6.353-5.728-1.203 0-2.31.352-3.272.928C57.333 57.512 54.638 55 51.333 55a6.425 6.425 0 0 0-3.208.88V40.6c0-3.536-2.871-6.4-6.417-6.4-3.545 0-6.416 2.864-6.416 6.4v36.304c0 .88-.738 1.6-1.605 1.6-2.31 0-5.117-7.504-12.833-7.504-4.01 0-6.4 1.744-9.08 4.416L29.822 93.4h4.54L16.427 75.528a7.926 7.926 0 0 1 4.427-1.328c6.657 0 8.005 7.504 12.834 7.504 2.646 0 4.812-2.16 4.812-4.8V40.6c0-1.76 1.428-3.2 3.208-3.2a3.214 3.214 0 0 1 3.209 3.2v24h3.208v-3.2c0-1.76 1.428-3.2 3.208-3.2a3.193 3.193 0 0 1 3.209 3.2V71h3.208v-4.8c0-1.76 1.428-3.2 3.208-3.2a3.193 3.193 0 0 1 3.209 3.2v9.6h3.208V71c0-1.76 1.428-3.2 3.208-3.2 1.781 0 3.209 1.44 3.209 3.2v22.4H77V71c0-3.536-2.871-6.4-6.417-6.4zM56.451 9.896l2.261-2.272c-9.4-9.376-24.64-9.376-34.024 0l2.262 2.272c8.15-8.128 21.368-8.128 29.5 0z"/>
    </g>
</svg>
