<svg xmlns="http://www.w3.org/2000/svg" width="102" height="102" viewBox="0 0 102 102">
    <g fill="none" fill-rule="nonzero">
        <path fill="#37A58C" d="M38.25 31.89h22.313v22.313H38.25z"/>
        <path fill="#000" d="M35.063 0H25.5v9.563h9.563V0zm-3.188 6.375h-3.188V3.187h3.188v3.188zM9.562 9.563v3.187h3.188V9.562H9.562zM12.75 25.5h3.188v-6.375H12.75V25.5zm9.563-9.563V12.75h-3.188V9.562h-3.188v3.188H12.75v3.188h3.188v3.187h3.187v-3.188h3.188zm-3.188 12.75V25.5h-3.188v3.188h3.188zm0-25.5h-3.188v3.188h3.188V3.187zM0 0v9.563h9.563V0H0zm6.375 6.375H3.187V3.187h3.188v3.188zM0 35.063h9.563V25.5H0v9.563zm3.188-6.376h3.187v3.188H3.187v-3.188zm0-15.937v3.188h3.187V12.75H3.187zM25.5 19.125v-3.188h-3.188v3.188H25.5zm3.188-6.375H25.5v3.188h3.188V12.75zm-9.563 6.375v3.188h3.188v-3.188h-3.188zm-12.75-3.188v6.376h3.188v-3.188h3.187v-3.188H6.375zm6.375 15.938h3.188v-3.188H12.75v3.188zM31.875 51v9.563h9.563v-3.188h-6.376V51h-3.187zm35.063-15.938V25.5h-9.563v3.188h6.375v6.375h3.188zm-25.5-9.562h-9.563v9.563h3.188v-6.376h6.374V25.5zm55.797 33.15L73.313 35.063V19.124H25.5v3.188h-3.188V25.5H25.5V102h47.813V74.906h-3.188v23.906H28.687v-12.75h38.25v-3.187h-38.25V22.312h41.438V51a6.225 6.225 0 0 0-3.188.892V51H63.75v6.375h-6.375v3.188h7.267c.271.478.59.924 1.005 1.338l14.04 14.312v5.068c0 6.646 4.065 12.336 9.834 14.726l1.227-2.948c-4.622-1.912-7.873-6.47-7.873-11.778v-6.375L67.91 59.654a3.178 3.178 0 0 1-.972-2.279 3.197 3.197 0 0 1 3.187-3.188 3.16 3.16 0 0 1 2.247.925L86.51 69.647l2.279-2.215L74.635 52.88c-.398-.399-.86-.718-1.323-.989V39.541l21.675 21.372a13.042 13.042 0 0 1 3.826 9.212v28.688H76.5V102H102V70.125c0-4.303-1.737-8.43-4.765-11.475z"/>
    </g>
</svg>
