<svg xmlns="http://www.w3.org/2000/svg" width="138" height="102" viewBox="0 0 138 102">
    <g fill="none" fill-rule="nonzero">
        <path fill="#37A58C" d="M51.349 33.469h4.814v3.187h6.418V33.47h4.814v20.718H51.35z"/>
        <path fill="#000" d="M73.814 27.094h-9.628v-6.375h-9.628v6.375H44.93v33.468h9.628V102h3.21V60.562h16.046V27.094zm-16.047-3.188h3.21v11.157h-3.21V23.905zm12.838 33.469H48.14V30.281h6.418v7.969h9.628v-7.969h6.419v27.094zM60.977 102h3.209V63.75h-3.21V102zM25.674 89.25v-3.188h-3.209v3.188h3.21zM51.35 3.187h3.21v9.563h3.208V3.187h3.21v9.563h3.209V3.187h3.21v20.72h3.209V0H48.14v23.906h3.209V3.188zM25.594 43.111a11.296 11.296 0 0 0-7.943-3.267c-2.872 0-5.76 1.084-7.943 3.267l2.279 2.247c1.556-1.562 3.61-2.327 5.664-2.327s4.108.781 5.665 2.343l2.278-2.263zm4.541-4.51c-3.45-3.427-7.975-5.132-12.484-5.132S8.617 35.174 5.167 38.6l2.279 2.263c2.808-2.805 6.498-4.208 10.205-4.208 3.69 0 7.382 1.403 10.206 4.208l2.278-2.263zM17.7 30.28a20.739 20.739 0 0 1 14.699 6.072l2.279-2.247a24.012 24.012 0 0 0-16.978-7.012c-6.162 0-12.356 2.327-17.057 6.996l2.278 2.263c4.06-4.064 9.42-6.072 14.78-6.072zm1.557 27.094h-3.21V76.5H0v22.313h9.628V102h3.21v-3.188H48.14v-3.187H3.21V79.687h44.93V76.5H19.256V57.375zm51.349 22.313H86.65v15.937H70.605v3.188h6.418V102h3.21v-3.188h9.627V76.5H70.605v3.188zm36.393-27.604a7.145 7.145 0 0 0 2.118-5.068 7.079 7.079 0 0 0-2.118-5.069 7.176 7.176 0 0 0-5.103-2.103c-1.99 0-3.803.813-5.102 2.103a7.079 7.079 0 0 0-2.119 5.069c0 1.976.819 3.777 2.119 5.068a7.243 7.243 0 0 0 10.205 0zm-9.114-5.068c0-1.1.449-2.088 1.171-2.821a4.029 4.029 0 0 1 2.84-1.164c1.108 0 2.102.447 2.84 1.164a3.974 3.974 0 0 1 1.172 2.82c0 1.1-.45 2.088-1.171 2.822a4.057 4.057 0 0 1-2.84 1.163 4.057 4.057 0 0 1-2.84-1.163 4.002 4.002 0 0 1-1.172-2.821zM138 39.844a9.47 9.47 0 0 0-2.824-6.758 9.6 9.6 0 0 0-6.804-2.805H77.023v3.188h51.35c1.764 0 3.369.717 4.54 1.864 1.156 1.164 1.878 2.742 1.878 4.51v52.594a6.393 6.393 0 0 1-1.878 4.51 6.385 6.385 0 0 1-4.54 1.865H93.07V102h35.302a9.6 9.6 0 0 0 6.804-2.805A9.535 9.535 0 0 0 138 92.438V39.843zM19.256 89.25v-3.188h-3.21v3.188h3.21zM16.046 51h3.21v-3.188h-3.21V51zm-3.209 38.25v-3.188h-3.21v3.188h3.21z"/>
    </g>
</svg>
