<svg xmlns="http://www.w3.org/2000/svg" width="80" height="102" viewBox="0 0 80 102">
    <g fill="none" fill-rule="nonzero">
        <path fill="#37A58C" d="M6.4 70.125v-33.93L35.2 8.812 64 36.194v30.743h-4.8a4.784 4.784 0 0 0-4.8-4.78 4.784 4.784 0 0 0-4.8 4.78V43.032a4.784 4.784 0 0 0-4.8-4.781 4.784 4.784 0 0 0-4.8 4.781v27.094H6.4z"/>
        <path fill="#000" d="M35.2 73.313h-32V34.839l32-30.424 32 30.424v27.317h3.2V33.47L35.2 0 0 33.469V76.5h35.2v-3.188zm38.4-3.188c-1.2 0-2.304.35-3.264.924-.352-3.203-3.04-5.705-6.336-5.705-1.2 0-2.304.35-3.264.924-.352-3.203-3.04-5.706-6.336-5.706a6.414 6.414 0 0 0-3.2.877V43.031c0-3.522-2.864-6.375-6.4-6.375-3.536 0-6.4 2.853-6.4 6.375v42.537c0 .861-.736 1.594-1.6 1.594-2.432 0-5.04-7.475-12.8-7.475-3.984 0-6.368 1.754-9.024 4.4l18 17.913h4.528L19.616 84.198A7.77 7.77 0 0 1 24 82.875c6.656 0 7.904 7.475 12.8 7.475 2.64 0 4.8-2.152 4.8-4.782V43.031c0-1.753 1.44-3.187 3.2-3.187 1.76 0 3.2 1.434 3.2 3.187V71.72h3.2v-4.781c0-1.754 1.44-3.188 3.2-3.188 1.776 0 3.2 1.434 3.2 3.188V76.5h3.2v-4.781c0-1.753 1.44-3.188 3.2-3.188 1.776 0 3.2 1.435 3.2 3.188v9.562h3.2V76.5c0-1.753 1.44-3.188 3.2-3.188 1.776 0 3.2 1.435 3.2 3.188V102H80V76.5c0-3.522-2.864-6.375-6.4-6.375z"/>
    </g>
</svg>
