<svg xmlns="http://www.w3.org/2000/svg" width="147" height="48" viewBox="0 0 147 48">
    <g fill="none" fill-rule="evenodd">
        <g fill="#000">
            <path d="M91.528 16.565v12.879h-3.573v-12.88H79.68v31.174l8.276-.003v-12.94h3.568l.004 12.94h8.286l-.024-31.17h-8.261M114.947 29.444h-3.338V23.13c0-1.157.422-1.587 1.443-1.587l1.893.004.002 7.897zm-7.144-12.88c-2.614.02-4.44 2.323-4.419 5.096v26.075h8.24l.003-12.94h3.351v12.94h8.158v-31.17s-14.422-.007-15.333 0zM50.32 27.879c.03.939-.355 1.5-1.031 1.565l-2.435.017v-7.914s1.87-.018 2.031-.018c1.006-.002 1.45.54 1.436 1.6v4.75zm4.18 4.073c1.913-.23 4.094-2.29 4.094-4.997l-.002-5.295c-.047-2.823-2.083-5.095-4.245-5.095H38.695v31.17h8.159v-12.94l2.03-.002c1.002.004 1.432.488 1.436 1.618v11.324h8.284l-.01-10.718c0-2.748-2.165-4.832-4.095-5.065zM70.486 22.6h5.615v-6.035H62.185l-.002 31.17H76.1v-6.029l-5.63-.015v-6.896h4.796v-5.351h-4.795l.014-6.844M145.967 44.605c.451-1.141.546-2.306.546-3.763l-.01-24.277h-8.082l.004 24.071c0 .662-.436 1.76-1.786 1.76h-.063c-1.383 0-1.785-1.093-1.785-1.76l.003-24.071h-8.082l-.01 24.277c0 1.506.096 2.622.547 3.763.613 1.42 1.982 2.581 3.46 2.951.59.145 1.314.158 2.204.179h7.39c.889-.02 1.615-.04 2.203-.179 1.522-.4 2.848-1.53 3.46-2.951"/>
        </g>
        <path fill="#3CB498" d="M2.61 8.123c-2.27 2.384-2.865 6.434-1.514 9.485 1.405 2.94 3.351 5.602 5.675 8.099C5.15 17.44 6.88 9.065 10.825 2.409 7.96 3.962 5.041 5.515 2.61 8.123z"/>
        <path fill="#DD0060" d="M17.312 31.642c3.567.832 6.864-.666 8.972-3.605 1.73-2.774 2.865-5.77 3.838-8.876-6.162 5.381-13.35 8.155-21.675 8.099 2.81 1.83 5.622 3.606 8.865 4.382z"/>
        <path fill="#000" fill-opacity=".8" d="M22.77.301c-3.35-.166-6.485.277-9.512.998C20.285 3.63 27.31 9.62 30.879 16.554c.162-3.994.324-8.265-1.298-11.649-1.35-2.663-4.053-4.327-6.81-4.604z"/>
    </g>
</svg>
